SplineFontDB: 3.2
FontName: TDAText
FullName: TDAText
FamilyName: TDAText
Weight: Regular
Copyright: Copyright (c) 2024-2025 Dmitry Tretyakov\n\nBased on Philips SAA52XX/SAA55XX/TDA93XX IC character set:\nCopyright (c) 1985-2001 NXP Semiconductors N.V.
Version: 0.1.5.20251023-0816
ItalicAngle: 0
UnderlinePosition: -100
UnderlineWidth: 50
Ascent: 800
Descent: 200
InvalidEm: 0
LayerCount: 2
Layer: 0 1 "+BBcEMAQ0BD0EOAQ5 +BD8EOwQwBD0A" 1
Layer: 1 1 "+BB8ENQRABDUENAQ9BDgEOQAA +BD8EOwQwBD0A" 0
XUID: [1021 189 -1959298516 7444281]
StyleMap: 0x0000
FSType: 0
OS2Version: 4
OS2_WeightWidthSlopeOnly: 0
OS2_UseTypoMetrics: 1
CreationTime: 1720191932
ModificationTime: 1761202648
PfmFamily: 17
TTFWeight: 400
TTFWidth: 5
LineGap: 90
VLineGap: 0
Panose: 2 0 5 3 0 0 0 0 0 0
OS2TypoAscent: 800
OS2TypoAOffset: 0
OS2TypoDescent: -200
OS2TypoDOffset: 0
OS2TypoLinegap: 90
OS2WinAscent: 800
OS2WinAOffset: 0
OS2WinDescent: 200
OS2WinDOffset: 0
HheadAscent: 800
HheadAOffset: 0
HheadDescent: -200
HheadDOffset: 0
OS2SubXSize: 650
OS2SubYSize: 700
OS2SubXOff: 0
OS2SubYOff: 140
OS2SupXSize: 650
OS2SupYSize: 700
OS2SupXOff: 0
OS2SupYOff: 480
OS2StrikeYSize: 49
OS2StrikeYPos: 258
OS2CapHeight: 700
OS2XHeight: 500
OS2Vendor: 'PfEd'
OS2CodePages: 00000004.c2960000
OS2UnicodeRanges: 8000028f.1200f8ea.00000020.00000000
MarkAttachClasses: 1
DEI: 91125
ShortTable: maxp 16
  1
  0
  604
  240
  60
  0
  0
  2
  0
  1
  1
  0
  64
  0
  0
  0
EndShort

StartChar: exclam
Encoding: 33 33 4
Width: 600
GlyphClass: 2
Flags: W
LayerCount: 2
Back
Fore
SplineSet
250 700 m 1,0,-1
 350 700 l 1,1,-1
 350 200 l 1,2,-1
 250 200 l 1,3,-1
 250 700 l 1,0,-1
350 0 m 1,4,-1
 250 0 l 1,5,-1
 250 100 l 1,6,-1
 350 100 l 1,7,-1
 350 0 l 1,4,-1
EndSplineSet
Validated: 1
EndChar

StartChar: quotedbl
Encoding: 34 34 5
Width: 600
GlyphClass: 2
Flags: W
LayerCount: 2
Back
Fore
SplineSet
350 500 m 1,0,-1
 350 700 l 1,1,-1
 450 700 l 1,2,-1
 450 500 l 1,3,-1
 350 500 l 1,0,-1
150 500 m 1,4,-1
 150 700 l 1,5,-1
 250 700 l 1,6,-1
 250 500 l 1,7,-1
 150 500 l 1,4,-1
EndSplineSet
Validated: 1
EndChar

StartChar: numbersign
Encoding: 35 35 6
Width: 600
GlyphClass: 2
Flags: W
LayerCount: 2
Back
Fore
SplineSet
250 300 m 1,0,-1
 350 300 l 1,1,-1
 350 400 l 1,2,-1
 250 400 l 1,3,-1
 250 300 l 1,0,-1
150 700 m 1,4,-1
 250 700 l 1,5,-1
 250 500 l 1,6,-1
 350 500 l 1,7,-1
 350 700 l 1,8,-1
 450 700 l 1,9,-1
 450 500 l 1,10,-1
 550 500 l 1,11,-1
 550 400 l 1,12,-1
 450 400 l 1,13,-1
 450 300 l 1,14,-1
 550 300 l 1,15,-1
 550 200 l 1,16,-1
 450 200 l 1,17,-1
 450 0 l 1,18,-1
 350 0 l 1,19,-1
 350 200 l 1,20,-1
 250 200 l 1,21,-1
 250 0 l 1,22,-1
 150 0 l 1,23,-1
 150 200 l 1,24,-1
 50 200 l 1,25,-1
 50 300 l 1,26,-1
 150 300 l 1,27,-1
 150 400 l 1,28,-1
 50 400 l 1,29,-1
 50 500 l 1,30,-1
 150 500 l 1,31,-1
 150 700 l 1,4,-1
EndSplineSet
Validated: 1
EndChar

StartChar: dollar
Encoding: 36 36 7
Width: 600
GlyphClass: 2
Flags: W
LayerCount: 2
Back
Fore
SplineSet
450 100 m 1,0,-1
 450 300 l 1,1,-1
 350 300 l 1,2,-1
 350 100 l 1,3,-1
 450 100 l 1,0,-1
250 600 m 1,4,-1
 150 600 l 1,5,-1
 150 400 l 1,6,-1
 250 400 l 1,7,-1
 250 600 l 1,4,-1
350 800 m 1,8,-1
 350 700 l 1,9,-1
 500 700 l 1,10,-1
 500 600 l 1,11,-1
 550 600 l 1,12,-1
 550 500 l 1,13,-1
 450 500 l 1,14,-1
 450 600 l 1,15,-1
 350 600 l 1,16,-1
 350 400 l 1,17,-1
 500 400 l 1,18,-1
 500 300 l 1,19,-1
 550 300 l 1,20,-1
 550 100 l 1,21,-1
 500 100 l 1,22,-1
 500 0 l 1,23,-1
 350 0 l 1,24,-1
 350 -100 l 1,25,-1
 250 -100 l 1,26,-1
 250 0 l 1,27,-1
 100 0 l 1,28,-1
 100 100 l 1,29,-1
 50 100 l 1,30,-1
 50 200 l 1,31,-1
 150 200 l 1,32,-1
 150 100 l 1,33,-1
 250 100 l 1,34,-1
 250 300 l 1,35,-1
 100 300 l 1,36,-1
 100 400 l 1,37,-1
 50 400 l 1,38,-1
 50 600 l 1,39,-1
 100 600 l 1,40,-1
 100 700 l 1,41,-1
 250 700 l 1,42,-1
 250 800 l 1,43,-1
 350 800 l 1,8,-1
EndSplineSet
Validated: 1
EndChar

StartChar: percent
Encoding: 37 37 8
Width: 600
GlyphClass: 2
Flags: W
LayerCount: 2
Back
Fore
SplineSet
400 700 m 1,0,-1
 500 700 l 1,1,-1
 500 600 l 1,2,-1
 450 600 l 1,3,-1
 450 500 l 1,4,-1
 400 500 l 1,5,-1
 400 400 l 1,6,-1
 350 400 l 1,7,-1
 350 300 l 1,8,-1
 300 300 l 1,9,-1
 300 200 l 1,10,-1
 250 200 l 1,11,-1
 250 100 l 1,12,-1
 200 100 l 1,13,-1
 200 0 l 1,14,-1
 100 0 l 1,15,-1
 100 100 l 1,16,-1
 150 100 l 1,17,-1
 150 200 l 1,18,-1
 200 200 l 1,19,-1
 200 300 l 1,20,-1
 250 300 l 1,21,-1
 250 400 l 1,22,-1
 300 400 l 1,23,-1
 300 500 l 1,24,-1
 350 500 l 1,25,-1
 350 600 l 1,26,-1
 400 600 l 1,27,-1
 400 700 l 1,0,-1
450 100 m 1,28,-1
 500 100 l 1,29,-1
 500 200 l 1,30,-1
 450 200 l 1,31,-1
 450 100 l 1,28,-1
400 300 m 1,32,-1
 550 300 l 1,33,-1
 550 200 l 1,34,-1
 600 200 l 1,35,-1
 600 100 l 1,36,-1
 550 100 l 1,37,-1
 550 0 l 1,38,-1
 400 0 l 1,39,-1
 400 100 l 1,40,-1
 350 100 l 1,41,-1
 350 200 l 1,42,-1
 400 200 l 1,43,-1
 400 300 l 1,32,-1
100 600 m 1,44,-1
 100 500 l 1,45,-1
 150 500 l 1,46,-1
 150 600 l 1,47,-1
 100 600 l 1,44,-1
0 600 m 1,48,-1
 50 600 l 1,49,-1
 50 700 l 1,50,-1
 200 700 l 1,51,-1
 200 600 l 1,52,-1
 250 600 l 1,53,-1
 250 500 l 1,54,-1
 200 500 l 1,55,-1
 200 400 l 1,56,-1
 50 400 l 1,57,-1
 50 500 l 1,58,-1
 0 500 l 1,59,-1
 0 600 l 1,48,-1
EndSplineSet
Validated: 1
EndChar

StartChar: ampersand
Encoding: 38 38 9
Width: 600
GlyphClass: 2
Flags: W
LayerCount: 2
Back
Fore
SplineSet
200 300 m 1,0,-1
 200 200 l 1,1,-1
 150 200 l 1,2,-1
 150 100 l 1,3,-1
 350 100 l 1,4,-1
 350 200 l 1,5,-1
 300 200 l 1,6,-1
 300 300 l 1,7,-1
 200 300 l 1,0,-1
200 600 m 1,8,-1
 200 400 l 1,9,-1
 300 400 l 1,10,-1
 300 600 l 1,11,-1
 200 600 l 1,8,-1
150 700 m 1,12,-1
 350 700 l 1,13,-1
 350 600 l 1,14,-1
 400 600 l 1,15,-1
 400 400 l 1,16,-1
 350 400 l 1,17,-1
 350 300 l 1,18,-1
 400 300 l 1,19,-1
 400 200 l 1,20,-1
 450 200 l 1,21,-1
 450 300 l 1,22,-1
 550 300 l 1,23,-1
 550 200 l 1,24,-1
 500 200 l 1,25,-1
 500 100 l 1,26,-1
 600 100 l 1,27,-1
 600 0 l 1,28,-1
 450 0 l 1,29,-1
 450 100 l 1,30,-1
 400 100 l 1,31,-1
 400 0 l 1,32,-1
 100 0 l 1,33,-1
 100 100 l 1,34,-1
 50 100 l 1,35,-1
 50 200 l 1,36,-1
 100 200 l 1,37,-1
 100 300 l 1,38,-1
 150 300 l 1,39,-1
 150 400 l 1,40,-1
 100 400 l 1,41,-1
 100 600 l 1,42,-1
 150 600 l 1,43,-1
 150 700 l 1,12,-1
EndSplineSet
Validated: 1
EndChar

StartChar: quotesingle
Encoding: 39 39 10
Width: 600
GlyphClass: 2
Flags: W
LayerCount: 2
Back
Fore
SplineSet
250 700 m 1,0,-1
 350 700 l 1,1,-1
 350 500 l 1,2,-1
 250 500 l 1,3,-1
 250 700 l 1,0,-1
EndSplineSet
Validated: 1
EndChar

StartChar: parenleft
Encoding: 40 40 11
Width: 600
GlyphClass: 2
Flags: W
LayerCount: 2
Back
Fore
SplineSet
250 600 m 1,0,-1
 250 700 l 1,1,-1
 400 700 l 1,2,-1
 400 600 l 1,3,-1
 300 600 l 1,4,-1
 300 500 l 1,5,-1
 250 500 l 1,6,-1
 250 200 l 1,7,-1
 300 200 l 1,8,-1
 300 100 l 1,9,-1
 400 100 l 1,10,-1
 400 0 l 1,11,-1
 250 0 l 1,12,-1
 250 100 l 1,13,-1
 200 100 l 1,14,-1
 200 200 l 1,15,-1
 150 200 l 1,16,-1
 150 500 l 1,17,-1
 200 500 l 1,18,-1
 200 600 l 1,19,-1
 250 600 l 1,0,-1
EndSplineSet
Validated: 1
EndChar

StartChar: parenright
Encoding: 41 41 12
Width: 600
GlyphClass: 2
Flags: W
LayerCount: 2
Back
Fore
SplineSet
200 700 m 1,0,-1
 350 700 l 1,1,-1
 350 600 l 1,2,-1
 400 600 l 1,3,-1
 400 500 l 1,4,-1
 450 500 l 1,5,-1
 450 200 l 1,6,-1
 400 200 l 1,7,-1
 400 100 l 1,8,-1
 350 100 l 1,9,-1
 350 0 l 1,10,-1
 200 0 l 1,11,-1
 200 100 l 1,12,-1
 300 100 l 1,13,-1
 300 200 l 1,14,-1
 350 200 l 1,15,-1
 350 500 l 1,16,-1
 300 500 l 1,17,-1
 300 600 l 1,18,-1
 200 600 l 1,19,-1
 200 700 l 1,0,-1
EndSplineSet
Validated: 1
EndChar

StartChar: asterisk
Encoding: 42 42 13
Width: 600
GlyphClass: 2
Flags: W
LayerCount: 2
Back
Fore
SplineSet
50 600 m 1,0,-1
 150 600 l 1,1,-1
 150 500 l 1,2,-1
 199 500 l 1,3,-1
 200 400 l 1,4,-1
 250 400 l 1,5,-1
 250 700 l 1,6,-1
 350 700 l 1,7,-1
 350 400 l 1,8,-1
 400 400 l 1,9,-1
 400 500 l 1,10,-1
 450 500 l 1,11,-1
 450 600 l 1,12,-1
 550 600 l 1,13,-1
 550 500 l 1,14,-1
 500 500 l 1,15,-1
 500 400 l 1,16,-1
 450 400 l 1,17,-1
 450 300 l 1,18,-1
 500 300 l 1,19,-1
 500 200 l 1,20,-1
 550 200 l 1,21,-1
 550 100 l 1,22,-1
 450 100 l 1,23,-1
 450 200 l 1,24,-1
 400 200 l 1,25,-1
 400 300 l 1,26,-1
 350 300 l 1,27,-1
 350 0 l 1,28,-1
 250 0 l 1,29,-1
 250 300 l 1,30,-1
 200 300 l 1,31,-1
 200 200 l 1,32,-1
 150 200 l 1,33,-1
 150 100 l 1,34,-1
 50 100 l 1,35,-1
 50 200 l 1,36,-1
 100 200 l 1,37,-1
 100 300 l 1,38,-1
 150 300 l 1,39,-1
 150 400 l 1,40,-1
 100 400 l 1,41,-1
 100 500 l 1,42,-1
 50 500 l 1,43,-1
 50 600 l 1,0,-1
EndSplineSet
Validated: 1
EndChar

StartChar: plus
Encoding: 43 43 14
Width: 600
GlyphClass: 2
Flags: W
LayerCount: 2
Back
Fore
SplineSet
250 550 m 1,0,-1
 350 550 l 1,1,-1
 350 350 l 1,2,-1
 500 350 l 1,3,-1
 500 250 l 1,4,-1
 350 250 l 1,5,-1
 350 50 l 1,6,-1
 250 50 l 1,7,-1
 250 250 l 1,8,-1
 100 250 l 1,9,-1
 100 350 l 1,10,-1
 250 350 l 1,11,-1
 250 550 l 1,0,-1
EndSplineSet
Validated: 1
EndChar

StartChar: comma
Encoding: 44 44 15
Width: 600
GlyphClass: 2
Flags: W
LayerCount: 2
Back
Fore
SplineSet
199 -100 m 1,0,-1
 249 -100 l 1,1,-1
 249 0 l 1,2,-1
 199 0 l 1,3,-1
 199 100 l 1,4,-1
 349 100 l 1,5,-1
 349 -100 l 1,6,-1
 299 -100 l 1,7,-1
 299 -200 l 1,8,-1
 199 -200 l 1,9,-1
 199 -100 l 1,0,-1
EndSplineSet
Validated: 1
EndChar

StartChar: hyphen
Encoding: 45 45 16
Width: 600
GlyphClass: 2
Flags: W
LayerCount: 2
Back
Fore
SplineSet
100 250 m 1,0,-1
 100 350 l 1,1,-1
 500 350 l 1,2,-1
 500 250 l 1,3,-1
 100 250 l 1,0,-1
EndSplineSet
Validated: 1
EndChar

StartChar: period
Encoding: 46 46 17
Width: 600
GlyphClass: 2
Flags: W
LayerCount: 2
Back
Fore
SplineSet
350 0 m 1,0,-1
 250 0 l 1,1,-1
 250 100 l 1,2,-1
 350 100 l 1,3,-1
 350 0 l 1,0,-1
EndSplineSet
Validated: 1
EndChar

StartChar: slash
Encoding: 47 47 18
Width: 600
GlyphClass: 2
Flags: W
LayerCount: 2
Back
Fore
SplineSet
400 700 m 1,0,-1
 500 700 l 1,1,-1
 500 600 l 1,2,-1
 450 600 l 1,3,-1
 450 500 l 1,4,-1
 400 500 l 1,5,-1
 400 400 l 1,6,-1
 350 400 l 1,7,-1
 350 300 l 1,8,-1
 300 300 l 1,9,-1
 300 200 l 1,10,-1
 250 200 l 1,11,-1
 250 100 l 1,12,-1
 200 100 l 1,13,-1
 200 0 l 1,14,-1
 100 0 l 1,15,-1
 100 100 l 1,16,-1
 150 100 l 1,17,-1
 150 200 l 1,18,-1
 200 200 l 1,19,-1
 200 300 l 1,20,-1
 250 300 l 1,21,-1
 250 400 l 1,22,-1
 300 400 l 1,23,-1
 300 500 l 1,24,-1
 350 500 l 1,25,-1
 350 600 l 1,26,-1
 400 600 l 1,27,-1
 400 700 l 1,0,-1
EndSplineSet
Validated: 1
EndChar

StartChar: zero
Encoding: 48 48 19
Width: 600
GlyphClass: 2
Flags: W
LayerCount: 2
Back
Fore
SplineSet
400 600 m 1,0,-1
 250 600 l 1,1,-1
 250 100 l 1,2,-1
 400 100 l 1,3,-1
 400 600 l 1,0,-1
150 700 m 1,4,-1
 500 700 l 1,5,-1
 500 600 l 1,6,-1
 550 600 l 1,7,-1
 550 100 l 1,8,-1
 500 100 l 1,9,-1
 500 0 l 1,10,-1
 150 0 l 1,11,-1
 150 100 l 1,12,-1
 100 100 l 1,13,-1
 100 600 l 1,14,-1
 150 600 l 1,15,-1
 150 700 l 1,4,-1
EndSplineSet
Validated: 1
EndChar

StartChar: one
Encoding: 49 49 20
Width: 600
GlyphClass: 2
Flags: W
LayerCount: 2
Back
Fore
SplineSet
200 500 m 1,0,-1
 200 600 l 1,1,-1
 300 600 l 1,2,-1
 300 700 l 1,3,-1
 450 700 l 1,4,-1
 450 0 l 1,5,-1
 300 0 l 1,6,-1
 300 500 l 1,7,-1
 200 500 l 1,0,-1
EndSplineSet
Validated: 1
EndChar

StartChar: two
Encoding: 50 50 21
Width: 600
GlyphClass: 2
Flags: W
LayerCount: 2
Back
Fore
SplineSet
200 500 m 1,0,-1
 100 500 l 1,1,-1
 100 600 l 1,2,-1
 150 600 l 1,3,-1
 150 700 l 1,4,-1
 500 700 l 1,5,-1
 500 600 l 1,6,-1
 550 600 l 1,7,-1
 550 400 l 1,8,-1
 500 400 l 1,9,-1
 500 300 l 1,10,-1
 450 300 l 1,11,-1
 450 200 l 1,12,-1
 350 200 l 1,13,-1
 350 100 l 1,14,-1
 550 100 l 1,15,-1
 550 0 l 1,16,-1
 100 0 l 1,17,-1
 100 100 l 1,18,-1
 150 100 l 1,19,-1
 150 200 l 1,20,-1
 250 200 l 1,21,-1
 250 300 l 1,22,-1
 350 300 l 1,23,-1
 350 400 l 1,24,-1
 400 400 l 1,25,-1
 400 600 l 1,26,-1
 200 600 l 1,27,-1
 200 500 l 1,0,-1
EndSplineSet
Validated: 1
EndChar

StartChar: three
Encoding: 51 51 22
Width: 600
GlyphClass: 2
Flags: W
LayerCount: 2
Back
Fore
SplineSet
100 700 m 1,0,-1
 550 700 l 1,1,-1
 550 600 l 1,2,-1
 500 600 l 1,3,-1
 500 500 l 1,4,-1
 450 500 l 1,5,-1
 450 400 l 1,6,-1
 550 400 l 1,7,-1
 550 100 l 1,8,-1
 500 100 l 1,9,-1
 500 0 l 1,10,-1
 100 0 l 1,11,-1
 100 100 l 1,12,-1
 450 100 l 1,13,-1
 450 300 l 1,14,-1
 250 300 l 1,15,-1
 250 400 l 1,16,-1
 350 400 l 1,17,-1
 350 500 l 1,18,-1
 400 500 l 1,19,-1
 400 600 l 1,20,-1
 100 601 l 1,21,-1
 100 700 l 1,0,-1
EndSplineSet
Validated: 1
EndChar

StartChar: four
Encoding: 52 52 23
Width: 600
GlyphClass: 2
Flags: W
LayerCount: 2
Back
Fore
SplineSet
400 700 m 1,0,-1
 550 700 l 1,1,-1
 550 600 l 1,2,-1
 500 600 l 1,3,-1
 500 500 l 1,4,-1
 400 500 l 1,5,-1
 400 400 l 1,6,-1
 300 400 l 1,7,-1
 300 300 l 1,8,-1
 250 300 l 1,9,-1
 250 200 l 1,10,-1
 400 200 l 1,11,-1
 400 300 l 1,12,-1
 550 300 l 1,13,-1
 550 0 l 1,14,-1
 400 0 l 1,15,-1
 400 100 l 1,16,-1
 100 100 l 1,17,-1
 100 300 l 1,18,-1
 150 300 l 1,19,-1
 150 400 l 1,20,-1
 250 400 l 1,21,-1
 250 500 l 1,22,-1
 300 500 l 1,23,-1
 300 600 l 1,24,-1
 400 600 l 1,25,-1
 400 700 l 1,0,-1
EndSplineSet
Validated: 1
EndChar

StartChar: five
Encoding: 53 53 24
Width: 600
GlyphClass: 2
Flags: W
LayerCount: 2
Back
Fore
SplineSet
500 700 m 1,0,-1
 500 600 l 1,1,-1
 200 600 l 1,2,-1
 200 400 l 1,3,-1
 500 400 l 1,4,-1
 500 300 l 1,5,-1
 550 300 l 1,6,-1
 550 100 l 1,7,-1
 500 100 l 1,8,-1
 500 0 l 1,9,-1
 150 0 l 1,10,-1
 150 100 l 1,11,-1
 100 100 l 1,12,-1
 100 200 l 1,13,-1
 200 200 l 1,14,-1
 200 100 l 1,15,-1
 400 100 l 1,16,-1
 400 300 l 1,17,-1
 100 300 l 1,18,-1
 100 700 l 1,19,-1
 500 700 l 1,0,-1
EndSplineSet
Validated: 1
EndChar

StartChar: six
Encoding: 54 54 25
Width: 600
GlyphClass: 2
Flags: W
LayerCount: 2
Back
Fore
SplineSet
450 300 m 1,0,-1
 249 300 l 1,1,-1
 249 100 l 1,2,-1
 450 100 l 1,3,-1
 450 300 l 1,0,-1
400 700 m 1,4,-1
 400 600 l 1,5,-1
 350 600 l 1,6,-1
 350 500 l 1,7,-1
 300 500 l 1,8,-1
 300 400 l 1,9,-1
 500 400 l 1,10,-1
 500 300 l 1,11,-1
 550 300 l 1,12,-1
 550 100 l 1,13,-1
 500 100 l 1,14,-1
 500 0 l 1,15,-1
 150 0 l 1,16,-1
 150 100 l 1,17,-1
 100 100 l 1,18,-1
 100 400 l 1,19,-1
 150 400 l 1,20,-1
 150 500 l 1,21,-1
 200 500 l 1,22,-1
 200 600 l 1,23,-1
 250 600 l 1,24,-1
 250 700 l 1,25,-1
 400 700 l 1,4,-1
EndSplineSet
Validated: 1
EndChar

StartChar: seven
Encoding: 55 55 26
Width: 600
GlyphClass: 2
Flags: W
LayerCount: 2
Back
Fore
SplineSet
50 700 m 1,0,-1
 550 700 l 1,1,-1
 550 600 l 1,2,-1
 500 600 l 1,3,-1
 500 500 l 1,4,-1
 450 500 l 1,5,-1
 450 400 l 1,6,-1
 400 400 l 1,7,-1
 400 300 l 1,8,-1
 350 300 l 1,9,-1
 350 200 l 1,10,-1
 300 200 l 1,11,-1
 300 100 l 1,12,-1
 250 100 l 1,13,-1
 250 0 l 1,14,-1
 100 0 l 1,15,-1
 100 100 l 1,16,-1
 150 100 l 1,17,-1
 150 200 l 1,18,-1
 200 200 l 1,19,-1
 200 300 l 1,20,-1
 250 300 l 1,21,-1
 250 400 l 1,22,-1
 300 400 l 1,23,-1
 300 500 l 1,24,-1
 350 500 l 1,25,-1
 350 600 l 1,26,-1
 50 600 l 1,27,-1
 50 700 l 1,0,-1
EndSplineSet
Validated: 1
EndChar

StartChar: eight
Encoding: 56 56 27
Width: 600
GlyphClass: 2
Flags: W
LayerCount: 2
Back
Fore
SplineSet
250 100 m 1,0,-1
 400 100 l 1,1,-1
 400 300 l 1,2,-1
 250 300 l 1,3,-1
 250 100 l 1,0,-1
250 600 m 1,4,-1
 250 400 l 1,5,-1
 400 400 l 1,6,-1
 400 600 l 1,7,-1
 250 600 l 1,4,-1
150 700 m 1,8,-1
 500 700 l 1,9,-1
 500 600 l 1,10,-1
 550 600 l 1,11,-1
 550 400 l 1,12,-1
 450 400 l 1,13,-1
 450 300 l 1,14,-1
 550 300 l 1,15,-1
 550 100 l 1,16,-1
 500 100 l 1,17,-1
 500 0 l 1,18,-1
 150 0 l 1,19,-1
 150 100 l 1,20,-1
 100 100 l 1,21,-1
 100 300 l 1,22,-1
 200 300 l 1,23,-1
 200 400 l 1,24,-1
 100 400 l 1,25,-1
 100 600 l 1,26,-1
 150 600 l 1,27,-1
 150 700 l 1,8,-1
EndSplineSet
Validated: 1
EndChar

StartChar: nine
Encoding: 57 57 28
Width: 600
GlyphClass: 2
Flags: W
LayerCount: 2
Back
Fore
SplineSet
200 600 m 1,0,-1
 200 400 l 1,1,-1
 400 400 l 1,2,-1
 400 600 l 1,3,-1
 200 600 l 1,0,-1
150 600 m 1,4,-1
 150 700 l 1,5,-1
 500 700 l 1,6,-1
 500 600 l 1,7,-1
 550 600 l 1,8,-1
 550 300 l 1,9,-1
 499 300 l 1,10,-1
 500 200 l 1,11,-1
 450 200 l 1,12,-1
 450 100 l 1,13,-1
 400 100 l 1,14,-1
 400 0 l 1,15,-1
 250 0 l 1,16,-1
 250 100 l 1,17,-1
 300 100 l 1,18,-1
 300 200 l 1,19,-1
 350 200 l 1,20,-1
 350 300 l 1,21,-1
 150 300 l 1,22,-1
 150 400 l 1,23,-1
 100 400 l 1,24,-1
 100 600 l 1,25,-1
 150 600 l 1,4,-1
EndSplineSet
Validated: 1
EndChar

StartChar: colon
Encoding: 58 58 29
Width: 600
GlyphClass: 2
Flags: W
LayerCount: 2
Back
Fore
SplineSet
250 200 m 1,0,-1
 350 200 l 1,1,-1
 350 0 l 1,2,-1
 250 0 l 1,3,-1
 250 200 l 1,0,-1
250 500 m 1,4,-1
 349 500 l 1,5,-1
 350 300 l 1,6,-1
 250 300 l 1,7,-1
 250 500 l 1,4,-1
EndSplineSet
Validated: 1
EndChar

StartChar: semicolon
Encoding: 59 59 30
Width: 600
GlyphClass: 2
Flags: W
LayerCount: 2
Back
Fore
SplineSet
250 100 m 1,0,-1
 350 100 l 1,1,-1
 350 -100 l 1,2,-1
 300 -100 l 1,3,-1
 300 -200 l 1,4,-1
 200 -200 l 1,5,-1
 200 -100 l 1,6,-1
 250 -100 l 1,7,-1
 250 100 l 1,0,-1
250 500 m 1,8,-1
 350 500 l 1,9,-1
 350 300 l 1,10,-1
 250 300 l 1,11,-1
 250 500 l 1,8,-1
EndSplineSet
Validated: 1
EndChar

StartChar: less
Encoding: 60 60 31
Width: 600
GlyphClass: 2
Flags: W
LayerCount: 2
Back
Fore
SplineSet
400 700 m 1,0,-1
 550 700 l 1,1,-1
 550 600 l 1,2,-1
 450 600 l 1,3,-1
 450 500 l 1,4,-1
 350 500 l 1,5,-1
 350 400 l 1,6,-1
 250 400 l 1,7,-1
 250 300 l 1,8,-1
 350 300 l 1,9,-1
 350 200 l 1,10,-1
 450 200 l 1,11,-1
 450 100 l 1,12,-1
 550 100 l 1,13,-1
 550 0 l 1,14,-1
 400 0 l 1,15,-1
 400 100 l 1,16,-1
 300 100 l 1,17,-1
 300 200 l 1,18,-1
 200 200 l 1,19,-1
 200 300 l 1,20,-1
 100 300 l 1,21,-1
 100 400 l 1,22,-1
 200 400 l 1,23,-1
 200 500 l 1,24,-1
 300 500 l 1,25,-1
 300 600 l 1,26,-1
 400 600 l 1,27,-1
 400 700 l 1,0,-1
EndSplineSet
Validated: 1
EndChar

StartChar: equal
Encoding: 61 61 32
Width: 600
GlyphClass: 2
Flags: W
LayerCount: 2
Back
Fore
SplineSet
100 500 m 1,0,-1
 500 500 l 1,1,-1
 500 400 l 1,2,-1
 100 400 l 1,3,-1
 100 500 l 1,0,-1
100 300 m 1,4,-1
 500 300 l 1,5,-1
 500 200 l 1,6,-1
 100 200 l 1,7,-1
 100 300 l 1,4,-1
EndSplineSet
Validated: 1
EndChar

StartChar: greater
Encoding: 62 62 33
Width: 600
GlyphClass: 2
Flags: W
LayerCount: 2
Back
Fore
SplineSet
100 600 m 1,0,-1
 100 700 l 1,1,-1
 250 700 l 1,2,-1
 250 600 l 1,3,-1
 350 600 l 1,4,-1
 350 500 l 1,5,-1
 450 500 l 1,6,-1
 450 400 l 1,7,-1
 550 400 l 1,8,-1
 550 300 l 1,9,-1
 450 300 l 1,10,-1
 450 200 l 1,11,-1
 350 200 l 1,12,-1
 350 100 l 1,13,-1
 250 100 l 1,14,-1
 250 0 l 1,15,-1
 100 0 l 1,16,-1
 100 100 l 1,17,-1
 200 100 l 1,18,-1
 200 200 l 1,19,-1
 300 200 l 1,20,-1
 300 300 l 1,21,-1
 400 300 l 1,22,-1
 400 400 l 1,23,-1
 300 400 l 1,24,-1
 300 500 l 1,25,-1
 200 500 l 1,26,-1
 200 600 l 1,27,-1
 100 600 l 1,0,-1
EndSplineSet
Validated: 1
EndChar

StartChar: question
Encoding: 63 63 34
Width: 600
GlyphClass: 2
Flags: W
LayerCount: 2
Back
Fore
SplineSet
300 300 m 1,0,-1
 400 300 l 1,1,-1
 400 200 l 1,2,-1
 300 200 l 1,3,-1
 300 300 l 1,0,-1
400 0 m 1,4,-1
 300 0 l 1,5,-1
 300 100 l 1,6,-1
 400 100 l 1,7,-1
 400 0 l 1,4,-1
100 600 m 1,8,-1
 150 600 l 1,9,-1
 150 700 l 1,10,-1
 500 700 l 1,11,-1
 500 600 l 1,12,-1
 550 600 l 1,13,-1
 550 400 l 1,14,-1
 499 400 l 1,15,-1
 500 300 l 1,16,-1
 400 300 l 1,17,-1
 400 400 l 1,18,-1
 450 400 l 1,19,-1
 450 600 l 1,20,-1
 200 600 l 1,21,-1
 200 400 l 1,22,-1
 100 400 l 1,23,-1
 100 600 l 1,8,-1
EndSplineSet
Validated: 5
EndChar

StartChar: at
Encoding: 64 64 35
Width: 600
GlyphClass: 2
Flags: W
LayerCount: 2
Back
Fore
SplineSet
350 400 m 1,0,-1
 350 200 l 1,1,-1
 450 200 l 1,2,-1
 450 400 l 1,3,-1
 350 400 l 1,0,-1
150 600 m 1,4,-1
 150 700 l 1,5,-1
 500 700 l 1,6,-1
 500 600 l 1,7,-1
 550 600 l 1,8,-1
 550 100 l 1,9,-1
 300 100 l 1,10,-1
 300 200 l 1,11,-1
 250 200 l 1,12,-1
 250 400 l 1,13,-1
 300 400 l 1,14,-1
 300 500 l 1,15,-1
 450 500 l 1,16,-1
 450 600 l 1,17,-1
 200 600 l 1,18,-1
 200 500 l 1,19,-1
 150 500 l 1,20,-1
 150 100 l 1,21,-1
 200 100 l 1,22,-1
 200 0 l 1,23,-1
 500 0 l 1,24,-1
 500 -100 l 1,25,-1
 150 -100 l 1,26,-1
 150 0 l 1,27,-1
 100 0 l 1,28,-1
 100 100 l 1,29,-1
 50 100 l 1,30,-1
 50 500 l 1,31,-1
 100 500 l 1,32,-1
 100 600 l 1,33,-1
 150 600 l 1,4,-1
EndSplineSet
Validated: 1
EndChar

StartChar: A
Encoding: 65 65 36
Width: 600
GlyphClass: 2
Flags: W
LayerCount: 2
Back
Fore
SplineSet
150 400 m 1,0,-1
 150 300 l 1,1,-1
 450 300 l 1,2,-1
 450 400 l 1,3,-1
 400 400 l 1,4,-1
 400 500 l 1,5,-1
 350 500 l 1,6,-1
 350 600 l 1,7,-1
 250 600 l 1,8,-1
 250 500 l 1,9,-1
 200 500 l 1,10,-1
 200 400 l 1,11,-1
 150 400 l 1,0,-1
150 0 m 1,12,-1
 50 0 l 1,13,-1
 50 400 l 1,14,-1
 100 400 l 1,15,-1
 100 500 l 1,16,-1
 150 500 l 1,17,-1
 150 600 l 1,18,-1
 200 600 l 1,19,-1
 200 700 l 1,20,-1
 399 700 l 1,21,-1
 400 600 l 1,22,-1
 450 600 l 1,23,-1
 450 500 l 1,24,-1
 500 500 l 1,25,-1
 500 400 l 1,26,-1
 550 400 l 1,27,-1
 550 0 l 1,28,-1
 450 0 l 1,29,-1
 450 200 l 1,30,-1
 150 200 l 1,31,-1
 150 0 l 1,12,-1
EndSplineSet
Validated: 1
EndChar

StartChar: B
Encoding: 66 66 37
Width: 600
GlyphClass: 2
Flags: W
LayerCount: 2
Back
Fore
SplineSet
200 600 m 1,0,-1
 200 400 l 1,1,-1
 450 400 l 1,2,-1
 450 600 l 1,3,-1
 200 600 l 1,0,-1
200 300 m 1,4,-1
 200 100 l 1,5,-1
 450 100 l 1,6,-1
 450 300 l 1,7,-1
 200 300 l 1,4,-1
100 0 m 1,8,-1
 100 700 l 1,9,-1
 500 700 l 1,10,-1
 500 600 l 1,11,-1
 550 600 l 1,12,-1
 550 400 l 1,13,-1
 500 400 l 1,14,-1
 500 300 l 1,15,-1
 550 300 l 1,16,-1
 550 100 l 1,17,-1
 500 100 l 1,18,-1
 500 0 l 1,19,-1
 100 0 l 1,8,-1
EndSplineSet
Validated: 1
EndChar

StartChar: C
Encoding: 67 67 38
Width: 600
GlyphClass: 2
Flags: W
LayerCount: 2
Back
Fore
SplineSet
200 700 m 1,0,-1
 500 700 l 1,1,-1
 500 600 l 1,2,-1
 550 600 l 1,3,-1
 550 500 l 1,4,-1
 450 500 l 1,5,-1
 450 600 l 1,6,-1
 250 600 l 1,7,-1
 250 500 l 1,8,-1
 200 500 l 1,9,-1
 200 200 l 1,10,-1
 250 200 l 1,11,-1
 250 100 l 1,12,-1
 450 100 l 1,13,-1
 450 200 l 1,14,-1
 550 200 l 1,15,-1
 550 100 l 1,16,-1
 500 100 l 1,17,-1
 500 0 l 1,18,-1
 200 0 l 1,19,-1
 200 100 l 1,20,-1
 150 100 l 1,21,-1
 150 200 l 1,22,-1
 100 200 l 1,23,-1
 100 500 l 1,24,-1
 150 500 l 1,25,-1
 150 600 l 1,26,-1
 200 600 l 1,27,-1
 200 700 l 1,0,-1
EndSplineSet
Validated: 1
EndChar

StartChar: D
Encoding: 68 68 39
Width: 600
GlyphClass: 2
Flags: W
LayerCount: 2
Back
Fore
SplineSet
200 600 m 1,0,-1
 200 100 l 1,1,-1
 400 100 l 1,2,-1
 400 200 l 1,3,-1
 450 200 l 1,4,-1
 450 500 l 1,5,-1
 400 500 l 1,6,-1
 400 600 l 1,7,-1
 200 600 l 1,0,-1
100 700 m 1,8,-1
 450 700 l 1,9,-1
 450 600 l 1,10,-1
 500 600 l 1,11,-1
 500 500 l 1,12,-1
 550 500 l 1,13,-1
 550 200 l 1,14,-1
 500 200 l 1,15,-1
 500 100 l 1,16,-1
 450 100 l 1,17,-1
 450 0 l 1,18,-1
 100 0 l 1,19,-1
 100 700 l 1,8,-1
EndSplineSet
Validated: 1
EndChar

StartChar: E
Encoding: 69 69 40
Width: 600
GlyphClass: 2
Flags: W
LayerCount: 2
Back
Fore
SplineSet
550 600 m 1,0,-1
 200 600 l 1,1,-1
 200 400 l 1,2,-1
 450 400 l 1,3,-1
 450 300 l 1,4,-1
 200 300 l 1,5,-1
 200 100 l 1,6,-1
 550 100 l 1,7,-1
 550 0 l 1,8,-1
 100 0 l 1,9,-1
 100 700 l 1,10,-1
 550 700 l 1,11,-1
 550 600 l 1,0,-1
EndSplineSet
Validated: 1
EndChar

StartChar: F
Encoding: 70 70 41
Width: 600
GlyphClass: 2
Flags: W
LayerCount: 2
Back
Fore
SplineSet
200 0 m 1,0,-1
 100 0 l 1,1,-1
 100 700 l 1,2,-1
 550 700 l 1,3,-1
 550 600 l 1,4,-1
 200 600 l 1,5,-1
 200 400 l 1,6,-1
 450 400 l 1,7,-1
 450 300 l 1,8,-1
 200 300 l 1,9,-1
 200 0 l 1,0,-1
EndSplineSet
Validated: 1
EndChar

StartChar: G
Encoding: 71 71 42
Width: 600
GlyphClass: 2
Flags: W
LayerCount: 2
Back
Fore
SplineSet
450 600 m 1,0,-1
 200 600 l 1,1,-1
 200 100 l 1,2,-1
 450 100 l 1,3,-1
 450 200 l 1,4,-1
 300 200 l 1,5,-1
 300 300 l 1,6,-1
 550 300 l 1,7,-1
 550 100 l 1,8,-1
 500 100 l 1,9,-1
 500 0 l 1,10,-1
 150 0 l 1,11,-1
 150 100 l 1,12,-1
 100 100 l 1,13,-1
 100 600 l 1,14,-1
 150 600 l 1,15,-1
 150 700 l 1,16,-1
 500 700 l 1,17,-1
 500 600 l 1,18,-1
 550 600 l 1,19,-1
 550 500 l 1,20,-1
 450 500 l 1,21,-1
 450 600 l 1,0,-1
EndSplineSet
Validated: 1
EndChar

StartChar: H
Encoding: 72 72 43
Width: 600
GlyphClass: 2
Flags: W
LayerCount: 2
Back
Fore
SplineSet
100 700 m 1,0,-1
 200 700 l 1,1,-1
 200 400 l 1,2,-1
 450 400 l 1,3,-1
 450 700 l 1,4,-1
 550 700 l 1,5,-1
 550 0 l 1,6,-1
 450 0 l 1,7,-1
 450 300 l 1,8,-1
 200 300 l 1,9,-1
 200 0 l 1,10,-1
 100 0 l 1,11,-1
 100 700 l 1,0,-1
EndSplineSet
Validated: 1
EndChar

StartChar: I
Encoding: 73 73 44
Width: 600
GlyphClass: 2
Flags: W
LayerCount: 2
Back
Fore
SplineSet
100 700 m 1,0,-1
 500 700 l 1,1,-1
 500 600 l 1,2,-1
 350 600 l 1,3,-1
 350 100 l 1,4,-1
 500 100 l 1,5,-1
 500 0 l 1,6,-1
 100 0 l 1,7,-1
 100 100 l 1,8,-1
 250 100 l 1,9,-1
 250 600 l 1,10,-1
 100 600 l 1,11,-1
 100 700 l 1,0,-1
EndSplineSet
Validated: 1
EndChar

StartChar: J
Encoding: 74 74 45
Width: 600
GlyphClass: 2
Flags: W
LayerCount: 2
Back
Fore
SplineSet
450 700 m 1,0,-1
 550 700 l 1,1,-1
 550 100 l 1,2,-1
 500 100 l 1,3,-1
 500 0 l 1,4,-1
 150 0 l 1,5,-1
 150 100 l 1,6,-1
 100 100 l 1,7,-1
 100 200 l 1,8,-1
 200 200 l 1,9,-1
 200 100 l 1,10,-1
 450 100 l 1,11,-1
 450 700 l 1,0,-1
EndSplineSet
Validated: 1
EndChar

StartChar: K
Encoding: 75 75 46
Width: 600
GlyphClass: 2
Flags: W
LayerCount: 2
Back
Fore
SplineSet
100 700 m 1,0,-1
 200 700 l 1,1,-1
 200 400 l 1,2,-1
 250 400 l 1,3,-1
 250 500 l 1,4,-1
 350 500 l 1,5,-1
 350 600 l 1,6,-1
 400 600 l 1,7,-1
 400 700 l 1,8,-1
 550 700 l 1,9,-1
 550 600 l 1,10,-1
 450 600 l 1,11,-1
 450 500 l 1,12,-1
 400 500 l 1,13,-1
 400 400 l 1,14,-1
 300 400 l 1,15,-1
 300 300 l 1,16,-1
 400 300 l 1,17,-1
 400 200 l 1,18,-1
 450 200 l 1,19,-1
 450 100 l 1,20,-1
 550 100 l 1,21,-1
 550 0 l 1,22,-1
 400 0 l 1,23,-1
 400 100 l 1,24,-1
 350 100 l 1,25,-1
 350 200 l 1,26,-1
 250 200 l 1,27,-1
 250 300 l 1,28,-1
 200 300 l 1,29,-1
 200 0 l 1,30,-1
 100 0 l 1,31,-1
 100 700 l 1,0,-1
EndSplineSet
Validated: 1
EndChar

StartChar: L
Encoding: 76 76 47
Width: 600
GlyphClass: 2
Flags: W
LayerCount: 2
Back
Fore
SplineSet
100 700 m 1,0,-1
 200 700 l 1,1,-1
 200 100 l 1,2,-1
 550 100 l 1,3,-1
 550 0 l 1,4,-1
 100 0 l 1,5,-1
 100 700 l 1,0,-1
EndSplineSet
Validated: 1
EndChar

StartChar: M
Encoding: 77 77 48
Width: 600
GlyphClass: 2
Flags: W
LayerCount: 2
Back
Fore
SplineSet
150 0 m 1,0,-1
 50 0 l 1,1,-1
 50 700 l 1,2,-1
 200 700 l 1,3,-1
 200 600 l 1,4,-1
 250 600 l 1,5,-1
 250 500 l 1,6,-1
 350 500 l 1,7,-1
 350 600 l 1,8,-1
 400 600 l 1,9,-1
 400 700 l 1,10,-1
 550 700 l 1,11,-1
 550 0 l 1,12,-1
 450 0 l 1,13,-1
 450 500 l 1,14,-1
 400 500 l 1,15,-1
 400 400 l 1,16,-1
 350 400 l 1,17,-1
 350 300 l 1,18,-1
 250 300 l 1,19,-1
 250 400 l 1,20,-1
 200 400 l 1,21,-1
 200 500 l 1,22,-1
 150 500 l 1,23,-1
 150 0 l 1,0,-1
EndSplineSet
Validated: 1
EndChar

StartChar: N
Encoding: 78 78 49
Width: 600
GlyphClass: 2
Flags: W
LayerCount: 2
Back
Fore
SplineSet
50 700 m 1,0,-1
 200 700 l 1,1,-1
 200 600 l 1,2,-1
 250 600 l 1,3,-1
 250 500 l 1,4,-1
 300 500 l 1,5,-1
 300 400 l 1,6,-1
 350 400 l 1,7,-1
 350 300 l 1,8,-1
 400 300 l 1,9,-1
 400 200 l 1,10,-1
 450 200 l 1,11,-1
 450 700 l 1,12,-1
 550 700 l 1,13,-1
 550 0 l 1,14,-1
 400 0 l 1,15,-1
 400 100 l 1,16,-1
 350 100 l 1,17,-1
 350 200 l 1,18,-1
 300 200 l 1,19,-1
 300 300 l 1,20,-1
 250 300 l 1,21,-1
 250 400 l 1,22,-1
 200 400 l 1,23,-1
 200 500 l 1,24,-1
 150 500 l 1,25,-1
 150 0 l 1,26,-1
 50 0 l 1,27,-1
 50 700 l 1,0,-1
EndSplineSet
Validated: 1
EndChar

StartChar: O
Encoding: 79 79 50
Width: 600
GlyphClass: 2
Flags: W
LayerCount: 2
Back
Fore
SplineSet
400 100 m 1,0,-1
 400 200 l 1,1,-1
 450 200 l 1,2,-1
 450 500 l 1,3,-1
 400 500 l 1,4,-1
 400 600 l 1,5,-1
 200 600 l 1,6,-1
 200 500 l 1,7,-1
 150 500 l 1,8,-1
 150 200 l 1,9,-1
 200 200 l 1,10,-1
 200 100 l 1,11,-1
 400 100 l 1,0,-1
450 0 m 1,12,-1
 150 0 l 1,13,-1
 150 100 l 1,14,-1
 100 100 l 1,15,-1
 100 200 l 1,16,-1
 50 200 l 1,17,-1
 50 500 l 1,18,-1
 100 500 l 1,19,-1
 100 600 l 1,20,-1
 150 600 l 1,21,-1
 150 700 l 1,22,-1
 450 700 l 1,23,-1
 450 600 l 1,24,-1
 500 600 l 1,25,-1
 500 500 l 1,26,-1
 550 500 l 1,27,-1
 550 200 l 1,28,-1
 500 200 l 1,29,-1
 500 100 l 1,30,-1
 450 100 l 1,31,-1
 450 0 l 1,12,-1
EndSplineSet
Validated: 1
EndChar

StartChar: P
Encoding: 80 80 51
Width: 600
GlyphClass: 2
Flags: W
LayerCount: 2
Back
Fore
SplineSet
200 600 m 1,0,-1
 200 400 l 1,1,-1
 450 400 l 1,2,-1
 450 600 l 1,3,-1
 200 600 l 1,0,-1
100 700 m 1,4,-1
 500 700 l 1,5,-1
 500 650 l 1,6,-1
 550 650 l 1,7,-1
 550 400 l 1,8,-1
 500 400 l 1,9,-1
 500 300 l 1,10,-1
 200 300 l 1,11,-1
 200 0 l 1,12,-1
 100 0 l 1,13,-1
 100 700 l 1,4,-1
EndSplineSet
Validated: 1
EndChar

StartChar: Q
Encoding: 81 81 52
Width: 600
GlyphClass: 2
Flags: W
LayerCount: 2
Back
Fore
SplineSet
150 600 m 1,0,-1
 150 100 l 1,1,-1
 300 100 l 1,2,-1
 300 200 l 1,3,-1
 400 200 l 1,4,-1
 400 100 l 1,5,-1
 450 100 l 1,6,-1
 450 600 l 1,7,-1
 150 600 l 1,0,-1
100 700 m 1,8,-1
 500 700 l 1,9,-1
 500 600 l 1,10,-1
 550 600 l 1,11,-1
 550 100 l 1,12,-1
 500 100 l 1,13,-1
 500 0 l 1,14,-1
 450 0 l 1,15,-1
 450 -100 l 1,16,-1
 550 -100 l 1,17,-1
 550 -200 l 1,18,-1
 400 -200 l 1,19,-1
 400 -100 l 1,20,-1
 350 -100 l 1,21,-1
 350 0 l 1,22,-1
 100 0 l 1,23,-1
 100 100 l 1,24,-1
 50 100 l 1,25,-1
 50 600 l 1,26,-1
 100 600 l 1,27,-1
 100 700 l 1,8,-1
EndSplineSet
Validated: 1
EndChar

StartChar: R
Encoding: 82 82 53
Width: 600
GlyphClass: 2
Flags: W
LayerCount: 2
Back
Fore
SplineSet
200 600 m 1,0,-1
 200 400 l 1,1,-1
 450 400 l 1,2,-1
 450 600 l 1,3,-1
 200 600 l 1,0,-1
100 700 m 1,4,-1
 500 700 l 1,5,-1
 500 650 l 1,6,-1
 550 650 l 1,7,-1
 550 400 l 1,8,-1
 500 400 l 1,9,-1
 500 300 l 1,10,-1
 400 300 l 1,11,-1
 400 200 l 1,12,-1
 450 200 l 1,13,-1
 450 100 l 1,14,-1
 550 100 l 1,15,-1
 550 0 l 1,16,-1
 400 0 l 1,17,-1
 400 100 l 1,18,-1
 350 100 l 1,19,-1
 350 200 l 1,20,-1
 300 200 l 1,21,-1
 300 300 l 1,22,-1
 200 300 l 1,23,-1
 200 0 l 1,24,-1
 100 0 l 1,25,-1
 100 700 l 1,4,-1
EndSplineSet
Validated: 1
EndChar

StartChar: S
Encoding: 83 83 54
Width: 600
GlyphClass: 2
Flags: W
LayerCount: 2
Back
Fore
SplineSet
150 600 m 1,0,-1
 150 700 l 1,1,-1
 500 700 l 1,2,-1
 500 600 l 1,3,-1
 200 600 l 1,4,-1
 200 400 l 1,5,-1
 500 400 l 1,6,-1
 500 300 l 1,7,-1
 550 300 l 1,8,-1
 550 100 l 1,9,-1
 500 100 l 1,10,-1
 500 0 l 1,11,-1
 150 0 l 1,12,-1
 150 100 l 1,13,-1
 450 100 l 1,14,-1
 450 300 l 1,15,-1
 150 300 l 1,16,-1
 150 400 l 1,17,-1
 100 400 l 1,18,-1
 100 600 l 1,19,-1
 150 600 l 1,0,-1
EndSplineSet
Validated: 1
EndChar

StartChar: T
Encoding: 84 84 55
Width: 600
GlyphClass: 2
Flags: W
LayerCount: 2
Back
Fore
SplineSet
50 700 m 1,0,-1
 550 700 l 1,1,-1
 550 600 l 1,2,-1
 350 600 l 1,3,-1
 350 0 l 1,4,-1
 250 0 l 1,5,-1
 250 600 l 1,6,-1
 50 600 l 1,7,-1
 50 700 l 1,0,-1
EndSplineSet
Validated: 1
EndChar

StartChar: U
Encoding: 85 85 56
Width: 600
GlyphClass: 2
Flags: W
LayerCount: 2
Back
Fore
SplineSet
100 700 m 1,0,-1
 200 700 l 1,1,-1
 200 100 l 1,2,-1
 450 100 l 1,3,-1
 450 700 l 1,4,-1
 550 700 l 1,5,-1
 550 100 l 1,6,-1
 500 100 l 1,7,-1
 500 0 l 1,8,-1
 150 0 l 1,9,-1
 150 100 l 1,10,-1
 100 100 l 1,11,-1
 100 700 l 1,0,-1
EndSplineSet
Validated: 1
EndChar

StartChar: V
Encoding: 86 86 57
Width: 600
GlyphClass: 2
Flags: W
LayerCount: 2
Back
Fore
SplineSet
100 700 m 1,0,-1
 200 700 l 1,1,-1
 200 500 l 1,2,-1
 250 500 l 1,3,-1
 250 300 l 1,4,-1
 300 300 l 1,5,-1
 300 200 l 1,6,-1
 400 200 l 1,7,-1
 400 300 l 1,8,-1
 450 300 l 1,9,-1
 450 500 l 1,10,-1
 500 500 l 1,11,-1
 500 700 l 1,12,-1
 600 700 l 1,13,-1
 600 500 l 1,14,-1
 550 500 l 1,15,-1
 550 300 l 1,16,-1
 500 300 l 1,17,-1
 500 200 l 1,18,-1
 450 200 l 1,19,-1
 450 100 l 1,20,-1
 400 100 l 1,21,-1
 400 0 l 1,22,-1
 300 0 l 1,23,-1
 300 100 l 1,24,-1
 250 100 l 1,25,-1
 250 200 l 1,26,-1
 200 200 l 1,27,-1
 200 300 l 1,28,-1
 150 300 l 1,29,-1
 150 500 l 1,30,-1
 100 500 l 1,31,-1
 100 700 l 1,0,-1
EndSplineSet
Validated: 1
EndChar

StartChar: W
Encoding: 87 87 58
Width: 600
GlyphClass: 2
Flags: W
LayerCount: 2
Back
Fore
SplineSet
50 700 m 1,0,-1
 150 700 l 1,1,-1
 150 200 l 1,2,-1
 200 200 l 1,3,-1
 200 300 l 1,4,-1
 250 300 l 1,5,-1
 250 400 l 1,6,-1
 350 400 l 1,7,-1
 350 300 l 1,8,-1
 400 300 l 1,9,-1
 400 200 l 1,10,-1
 450 200 l 1,11,-1
 450 700 l 1,12,-1
 550 700 l 1,13,-1
 550 200 l 1,14,-1
 500 200 l 1,15,-1
 500 0 l 1,16,-1
 400 0 l 1,17,-1
 400 100 l 1,18,-1
 350 100 l 1,19,-1
 350 200 l 1,20,-1
 250 200 l 1,21,-1
 250 100 l 1,22,-1
 200 100 l 1,23,-1
 200 0 l 1,24,-1
 100 0 l 1,25,-1
 100 200 l 1,26,-1
 50 200 l 1,27,-1
 50 700 l 1,0,-1
EndSplineSet
Validated: 1
EndChar

StartChar: X
Encoding: 88 88 59
Width: 600
GlyphClass: 2
Flags: W
LayerCount: 2
Back
Fore
SplineSet
100 700 m 1,0,-1
 200 700 l 1,1,-1
 200 600 l 1,2,-1
 250 600 l 1,3,-1
 250 500 l 1,4,-1
 350 500 l 1,5,-1
 350 600 l 1,6,-1
 400 600 l 1,7,-1
 400 700 l 1,8,-1
 500 700 l 1,9,-1
 500 600 l 1,10,-1
 450 600 l 1,11,-1
 450 500 l 1,12,-1
 400 500 l 1,13,-1
 400 400 l 1,14,-1
 350 400 l 1,15,-1
 350 300 l 1,16,-1
 400 300 l 1,17,-1
 400 200 l 1,18,-1
 450 200 l 1,19,-1
 450 100 l 1,20,-1
 500 100 l 1,21,-1
 500 0 l 1,22,-1
 400 0 l 1,23,-1
 400 100 l 1,24,-1
 350 100 l 1,25,-1
 350 200 l 1,26,-1
 250 200 l 1,27,-1
 250 100 l 1,28,-1
 200 100 l 1,29,-1
 200 0 l 1,30,-1
 100 0 l 1,31,-1
 100 100 l 1,32,-1
 150 100 l 1,33,-1
 150 200 l 1,34,-1
 200 200 l 1,35,-1
 200 300 l 1,36,-1
 250 300 l 1,37,-1
 250 400 l 1,38,-1
 200 400 l 1,39,-1
 200 500 l 1,40,-1
 150 500 l 1,41,-1
 150 600 l 1,42,-1
 100 600 l 1,43,-1
 100 700 l 1,0,-1
EndSplineSet
Validated: 1
EndChar

StartChar: Y
Encoding: 89 89 60
Width: 600
GlyphClass: 2
Flags: W
LayerCount: 2
Back
Fore
SplineSet
50 700 m 1,0,-1
 150 700 l 1,1,-1
 150 600 l 1,2,-1
 200 600 l 1,3,-1
 200 500 l 1,4,-1
 250 500 l 1,5,-1
 250 400 l 1,6,-1
 350 400 l 1,7,-1
 350 500 l 1,8,-1
 400 500 l 1,9,-1
 400 600 l 1,10,-1
 450 600 l 1,11,-1
 450 700 l 1,12,-1
 550 700 l 1,13,-1
 550 600 l 1,14,-1
 500 600 l 1,15,-1
 500 500 l 1,16,-1
 450 500 l 1,17,-1
 450 400 l 1,18,-1
 400 400 l 1,19,-1
 400 300 l 1,20,-1
 350 300 l 1,21,-1
 350 0 l 1,22,-1
 250 0 l 1,23,-1
 250 300 l 1,24,-1
 200 300 l 1,25,-1
 200 400 l 1,26,-1
 150 400 l 1,27,-1
 150 500 l 1,28,-1
 100 500 l 1,29,-1
 100 600 l 1,30,-1
 50 600 l 1,31,-1
 50 700 l 1,0,-1
EndSplineSet
Validated: 1
EndChar

StartChar: Z
Encoding: 90 90 61
Width: 600
GlyphClass: 2
Flags: W
LayerCount: 2
Back
Fore
SplineSet
100 700 m 1,0,-1
 500 700 l 1,1,-1
 500 600 l 1,2,-1
 450 600 l 1,3,-1
 450 500 l 1,4,-1
 400 500 l 1,5,-1
 400 400 l 1,6,-1
 350 400 l 1,7,-1
 350 300 l 1,8,-1
 300 300 l 1,9,-1
 300 200 l 1,10,-1
 250 200 l 1,11,-1
 250 100 l 1,12,-1
 500 100 l 1,13,-1
 500 0 l 1,14,-1
 100 0 l 1,15,-1
 100 100 l 1,16,-1
 150 100 l 1,17,-1
 150 200 l 1,18,-1
 200 200 l 1,19,-1
 200 300 l 1,20,-1
 250 300 l 1,21,-1
 250 400 l 1,22,-1
 300 400 l 1,23,-1
 300 500 l 1,24,-1
 350 500 l 1,25,-1
 350 600 l 1,26,-1
 100 600 l 1,27,-1
 100 700 l 1,0,-1
EndSplineSet
Validated: 1
EndChar

StartChar: bracketleft
Encoding: 91 91 62
Width: 600
GlyphClass: 2
Flags: W
LayerCount: 2
Back
Fore
SplineSet
400 600 m 1,0,-1
 300 600 l 1,1,-1
 300 100 l 1,2,-1
 400 100 l 1,3,-1
 400 0 l 1,4,-1
 200 0 l 1,5,-1
 200 700 l 1,6,-1
 400 700 l 1,7,-1
 400 600 l 1,0,-1
EndSplineSet
Validated: 1
EndChar

StartChar: backslash
Encoding: 92 92 63
Width: 600
GlyphClass: 2
Flags: W
LayerCount: 2
Back
Fore
SplineSet
100 600 m 1,0,-1
 100 700 l 1,1,-1
 200 700 l 1,2,-1
 200 600 l 1,3,-1
 250 600 l 1,4,-1
 250 500 l 1,5,-1
 300 500 l 1,6,-1
 300 400 l 1,7,-1
 350 400 l 1,8,-1
 350 300 l 1,9,-1
 400 300 l 1,10,-1
 400 200 l 1,11,-1
 450 200 l 1,12,-1
 450 100 l 1,13,-1
 500 100 l 1,14,-1
 500 0 l 1,15,-1
 400 0 l 1,16,-1
 400 100 l 1,17,-1
 350 100 l 1,18,-1
 350 200 l 1,19,-1
 300 200 l 1,20,-1
 300 300 l 1,21,-1
 250 300 l 1,22,-1
 250 400 l 1,23,-1
 200 400 l 1,24,-1
 200 500 l 1,25,-1
 150 500 l 1,26,-1
 150 600 l 1,27,-1
 100 600 l 1,0,-1
EndSplineSet
Validated: 1
EndChar

StartChar: bracketright
Encoding: 93 93 64
Width: 600
GlyphClass: 2
Flags: W
LayerCount: 2
Back
Fore
SplineSet
200 700 m 1,0,-1
 399 700 l 1,1,-1
 400 0 l 1,2,-1
 200 0 l 1,3,-1
 200 100 l 1,4,-1
 300 100 l 1,5,-1
 300 600 l 1,6,-1
 200 600 l 1,7,-1
 200 700 l 1,0,-1
EndSplineSet
Validated: 1
EndChar

StartChar: asciicircum
Encoding: 94 94 65
Width: 600
GlyphClass: 2
Flags: W
LayerCount: 2
Back
Fore
SplineSet
150 400 m 1,0,-1
 150 500 l 1,1,-1
 200 500 l 1,2,-1
 200 600 l 1,3,-1
 250 600 l 1,4,-1
 250 700 l 1,5,-1
 400 700 l 1,6,-1
 400 600 l 1,7,-1
 450 600 l 1,8,-1
 450 500 l 1,9,-1
 500 500 l 1,10,-1
 500 400 l 1,11,-1
 400 400 l 1,12,-1
 400 500 l 1,13,-1
 350 500 l 1,14,-1
 350 600 l 1,15,-1
 300 600 l 1,16,-1
 300 500 l 1,17,-1
 250 500 l 1,18,-1
 250 400 l 1,19,-1
 150 400 l 1,0,-1
EndSplineSet
Validated: 1
EndChar

StartChar: underscore
Encoding: 95 95 66
Width: 600
GlyphClass: 2
Flags: W
LayerCount: 2
Back
Fore
SplineSet
50 -100 m 1,0,-1
 50 0 l 1,1,-1
 550 0 l 1,2,-1
 550 -100 l 1,3,-1
 50 -100 l 1,0,-1
EndSplineSet
Validated: 1
EndChar

StartChar: grave
Encoding: 96 96 67
Width: 600
GlyphClass: 2
Flags: W
LayerCount: 2
Back
Fore
SplineSet
150 700 m 1,0,-1
 250 700 l 1,1,-1
 250 600 l 1,2,-1
 300 600 l 1,3,-1
 300 500 l 1,4,-1
 350 500 l 1,5,-1
 350 400 l 1,6,-1
 250 400 l 1,7,-1
 250 500 l 1,8,-1
 200 500 l 1,9,-1
 200 600 l 1,10,-1
 150 600 l 1,11,-1
 150 700 l 1,0,-1
EndSplineSet
Validated: 1
EndChar

StartChar: a
Encoding: 97 97 68
Width: 600
GlyphClass: 2
Flags: W
LayerCount: 2
Back
Fore
SplineSet
150 200 m 1,0,-1
 150 100 l 1,1,-1
 400 100 l 1,2,-1
 400 200 l 1,3,-1
 150 200 l 1,0,-1
100 500 m 1,4,-1
 450 500 l 1,5,-1
 450 400 l 1,6,-1
 500 400 l 1,7,-1
 500 100 l 1,8,-1
 549 100 l 1,9,-1
 550 0 l 1,10,-1
 100 0 l 1,11,-1
 100 100 l 1,12,-1
 50 100 l 1,13,-1
 50 200 l 1,14,-1
 100 200 l 1,15,-1
 100 300 l 1,16,-1
 400 300 l 1,17,-1
 400 400 l 1,18,-1
 100 400 l 1,19,-1
 100 500 l 1,4,-1
EndSplineSet
Validated: 1
EndChar

StartChar: b
Encoding: 98 98 69
Width: 600
GlyphClass: 2
Flags: W
LayerCount: 2
Back
Fore
SplineSet
450 400 m 1,0,-1
 250 400 l 1,1,-1
 250 300 l 1,2,-1
 200 300 l 1,3,-1
 200 100 l 1,4,-1
 450 100 l 1,5,-1
 450 400 l 1,0,-1
100 700 m 1,6,-1
 200 700 l 1,7,-1
 200 400 l 1,8,-1
 250 400 l 1,9,-1
 250 500 l 1,10,-1
 500 500 l 1,11,-1
 500 400 l 1,12,-1
 550 400 l 1,13,-1
 550 100 l 1,14,-1
 500 100 l 1,15,-1
 500 0 l 1,16,-1
 100 0 l 1,17,-1
 100 700 l 1,6,-1
EndSplineSet
Validated: 5
EndChar

StartChar: c
Encoding: 99 99 70
Width: 600
GlyphClass: 2
Flags: W
LayerCount: 2
Back
Fore
SplineSet
200 500 m 1,0,-1
 550 500 l 1,1,-1
 550 400 l 1,2,-1
 250 400 l 1,3,-1
 250 300 l 1,4,-1
 200 300 l 1,5,-1
 200 200 l 1,6,-1
 250 200 l 1,7,-1
 250 100 l 1,8,-1
 550 100 l 1,9,-1
 550 0 l 1,10,-1
 200 0 l 1,11,-1
 200 100 l 1,12,-1
 150 100 l 1,13,-1
 150 200 l 1,14,-1
 100 200 l 1,15,-1
 100 300 l 1,16,-1
 150 300 l 1,17,-1
 150 400 l 1,18,-1
 200 400 l 1,19,-1
 200 500 l 1,0,-1
EndSplineSet
Validated: 1
EndChar

StartChar: d
Encoding: 100 100 71
Width: 600
GlyphClass: 2
Flags: W
LayerCount: 2
Back
Fore
SplineSet
200 100 m 1,0,-1
 450 100 l 1,1,-1
 450 300 l 1,2,-1
 400 300 l 1,3,-1
 400 400 l 1,4,-1
 200 400 l 1,5,-1
 200 100 l 1,0,-1
450 700 m 1,6,-1
 550 700 l 1,7,-1
 550 0 l 1,8,-1
 150 0 l 1,9,-1
 150 100 l 1,10,-1
 100 100 l 1,11,-1
 100 400 l 1,12,-1
 150 400 l 1,13,-1
 150 500 l 1,14,-1
 400 500 l 1,15,-1
 400 400 l 1,16,-1
 450 400 l 1,17,-1
 450 700 l 1,6,-1
EndSplineSet
Validated: 5
EndChar

StartChar: e
Encoding: 101 101 72
Width: 600
GlyphClass: 2
Flags: W
LayerCount: 2
Back
Fore
SplineSet
200 400 m 1,0,-1
 200 300 l 1,1,-1
 450 300 l 1,2,-1
 450 400 l 1,3,-1
 200 400 l 1,0,-1
150 400 m 1,4,-1
 150 500 l 1,5,-1
 499 500 l 1,6,-1
 500 400 l 1,7,-1
 550 400 l 1,8,-1
 550 200 l 1,9,-1
 200 200 l 1,10,-1
 200 100 l 1,11,-1
 500 100 l 1,12,-1
 500 0 l 1,13,-1
 150 0 l 1,14,-1
 150 100 l 1,15,-1
 100 100 l 1,16,-1
 100 400 l 1,17,-1
 150 400 l 1,4,-1
EndSplineSet
Validated: 1
EndChar

StartChar: f
Encoding: 102 102 73
Width: 600
GlyphClass: 2
Flags: W
LayerCount: 2
Back
Fore
SplineSet
250 600 m 1,0,-1
 250 700 l 1,1,-1
 550 700 l 1,2,-1
 550 600 l 1,3,-1
 300 600 l 1,4,-1
 300 400 l 1,5,-1
 450 400 l 1,6,-1
 450 300 l 1,7,-1
 300 300 l 1,8,-1
 300 0 l 1,9,-1
 200 0 l 1,10,-1
 200 300 l 1,11,-1
 100 300 l 1,12,-1
 100 400 l 1,13,-1
 200 400 l 1,14,-1
 200 600 l 1,15,-1
 250 600 l 1,0,-1
EndSplineSet
Validated: 1
EndChar

StartChar: g
Encoding: 103 103 74
Width: 600
GlyphClass: 2
Flags: W
LayerCount: 2
Back
Fore
SplineSet
200 400 m 1,0,-1
 200 100 l 1,1,-1
 400 100 l 1,2,-1
 400 200 l 1,3,-1
 450 200 l 1,4,-1
 450 300 l 1,5,-1
 400 300 l 1,6,-1
 400 400 l 1,7,-1
 200 400 l 1,0,-1
150 400 m 1,8,-1
 150 498 l 1,9,-1
 400 500 l 1,10,-1
 400 400 l 1,11,-1
 450 400 l 1,12,-1
 450 500 l 1,13,-1
 550 500 l 1,14,-1
 550 -100 l 1,15,-1
 500 -100 l 1,16,-1
 500 -200 l 1,17,-1
 150 -200 l 1,18,-1
 150 -100 l 1,19,-1
 450 -100 l 1,20,-1
 450 100 l 1,21,-1
 400 100 l 1,22,-1
 400 0 l 1,23,-1
 150 0 l 1,24,-1
 150 100 l 1,25,-1
 100 100 l 1,26,-1
 100 400 l 1,27,-1
 150 400 l 1,8,-1
EndSplineSet
Validated: 5
EndChar

StartChar: h
Encoding: 104 104 75
Width: 600
GlyphClass: 2
Flags: W
LayerCount: 2
Back
Fore
SplineSet
100 700 m 1,0,-1
 200 700 l 1,1,-1
 200 400 l 1,2,-1
 250 400 l 1,3,-1
 250 500 l 1,4,-1
 500 500 l 1,5,-1
 500 400 l 1,6,-1
 550 400 l 1,7,-1
 550 0 l 1,8,-1
 450 0 l 1,9,-1
 450 400 l 1,10,-1
 250 400 l 1,11,-1
 250 300 l 1,12,-1
 200 300 l 1,13,-1
 200 0 l 1,14,-1
 100 0 l 1,15,-1
 100 700 l 1,0,-1
EndSplineSet
Validated: 5
EndChar

StartChar: i
Encoding: 105 105 76
Width: 600
GlyphClass: 2
Flags: W
LayerCount: 2
Back
Fore
SplineSet
200 500 m 1,0,-1
 350 500 l 1,1,-1
 349 100 l 1,2,-1
 450 100 l 1,3,-1
 450 0 l 1,4,-1
 150 0 l 1,5,-1
 150 100 l 1,6,-1
 250 100 l 1,7,-1
 250 400 l 1,8,-1
 200 400 l 1,9,-1
 200 500 l 1,0,-1
200 700 m 1,10,-1
 350 700 l 1,11,-1
 350 600 l 1,12,-1
 200 600 l 1,13,-1
 200 700 l 1,10,-1
EndSplineSet
Validated: 1
EndChar

StartChar: j
Encoding: 106 106 77
Width: 600
GlyphClass: 2
Flags: W
LayerCount: 2
Back
Fore
SplineSet
400 400 m 1,0,-1
 400 500 l 1,1,-1
 550 500 l 1,2,-1
 550 -100 l 1,3,-1
 500 -100 l 1,4,-1
 500 -200 l 1,5,-1
 150 -200 l 1,6,-1
 150 -100 l 1,7,-1
 100 -100 l 1,8,-1
 100 0 l 1,9,-1
 200 0 l 1,10,-1
 200 -100 l 1,11,-1
 450 -100 l 1,12,-1
 450 400 l 1,13,-1
 400 400 l 1,0,-1
400 700 m 1,14,-1
 549 700 l 1,15,-1
 550 600 l 1,16,-1
 400 600 l 1,17,-1
 400 700 l 1,14,-1
EndSplineSet
Validated: 1
EndChar

StartChar: k
Encoding: 107 107 78
Width: 600
GlyphClass: 2
Flags: W
LayerCount: 2
Back
Fore
SplineSet
100 700 m 1,0,-1
 200 700 l 1,1,-1
 200 300 l 1,2,-1
 300 300 l 1,3,-1
 300 400 l 1,4,-1
 350 400 l 1,5,-1
 350 500 l 1,6,-1
 500 500 l 1,7,-1
 500 400 l 1,8,-1
 400 400 l 1,9,-1
 400 300 l 1,10,-1
 350 300 l 1,11,-1
 350 200 l 1,12,-1
 400 200 l 1,13,-1
 400 100 l 1,14,-1
 500 100 l 1,15,-1
 500 0 l 1,16,-1
 350 0 l 1,17,-1
 350 100 l 1,18,-1
 300 100 l 1,19,-1
 300 200 l 1,20,-1
 200 200 l 1,21,-1
 200 0 l 1,22,-1
 100 0 l 1,23,-1
 100 700 l 1,0,-1
EndSplineSet
Validated: 1
EndChar

StartChar: l
Encoding: 108 108 79
Width: 600
GlyphClass: 2
Flags: W
LayerCount: 2
Back
Fore
SplineSet
150 750 m 1,0,-1
 350 750 l 1,1,-1
 350 100 l 1,2,-1
 500 100 l 1,3,-1
 500 0 l 1,4,-1
 100 0 l 1,5,-1
 100 100 l 1,6,-1
 250 100 l 1,7,-1
 250 650 l 1,8,-1
 150 650 l 1,9,-1
 150 750 l 1,0,-1
EndSplineSet
Validated: 1
EndChar

StartChar: m
Encoding: 109 109 80
Width: 600
GlyphClass: 2
Flags: W
LayerCount: 2
Back
Fore
SplineSet
50 0 m 1,0,-1
 50 500 l 1,1,-1
 499 500 l 1,2,-1
 500 400 l 1,3,-1
 550 400 l 1,4,-1
 550 0 l 1,5,-1
 450 0 l 1,6,-1
 450 400 l 1,7,-1
 350 400 l 1,8,-1
 350 0 l 1,9,-1
 250 0 l 1,10,-1
 250 400 l 1,11,-1
 150 400 l 1,12,-1
 150 0 l 1,13,-1
 50 0 l 1,0,-1
EndSplineSet
Validated: 1
EndChar

StartChar: n
Encoding: 110 110 81
Width: 600
GlyphClass: 2
Flags: W
LayerCount: 2
Back
Fore
SplineSet
100 0 m 1,0,-1
 100 500 l 1,1,-1
 200 500 l 1,2,-1
 200 400 l 1,3,-1
 250 400 l 1,4,-1
 250 500 l 1,5,-1
 500 500 l 1,6,-1
 500 400 l 1,7,-1
 550 400 l 1,8,-1
 550 0 l 1,9,-1
 450 0 l 1,10,-1
 450 400 l 1,11,-1
 250 400 l 1,12,-1
 250 300 l 1,13,-1
 200 300 l 1,14,-1
 200 0 l 1,15,-1
 100 0 l 1,0,-1
EndSplineSet
Validated: 5
EndChar

StartChar: o
Encoding: 111 111 82
Width: 600
GlyphClass: 2
Flags: W
LayerCount: 2
Back
Fore
SplineSet
200 400 m 1,0,-1
 200 100 l 1,1,-1
 450 100 l 1,2,-1
 450 400 l 1,3,-1
 200 400 l 1,0,-1
150 500 m 1,4,-1
 500 500 l 1,5,-1
 500 400 l 1,6,-1
 550 400 l 1,7,-1
 550 100 l 1,8,-1
 500 100 l 1,9,-1
 500 0 l 1,10,-1
 150 0 l 1,11,-1
 150 100 l 1,12,-1
 100 100 l 1,13,-1
 100 400 l 1,14,-1
 150 400 l 1,15,-1
 150 500 l 1,4,-1
EndSplineSet
Validated: 1
EndChar

StartChar: p
Encoding: 112 112 83
Width: 600
GlyphClass: 2
Flags: W
LayerCount: 2
Back
Fore
SplineSet
250 300 m 1,0,-1
 200 300 l 1,1,-1
 200 200 l 1,2,-1
 250 200 l 1,3,-1
 250 100 l 1,4,-1
 450 100 l 1,5,-1
 450 400 l 1,6,-1
 250 400 l 1,7,-1
 250 300 l 1,0,-1
100 500 m 1,8,-1
 200 500 l 1,9,-1
 200 400 l 1,10,-1
 250 400 l 1,11,-1
 250 500 l 1,12,-1
 500 500 l 1,13,-1
 500 400 l 1,14,-1
 550 400 l 1,15,-1
 550 100 l 1,16,-1
 500 100 l 1,17,-1
 500 0 l 1,18,-1
 250 0 l 1,19,-1
 250 100 l 1,20,-1
 200 100 l 1,21,-1
 200 -200 l 1,22,-1
 100 -200 l 1,23,-1
 100 500 l 1,8,-1
EndSplineSet
Validated: 5
EndChar

StartChar: q
Encoding: 113 113 84
Width: 600
GlyphClass: 2
Flags: W
LayerCount: 2
Back
Fore
SplineSet
200 400 m 1,0,-1
 200 100 l 1,1,-1
 400 100 l 1,2,-1
 400 200 l 1,3,-1
 450 200 l 1,4,-1
 450 300 l 1,5,-1
 400 300 l 1,6,-1
 400 400 l 1,7,-1
 200 400 l 1,0,-1
150 500 m 1,8,-1
 400 500 l 1,9,-1
 400 400 l 1,10,-1
 450 400 l 1,11,-1
 450 500 l 1,12,-1
 550 500 l 1,13,-1
 550 -200 l 1,14,-1
 450 -200 l 1,15,-1
 450 100 l 1,16,-1
 400 100 l 1,17,-1
 400 0 l 1,18,-1
 150 0 l 1,19,-1
 150 100 l 1,20,-1
 100 100 l 1,21,-1
 100 400 l 1,22,-1
 150 400 l 1,23,-1
 150 500 l 1,8,-1
EndSplineSet
Validated: 5
EndChar

StartChar: r
Encoding: 114 114 85
Width: 600
GlyphClass: 2
Flags: W
LayerCount: 2
Back
Fore
SplineSet
100 0 m 1,0,-1
 100 500 l 1,1,-1
 200 500 l 1,2,-1
 200 400 l 1,3,-1
 300 400 l 1,4,-1
 300 500 l 1,5,-1
 550 500 l 1,6,-1
 550 400 l 1,7,-1
 300 400 l 1,8,-1
 300 300 l 1,9,-1
 200 300 l 1,10,-1
 200 0 l 1,11,-1
 100 0 l 1,0,-1
EndSplineSet
Validated: 5
EndChar

StartChar: s
Encoding: 115 115 86
Width: 600
GlyphClass: 2
Flags: W
LayerCount: 2
Back
Fore
SplineSet
500 400 m 1,0,-1
 200 400 l 1,1,-1
 200 300 l 1,2,-1
 500 300 l 1,3,-1
 500 200 l 1,4,-1
 550 200 l 1,5,-1
 550 100 l 1,6,-1
 500 100 l 1,7,-1
 500 0 l 1,8,-1
 150 0 l 1,9,-1
 150 100 l 1,10,-1
 450 100 l 1,11,-1
 450 200 l 1,12,-1
 150 200 l 1,13,-1
 150 300 l 1,14,-1
 100 300 l 1,15,-1
 100 400 l 1,16,-1
 150 400 l 1,17,-1
 150 500 l 1,18,-1
 500 500 l 1,19,-1
 500 400 l 1,0,-1
EndSplineSet
Validated: 1
EndChar

StartChar: t
Encoding: 116 116 87
Width: 600
GlyphClass: 2
Flags: W
LayerCount: 2
Back
Fore
SplineSet
200 700 m 1,0,-1
 300 700 l 1,1,-1
 300 500 l 1,2,-1
 450 500 l 1,3,-1
 450 400 l 1,4,-1
 300 400 l 1,5,-1
 300 100 l 1,6,-1
 550 100 l 1,7,-1
 550 0 l 1,8,-1
 250 0 l 1,9,-1
 250 100 l 1,10,-1
 200 100 l 1,11,-1
 200 400 l 1,12,-1
 100 400 l 1,13,-1
 100 500 l 1,14,-1
 200 500 l 1,15,-1
 200 700 l 1,0,-1
EndSplineSet
Validated: 1
EndChar

StartChar: u
Encoding: 117 117 88
Width: 600
GlyphClass: 2
Flags: W
LayerCount: 2
Back
Fore
SplineSet
100 500 m 1,0,-1
 200 500 l 1,1,-1
 200 100 l 1,2,-1
 400 100 l 1,3,-1
 400 200 l 1,4,-1
 450 200 l 1,5,-1
 450 500 l 1,6,-1
 550 500 l 1,7,-1
 550 0 l 1,8,-1
 450 0 l 1,9,-1
 450 100 l 1,10,-1
 400 100 l 1,11,-1
 400 0 l 1,12,-1
 150 0 l 1,13,-1
 150 100 l 1,14,-1
 100 100 l 1,15,-1
 100 500 l 1,0,-1
EndSplineSet
Validated: 5
EndChar

StartChar: v
Encoding: 118 118 89
Width: 600
GlyphClass: 2
Flags: W
LayerCount: 2
Back
Fore
SplineSet
50 500 m 1,0,-1
 150 500 l 1,1,-1
 150 400 l 1,2,-1
 200 400 l 1,3,-1
 200 300 l 1,4,-1
 250 300 l 1,5,-1
 250 200 l 1,6,-1
 350 200 l 1,7,-1
 350 300 l 1,8,-1
 400 300 l 1,9,-1
 400 400 l 1,10,-1
 450 400 l 1,11,-1
 450 500 l 1,12,-1
 550 500 l 1,13,-1
 550 400 l 1,14,-1
 500 400 l 1,15,-1
 500 300 l 1,16,-1
 450 300 l 1,17,-1
 450 200 l 1,18,-1
 400 200 l 1,19,-1
 400 100 l 1,20,-1
 350 100 l 1,21,-1
 350 0 l 1,22,-1
 250 0 l 1,23,-1
 250 100 l 1,24,-1
 200 100 l 1,25,-1
 200 200 l 1,26,-1
 150 200 l 1,27,-1
 150 300 l 1,28,-1
 100 300 l 1,29,-1
 100 400 l 1,30,-1
 50 400 l 1,31,-1
 50 500 l 1,0,-1
EndSplineSet
Validated: 1
EndChar

StartChar: w
Encoding: 119 119 90
Width: 600
GlyphClass: 2
Flags: W
LayerCount: 2
Back
Fore
SplineSet
450 500 m 1,0,-1
 550 500 l 1,1,-1
 550 200 l 1,2,-1
 500 200 l 1,3,-1
 500 100 l 1,4,-1
 450 100 l 1,5,-1
 450 0 l 1,6,-1
 350 0 l 1,7,-1
 350 100 l 1,8,-1
 250 100 l 1,9,-1
 250 0 l 1,10,-1
 150 0 l 1,11,-1
 150 100 l 1,12,-1
 100 100 l 1,13,-1
 100 200 l 1,14,-1
 50 200 l 1,15,-1
 50 500 l 1,16,-1
 150 500 l 1,17,-1
 150 200 l 1,18,-1
 200 200 l 1,19,-1
 200 100 l 1,20,-1
 250 100 l 1,21,-1
 250 400 l 1,22,-1
 350 400 l 1,23,-1
 350 100 l 1,24,-1
 400 100 l 1,25,-1
 400 200 l 1,26,-1
 450 200 l 1,27,-1
 450 500 l 1,0,-1
EndSplineSet
Validated: 5
EndChar

StartChar: x
Encoding: 120 120 91
Width: 600
GlyphClass: 2
Flags: W
LayerCount: 2
Back
Fore
SplineSet
50 500 m 1,0,-1
 200 500 l 1,1,-1
 200 400 l 1,2,-1
 250 400 l 1,3,-1
 250 300 l 1,4,-1
 350 300 l 1,5,-1
 350 400 l 1,6,-1
 400 400 l 1,7,-1
 400 500 l 1,8,-1
 550 500 l 1,9,-1
 550 400 l 1,10,-1
 450 400 l 1,11,-1
 450 300 l 1,12,-1
 400 300 l 1,13,-1
 400 200 l 1,14,-1
 450 200 l 1,15,-1
 450 100 l 1,16,-1
 550 100 l 1,17,-1
 550 0 l 1,18,-1
 400 0 l 1,19,-1
 400 100 l 1,20,-1
 350 100 l 1,21,-1
 350 200 l 1,22,-1
 250 200 l 1,23,-1
 250 100 l 1,24,-1
 200 100 l 1,25,-1
 200 0 l 1,26,-1
 50 0 l 1,27,-1
 50 100 l 1,28,-1
 150 100 l 1,29,-1
 150 200 l 1,30,-1
 200 200 l 1,31,-1
 200 300 l 1,32,-1
 150 300 l 1,33,-1
 150 400 l 1,34,-1
 50 400 l 1,35,-1
 50 500 l 1,0,-1
EndSplineSet
Validated: 1
EndChar

StartChar: y
Encoding: 121 121 92
Width: 600
GlyphClass: 2
Flags: W
LayerCount: 2
Back
Fore
SplineSet
100 500 m 1,0,-1
 200 500 l 1,1,-1
 200 400 l 1,2,-1
 250 400 l 1,3,-1
 250 300 l 1,4,-1
 300 300 l 1,5,-1
 300 200 l 1,6,-1
 350 200 l 1,7,-1
 350 300 l 1,8,-1
 400 300 l 1,9,-1
 400 400 l 1,10,-1
 450 400 l 1,11,-1
 450 500 l 1,12,-1
 550 500 l 1,13,-1
 550 400 l 1,14,-1
 500 400 l 1,15,-1
 500 300 l 1,16,-1
 450 300 l 1,17,-1
 450 200 l 1,18,-1
 400 200 l 1,19,-1
 400 100 l 1,20,-1
 350 100 l 1,21,-1
 350 0 l 1,22,-1
 300 0 l 1,23,-1
 300 -100 l 1,24,-1
 250 -100 l 1,25,-1
 250 -200 l 1,26,-1
 100 -200 l 1,27,-1
 100 -100 l 1,28,-1
 200 -100 l 1,29,-1
 200 0 l 1,30,-1
 250 0 l 1,31,-1
 250 200 l 1,32,-1
 200 200 l 1,33,-1
 200 300 l 1,34,-1
 150 300 l 1,35,-1
 150 400 l 1,36,-1
 100 400 l 1,37,-1
 100 500 l 1,0,-1
EndSplineSet
Validated: 1
EndChar

StartChar: z
Encoding: 122 122 93
Width: 600
GlyphClass: 2
Flags: W
LayerCount: 2
Back
Fore
SplineSet
100 500 m 1,0,-1
 500 500 l 1,1,-1
 500 400 l 1,2,-1
 400 400 l 1,3,-1
 400 300 l 1,4,-1
 350 300 l 1,5,-1
 350 200 l 1,6,-1
 300 200 l 1,7,-1
 300 100 l 1,8,-1
 500 100 l 1,9,-1
 500 0 l 1,10,-1
 100 0 l 1,11,-1
 100 100 l 1,12,-1
 200 100 l 1,13,-1
 200 200 l 1,14,-1
 250 200 l 1,15,-1
 250 300 l 1,16,-1
 300 300 l 1,17,-1
 300 400 l 1,18,-1
 100 400 l 1,19,-1
 100 500 l 1,0,-1
EndSplineSet
Validated: 1
EndChar

StartChar: braceleft
Encoding: 123 123 94
Width: 600
GlyphClass: 2
Flags: W
LayerCount: 2
Back
Fore
SplineSet
450 700 m 1,0,-1
 450 600 l 1,1,-1
 350 600 l 1,2,-1
 350 400 l 1,3,-1
 300 400 l 1,4,-1
 300 300 l 1,5,-1
 350 300 l 1,6,-1
 350 100 l 1,7,-1
 450 100 l 1,8,-1
 450 0 l 1,9,-1
 300 0 l 1,10,-1
 300 100 l 1,11,-1
 250 100 l 1,12,-1
 250 300 l 1,13,-1
 150 300 l 1,14,-1
 150 400 l 1,15,-1
 250 400 l 1,16,-1
 250 600 l 1,17,-1
 300 600 l 1,18,-1
 300 700 l 1,19,-1
 450 700 l 1,0,-1
EndSplineSet
Validated: 1
EndChar

StartChar: bar
Encoding: 124 124 95
Width: 600
GlyphClass: 2
Flags: W
LayerCount: 2
Back
Fore
SplineSet
250 700 m 1,0,-1
 350 700 l 1,1,-1
 350 0 l 1,2,-1
 250 0 l 1,3,-1
 250 700 l 1,0,-1
EndSplineSet
Validated: 1
EndChar

StartChar: braceright
Encoding: 125 125 96
Width: 600
GlyphClass: 2
Flags: W
LayerCount: 2
Back
Fore
SplineSet
150 700 m 1,0,-1
 300 700 l 1,1,-1
 300 600 l 1,2,-1
 350 600 l 1,3,-1
 350 400 l 1,4,-1
 450 400 l 1,5,-1
 450 300 l 1,6,-1
 350 300 l 1,7,-1
 350 100 l 1,8,-1
 300 100 l 1,9,-1
 300 0 l 1,10,-1
 150 0 l 1,11,-1
 150 100 l 1,12,-1
 250 100 l 1,13,-1
 250 300 l 1,14,-1
 300 300 l 1,15,-1
 300 400 l 1,16,-1
 250 400 l 1,17,-1
 250 600 l 1,18,-1
 150 600 l 1,19,-1
 150 700 l 1,0,-1
EndSplineSet
Validated: 1
EndChar

StartChar: asciitilde
Encoding: 126 126 97
Width: 600
GlyphClass: 2
Flags: W
LayerCount: 2
Back
Fore
SplineSet
100 600 m 1,0,-1
 150 600 l 1,1,-1
 150 700 l 1,2,-1
 350 700 l 1,3,-1
 350 600 l 1,4,-1
 450 600 l 1,5,-1
 450 700 l 1,6,-1
 550 700 l 1,7,-1
 550 600 l 1,8,-1
 500 600 l 1,9,-1
 500 500 l 1,10,-1
 300 500 l 1,11,-1
 300 600 l 1,12,-1
 200 600 l 1,13,-1
 200 500 l 1,14,-1
 100 501 l 1,15,-1
 100 600 l 1,0,-1
EndSplineSet
Validated: 1
EndChar

StartChar: exclamdown
Encoding: 161 161 111
Width: 600
GlyphClass: 2
Flags: W
LayerCount: 2
Back
Fore
SplineSet
250 500 m 1,0,-1
 350 500 l 1,1,-1
 350 0 l 1,2,-1
 250 0 l 1,3,-1
 250 500 l 1,0,-1
350 600 m 1,4,-1
 250 600 l 1,5,-1
 250 700 l 1,6,-1
 350 700 l 1,7,-1
 350 600 l 1,4,-1
EndSplineSet
Validated: 1
EndChar

StartChar: cent
Encoding: 162 162 112
Width: 600
GlyphClass: 2
Flags: W
LayerCount: 2
Back
Fore
SplineSet
200 500 m 1,0,-1
 550 500 l 1,1,-1
 550 400 l 1,2,-1
 250 400 l 1,3,-1
 250 300 l 1,4,-1
 200 300 l 1,5,-1
 200 200 l 1,6,-1
 250 200 l 1,7,-1
 250 100 l 1,8,-1
 550 100 l 1,9,-1
 550 0 l 1,10,-1
 200 0 l 1,11,-1
 200 100 l 1,12,-1
 150 100 l 1,13,-1
 150 200 l 1,14,-1
 100 200 l 1,15,-1
 100 300 l 1,16,-1
 150 300 l 1,17,-1
 150 400 l 1,18,-1
 200 400 l 1,19,-1
 200 500 l 1,0,-1
EndSplineSet
Validated: 1
EndChar

StartChar: sterling
Encoding: 163 163 113
Width: 600
GlyphClass: 2
Flags: W
LayerCount: 2
Back
Fore
SplineSet
100 0 m 1,0,-1
 100 100 l 1,1,-1
 150 100 l 1,2,-1
 150 200 l 1,3,-1
 200 200 l 1,4,-1
 200 300 l 1,5,-1
 100 300 l 1,6,-1
 100 400 l 1,7,-1
 200 400 l 1,8,-1
 200 600 l 1,9,-1
 250 600 l 1,10,-1
 250 700 l 1,11,-1
 450 700 l 1,12,-1
 450 600 l 1,13,-1
 500 600 l 1,14,-1
 500 500 l 1,15,-1
 400 500 l 1,16,-1
 400 600 l 1,17,-1
 300 600 l 1,18,-1
 300 400 l 1,19,-1
 400 400 l 1,20,-1
 400 300 l 1,21,-1
 300 300 l 1,22,-1
 300 200 l 1,23,-1
 250 200 l 1,24,-1
 250 100 l 1,25,-1
 550 100 l 1,26,-1
 550 0 l 1,27,-1
 100 0 l 1,0,-1
EndSplineSet
Validated: 1
EndChar

StartChar: currency
Encoding: 164 164 114
Width: 600
GlyphClass: 2
Flags: W
LayerCount: 2
Back
Fore
SplineSet
200 300 m 1,0,-1
 400 300 l 1,1,-1
 400 500 l 1,2,-1
 200 500 l 1,3,-1
 200 300 l 1,0,-1
0 700 m 1,4,-1
 0 800 l 1,5,-1
 100 800 l 1,6,-1
 100 700 l 1,7,-1
 150 700 l 1,8,-1
 150 600 l 1,9,-1
 450 600 l 1,10,-1
 450 700 l 1,11,-1
 500 700 l 1,12,-1
 500 800 l 1,13,-1
 600 800 l 1,14,-1
 600 700 l 1,15,-1
 550 700 l 1,16,-1
 550 600 l 1,17,-1
 500 600 l 1,18,-1
 500 200 l 1,19,-1
 550 200 l 1,20,-1
 550 100 l 1,21,-1
 600 100 l 1,22,-1
 600 0 l 1,23,-1
 500 0 l 1,24,-1
 500 100 l 1,25,-1
 450 100 l 1,26,-1
 450 200 l 1,27,-1
 150 200 l 1,28,-1
 150 100 l 1,29,-1
 100 100 l 1,30,-1
 100 0 l 1,31,-1
 0 0 l 1,32,-1
 0 100 l 1,33,-1
 50 100 l 1,34,-1
 50 200 l 1,35,-1
 100 200 l 1,36,-1
 100 600 l 1,37,-1
 50 600 l 1,38,-1
 50 700 l 1,39,-1
 0 700 l 1,4,-1
EndSplineSet
Validated: 1
EndChar

StartChar: yen
Encoding: 165 165 115
Width: 600
GlyphClass: 2
Flags: W
LayerCount: 2
Back
Fore
SplineSet
100 600 m 1,0,-1
 100 700 l 1,1,-1
 200 700 l 1,2,-1
 200 600 l 1,3,-1
 250 600 l 1,4,-1
 250 500 l 1,5,-1
 350 500 l 1,6,-1
 350 600 l 1,7,-1
 400 600 l 1,8,-1
 400 700 l 1,9,-1
 500 700 l 1,10,-1
 500 600 l 1,11,-1
 450 600 l 1,12,-1
 450 500 l 1,13,-1
 400 500 l 1,14,-1
 400 400 l 1,15,-1
 350 400 l 1,16,-1
 350 300 l 1,17,-1
 550 300 l 1,18,-1
 550 200 l 1,19,-1
 350 200 l 1,20,-1
 350 0 l 1,21,-1
 250 0 l 1,22,-1
 250 200 l 1,23,-1
 50 200 l 1,24,-1
 50 300 l 1,25,-1
 250 300 l 1,26,-1
 250 400 l 1,27,-1
 200 400 l 1,28,-1
 200 500 l 1,29,-1
 150 500 l 1,30,-1
 150 600 l 1,31,-1
 100 600 l 1,0,-1
EndSplineSet
Validated: 1
EndChar

StartChar: brokenbar
Encoding: 166 166 116
Width: 600
GlyphClass: 2
Flags: W
LayerCount: 2
Back
Fore
SplineSet
250 700 m 1,0,-1
 350 700 l 1,1,-1
 350 0 l 1,2,-1
 250 0 l 1,3,-1
 250 700 l 1,0,-1
EndSplineSet
Validated: 1
EndChar

StartChar: section
Encoding: 167 167 117
Width: 600
GlyphClass: 2
Flags: W
LayerCount: 2
Back
Fore
SplineSet
350 400 m 1,0,-1
 250 400 l 1,1,-1
 250 300 l 1,2,-1
 350 300 l 1,3,-1
 350 400 l 1,0,-1
450 500 m 1,4,-1
 450 600 l 1,5,-1
 300 600 l 1,6,-1
 300 500 l 1,7,-1
 400 500 l 1,8,-1
 400 400 l 1,9,-1
 450 400 l 1,10,-1
 450 300 l 1,11,-1
 400 300 l 1,12,-1
 400 100 l 1,13,-1
 350 100 l 1,14,-1
 350 0 l 1,15,-1
 100 0 l 1,16,-1
 100 100 l 1,17,-1
 50 100 l 1,18,-1
 50 200 l 1,19,-1
 150 200 l 1,20,-1
 150 100 l 1,21,-1
 300 100 l 1,22,-1
 300 200 l 1,23,-1
 200 200 l 1,24,-1
 200 300 l 1,25,-1
 150 300 l 1,26,-1
 150 400 l 1,27,-1
 200 400 l 1,28,-1
 200 600 l 1,29,-1
 250 600 l 1,30,-1
 250 700 l 1,31,-1
 500 700 l 1,32,-1
 500 600 l 1,33,-1
 550 600 l 1,34,-1
 550 500 l 1,35,-1
 450 500 l 1,4,-1
EndSplineSet
Validated: 1
EndChar

StartChar: copyright
Encoding: 169 169 118
Width: 600
GlyphClass: 2
Flags: W
LayerCount: 2
Back
Fore
SplineSet
200 400 m 1,0,-1
 200 500 l 1,1,-1
 400 500 l 1,2,-1
 400 400 l 1,3,-1
 250 400 l 1,4,-1
 250 300 l 1,5,-1
 400 300 l 1,6,-1
 400 200 l 1,7,-1
 200 200 l 1,8,-1
 200 300 l 1,9,-1
 150 300 l 1,10,-1
 150 400 l 1,11,-1
 200 400 l 1,0,-1
150 500 m 1,12,-1
 100 500 l 1,13,-1
 100 200 l 1,14,-1
 150 200 l 1,15,-1
 150 100 l 1,16,-1
 450 100 l 1,17,-1
 450 200 l 1,18,-1
 500 200 l 1,19,-1
 500 500 l 1,20,-1
 450 500 l 1,21,-1
 450 600 l 1,22,-1
 150 600 l 1,23,-1
 150 500 l 1,12,-1
100 600 m 1,24,-1
 100 700 l 1,25,-1
 500 700 l 1,26,-1
 500 600 l 1,27,-1
 550 600 l 1,28,-1
 550 500 l 1,29,-1
 600 500 l 1,30,-1
 600 200 l 1,31,-1
 550 200 l 1,32,-1
 550 100 l 1,33,-1
 500 100 l 1,34,-1
 500 0 l 1,35,-1
 100 0 l 1,36,-1
 100 100 l 1,37,-1
 50 100 l 1,38,-1
 50 200 l 1,39,-1
 0 200 l 1,40,-1
 0 500 l 1,41,-1
 50 500 l 1,42,-1
 50 600 l 1,43,-1
 100 600 l 1,24,-1
EndSplineSet
Validated: 1
EndChar

StartChar: guillemotleft
Encoding: 171 171 120
Width: 600
GlyphClass: 2
Flags: W
LayerCount: 2
Back
Fore
SplineSet
450 0 m 1,0,-1
 450 100 l 1,1,-1
 350 100 l 1,2,-1
 350 200 l 1,3,-1
 300 200 l 1,4,-1
 300 300 l 1,5,-1
 350 300 l 1,6,-1
 350 400 l 1,7,-1
 450 400 l 1,8,-1
 450 500 l 1,9,-1
 600 500 l 1,10,-1
 600 400 l 1,11,-1
 500 400 l 1,12,-1
 500 300 l 1,13,-1
 400 300 l 1,14,-1
 400 200 l 1,15,-1
 500 200 l 1,16,-1
 500 100 l 1,17,-1
 600 100 l 1,18,-1
 600 0 l 1,19,-1
 450 0 l 1,0,-1
300 0 m 1,20,-1
 150 0 l 1,21,-1
 150 100 l 1,22,-1
 50 100 l 1,23,-1
 50 200 l 1,24,-1
 0 200 l 1,25,-1
 0 300 l 1,26,-1
 50 300 l 1,27,-1
 50 400 l 1,28,-1
 150 400 l 1,29,-1
 150 500 l 1,30,-1
 300 500 l 1,31,-1
 300 400 l 1,32,-1
 200 400 l 1,33,-1
 200 300 l 1,34,-1
 100 300 l 1,35,-1
 100 200 l 1,36,-1
 200 200 l 1,37,-1
 200 100 l 1,38,-1
 300 100 l 1,39,-1
 300 0 l 1,20,-1
EndSplineSet
Validated: 1
EndChar

StartChar: logicalnot
Encoding: 172 172 121
Width: 600
GlyphClass: 2
Flags: W
LayerCount: 2
Back
Fore
SplineSet
50 -100 m 1,0,-1
 50 0 l 1,1,-1
 550 0 l 1,2,-1
 550 -100 l 1,3,-1
 50 -100 l 1,0,-1
EndSplineSet
Validated: 1
EndChar

StartChar: registered
Encoding: 174 174 123
Width: 600
GlyphClass: 2
Flags: W
LayerCount: 2
Back
Fore
SplineSet
200 200 m 1,0,-1
 200 500 l 1,1,-1
 400 500 l 1,2,-1
 400 400 l 1,3,-1
 350 400 l 1,4,-1
 350 300 l 1,5,-1
 450 300 l 1,6,-1
 450 200 l 1,7,-1
 350 200 l 1,8,-1
 350 300 l 1,9,-1
 300 300 l 1,10,-1
 300 200 l 1,11,-1
 200 200 l 1,0,-1
150 500 m 1,12,-1
 100 500 l 1,13,-1
 100 200 l 1,14,-1
 150 200 l 1,15,-1
 150 100 l 1,16,-1
 450 100 l 1,17,-1
 450 200 l 1,18,-1
 500 200 l 1,19,-1
 500 500 l 1,20,-1
 450 500 l 1,21,-1
 450 600 l 1,22,-1
 150 600 l 1,23,-1
 150 500 l 1,12,-1
100 600 m 1,24,-1
 100 700 l 1,25,-1
 500 700 l 1,26,-1
 500 600 l 1,27,-1
 550 600 l 1,28,-1
 550 500 l 1,29,-1
 600 500 l 1,30,-1
 600 200 l 1,31,-1
 550 200 l 1,32,-1
 550 100 l 1,33,-1
 500 100 l 1,34,-1
 500 0 l 1,35,-1
 100 0 l 1,36,-1
 100 100 l 1,37,-1
 50 100 l 1,38,-1
 50 200 l 1,39,-1
 0 200 l 1,40,-1
 0 500 l 1,41,-1
 50 500 l 1,42,-1
 50 600 l 1,43,-1
 100 600 l 1,24,-1
EndSplineSet
Validated: 5
EndChar

StartChar: degree
Encoding: 176 176 124
Width: 600
GlyphClass: 2
Flags: W
LayerCount: 2
Back
Fore
SplineSet
250 600 m 1,0,-1
 250 500 l 1,1,-1
 350 500 l 1,2,-1
 350 600 l 1,3,-1
 250 600 l 1,0,-1
200 600 m 1,4,-1
 200 700 l 1,5,-1
 400 700 l 1,6,-1
 400 600 l 1,7,-1
 450 600 l 1,8,-1
 450 500 l 1,9,-1
 400 500 l 1,10,-1
 400 400 l 1,11,-1
 200 400 l 1,12,-1
 200 500 l 1,13,-1
 150 500 l 1,14,-1
 150 600 l 1,15,-1
 200 600 l 1,4,-1
EndSplineSet
Validated: 1
EndChar

StartChar: plusminus
Encoding: 177 177 125
Width: 600
GlyphClass: 2
Flags: W
LayerCount: 2
Back
Fore
SplineSet
100 200 m 1,0,-1
 500 200 l 1,1,-1
 500 101 l 1,2,-1
 100 100 l 1,3,-1
 100 200 l 1,0,-1
100 550 m 1,4,-1
 250 550 l 1,5,-1
 250 700 l 1,6,-1
 350 700 l 1,7,-1
 350 550 l 1,8,-1
 500 551 l 1,9,-1
 500 450 l 1,10,-1
 350 450 l 1,11,-1
 350 300 l 1,12,-1
 250 300 l 1,13,-1
 250 451 l 1,14,-1
 100 451 l 1,15,-1
 100 550 l 1,4,-1
EndSplineSet
Validated: 1
EndChar

StartChar: uni00B2
Encoding: 178 178 126
Width: 600
GlyphClass: 2
Flags: W
LayerCount: 2
Back
Fore
SplineSet
200 700 m 1,0,-1
 200 800 l 1,1,-1
 400 800 l 1,2,-1
 400 700 l 1,3,-1
 450 700 l 1,4,-1
 450 600 l 1,5,-1
 400 600 l 1,6,-1
 400 500 l 1,7,-1
 300 500 l 1,8,-1
 300 400 l 1,9,-1
 450 400 l 1,10,-1
 450 300 l 1,11,-1
 150 300 l 1,12,-1
 150 400 l 1,13,-1
 200 400 l 1,14,-1
 200 500 l 1,15,-1
 300 500 l 1,16,-1
 300 600 l 1,17,-1
 350 600 l 1,18,-1
 350 700 l 1,19,-1
 250 700 l 1,20,-1
 250 600 l 1,21,-1
 150 600 l 1,22,-1
 150 700 l 1,23,-1
 200 700 l 1,0,-1
EndSplineSet
Validated: 5
EndChar

StartChar: uni00B3
Encoding: 179 179 127
Width: 600
GlyphClass: 2
Flags: W
LayerCount: 2
Back
Fore
SplineSet
150 700 m 1,0,-1
 150 800 l 1,1,-1
 450 800 l 1,2,-1
 450 600 l 1,3,-1
 400 600 l 1,4,-1
 400 500 l 1,5,-1
 450 500 l 1,6,-1
 450 400 l 1,7,-1
 400 400 l 1,8,-1
 400 300 l 1,9,-1
 150 300 l 1,10,-1
 150 400 l 1,11,-1
 350 400 l 1,12,-1
 350 500 l 1,13,-1
 250 500 l 1,14,-1
 250 600 l 1,15,-1
 350 600 l 1,16,-1
 350 700 l 1,17,-1
 150 700 l 1,0,-1
EndSplineSet
Validated: 1
EndChar

StartChar: acute
Encoding: 180 180 128
Width: 600
GlyphClass: 2
Flags: W
LayerCount: 2
Back
Fore
SplineSet
250 600 m 1,0,-1
 250 700 l 1,1,-1
 350 700 l 1,2,-1
 350 600 l 1,3,-1
 300 600 l 1,4,-1
 300 500 l 1,5,-1
 250 500 l 1,6,-1
 250 400 l 1,7,-1
 150 400 l 1,8,-1
 150 500 l 1,9,-1
 200 500 l 1,10,-1
 200 600 l 1,11,-1
 250 600 l 1,0,-1
EndSplineSet
Validated: 1
EndChar

StartChar: mu
Encoding: 181 181 129
Width: 600
GlyphClass: 2
Flags: W
LayerCount: 2
Back
Fore
SplineSet
100 -200 m 1,0,-1
 100 500 l 1,1,-1
 200 500 l 1,2,-1
 200 200 l 1,3,-1
 250 200 l 1,4,-1
 250 100 l 1,5,-1
 400 100 l 1,6,-1
 400 200 l 1,7,-1
 450 200 l 1,8,-1
 450 500 l 1,9,-1
 550 500 l 1,10,-1
 550 0 l 1,11,-1
 450 0 l 1,12,-1
 450 100 l 1,13,-1
 400 100 l 1,14,-1
 400 0 l 1,15,-1
 250 0 l 1,16,-1
 250 100 l 1,17,-1
 200 100 l 1,18,-1
 200 -200 l 1,19,-1
 100 -200 l 1,0,-1
EndSplineSet
Validated: 5
EndChar

StartChar: periodcentered
Encoding: 183 183 131
Width: 600
GlyphClass: 2
Flags: W
LayerCount: 2
Back
Fore
SplineSet
250 600 m 1,0,-1
 250 700 l 1,1,-1
 350 700 l 1,2,-1
 350 600 l 1,3,-1
 300 600 l 1,4,-1
 300 500 l 1,5,-1
 250 500 l 1,6,-1
 250 400 l 1,7,-1
 150 400 l 1,8,-1
 150 500 l 1,9,-1
 200 500 l 1,10,-1
 200 600 l 1,11,-1
 250 600 l 1,0,-1
EndSplineSet
Validated: 1
EndChar

StartChar: uni00B9
Encoding: 185 185 132
Width: 600
GlyphClass: 2
Flags: W
LayerCount: 2
Back
Fore
SplineSet
300 700 m 1,0,-1
 300 800 l 1,1,-1
 400 800 l 1,2,-1
 400 400 l 1,3,-1
 300 400 l 1,4,-1
 300 600 l 1,5,-1
 250 600 l 1,6,-1
 250 700 l 1,7,-1
 300 700 l 1,0,-1
EndSplineSet
Validated: 1
EndChar

StartChar: guillemotright
Encoding: 187 187 133
Width: 600
GlyphClass: 2
Flags: W
LayerCount: 2
Back
Fore
SplineSet
300 400 m 1,0,-1
 300 500 l 1,1,-1
 450 500 l 1,2,-1
 450 400 l 1,3,-1
 550 400 l 1,4,-1
 550 300 l 1,5,-1
 600 300 l 1,6,-1
 600 200 l 1,7,-1
 550 200 l 1,8,-1
 550 100 l 1,9,-1
 450 100 l 1,10,-1
 450 0 l 1,11,-1
 300 0 l 1,12,-1
 300 100 l 1,13,-1
 400 100 l 1,14,-1
 400 200 l 1,15,-1
 450 200 l 1,16,-1
 450 300 l 1,17,-1
 400 300 l 1,18,-1
 400 400 l 1,19,-1
 300 400 l 1,0,-1
0 400 m 1,20,-1
 0 500 l 1,21,-1
 150 500 l 1,22,-1
 150 400 l 1,23,-1
 250 400 l 1,24,-1
 250 300 l 1,25,-1
 300 300 l 1,26,-1
 300 200 l 1,27,-1
 250 200 l 1,28,-1
 250 100 l 1,29,-1
 150 100 l 1,30,-1
 150 0 l 1,31,-1
 0 0 l 1,32,-1
 0 100 l 1,33,-1
 100 100 l 1,34,-1
 100 200 l 1,35,-1
 150 200 l 1,36,-1
 150 300 l 1,37,-1
 100 300 l 1,38,-1
 100 400 l 1,39,-1
 0 400 l 1,20,-1
EndSplineSet
Validated: 1
EndChar

StartChar: onequarter
Encoding: 188 188 134
Width: 600
GlyphClass: 2
Flags: W
LayerCount: 2
Back
Fore
SplineSet
350 200 m 1,0,-1
 350 300 l 1,1,-1
 450 300 l 1,2,-1
 450 200 l 1,3,-1
 400 200 l 1,4,-1
 400 100 l 1,5,-1
 350 100 l 1,6,-1
 350 0 l 1,7,-1
 450 0 l 1,8,-1
 450 100 l 1,9,-1
 550 100 l 1,10,-1
 550 -200 l 1,11,-1
 450 -200 l 1,12,-1
 450 -100 l 1,13,-1
 250 -100 l 1,14,-1
 250 100 l 1,15,-1
 300 100 l 1,16,-1
 300 200 l 1,17,-1
 350 200 l 1,0,-1
100 600 m 1,18,-1
 100 700 l 1,19,-1
 200 700 l 1,20,-1
 200 200 l 1,21,-1
 100 200 l 1,22,-1
 100 500 l 1,23,-1
 50 500 l 1,24,-1
 50 600 l 1,25,-1
 100 600 l 1,18,-1
EndSplineSet
Validated: 1
EndChar

StartChar: onehalf
Encoding: 189 189 135
Width: 600
GlyphClass: 2
Flags: W
LayerCount: 2
Back
Fore
SplineSet
250 100 m 1,0,-1
 250 200 l 1,1,-1
 300 200 l 1,2,-1
 300 300 l 1,3,-1
 500 300 l 1,4,-1
 500 200 l 1,5,-1
 550 200 l 1,6,-1
 550 100 l 1,7,-1
 500 100 l 1,8,-1
 500 0 l 1,9,-1
 400 0 l 1,10,-1
 400 -100 l 1,11,-1
 550 -100 l 1,12,-1
 550 -200 l 1,13,-1
 250 -200 l 1,14,-1
 250 -100 l 1,15,-1
 300 -100 l 1,16,-1
 300 0 l 1,17,-1
 400 0 l 1,18,-1
 400 100 l 1,19,-1
 450 100 l 1,20,-1
 450 200 l 1,21,-1
 350 200 l 1,22,-1
 350 100 l 1,23,-1
 250 100 l 1,0,-1
100 600 m 1,24,-1
 100 700 l 1,25,-1
 200 700 l 1,26,-1
 200 200 l 1,27,-1
 100 200 l 1,28,-1
 100 500 l 1,29,-1
 50 500 l 1,30,-1
 50 600 l 1,31,-1
 100 600 l 1,24,-1
EndSplineSet
Validated: 5
EndChar

StartChar: threequarters
Encoding: 190 190 136
Width: 600
GlyphClass: 2
Flags: W
LayerCount: 2
Back
Fore
SplineSet
400 200 m 1,0,-1
 400 300 l 1,1,-1
 500 300 l 1,2,-1
 500 200 l 1,3,-1
 450 200 l 1,4,-1
 450 100 l 1,5,-1
 400 100 l 1,6,-1
 400 0 l 1,7,-1
 500 0 l 1,8,-1
 500 100 l 1,9,-1
 600 100 l 1,10,-1
 600 -200 l 1,11,-1
 500 -200 l 1,12,-1
 500 -100 l 1,13,-1
 300 -100 l 1,14,-1
 300 100 l 1,15,-1
 350 100 l 1,16,-1
 350 200 l 1,17,-1
 400 200 l 1,0,-1
50 600 m 1,18,-1
 50 700 l 1,19,-1
 300 700 l 1,20,-1
 300 500 l 1,21,-1
 250 500 l 1,22,-1
 250 400 l 1,23,-1
 300 400 l 1,24,-1
 300 300 l 1,25,-1
 250 300 l 1,26,-1
 250 200 l 1,27,-1
 50 200 l 1,28,-1
 50 300 l 1,29,-1
 200 300 l 1,30,-1
 200 400 l 1,31,-1
 100 400 l 1,32,-1
 100 500 l 1,33,-1
 200 500 l 1,34,-1
 200 600 l 1,35,-1
 50 600 l 1,18,-1
EndSplineSet
Validated: 1
EndChar

StartChar: questiondown
Encoding: 191 191 137
Width: 600
GlyphClass: 2
Flags: W
LayerCount: 2
Back
Fore
SplineSet
250 600 m 1,0,-1
 250 700 l 1,1,-1
 350 700 l 1,2,-1
 350 600 l 1,3,-1
 250 600 l 1,0,-1
150 0 m 1,4,-1
 150 100 l 1,5,-1
 100 100 l 1,6,-1
 100 300 l 1,7,-1
 150 300 l 1,8,-1
 150 400 l 1,9,-1
 250 400 l 1,10,-1
 250 500 l 1,11,-1
 350 500 l 1,12,-1
 350 400 l 1,13,-1
 250 400 l 1,14,-1
 250 300 l 1,15,-1
 200 300 l 1,16,-1
 200 100 l 1,17,-1
 450 100 l 1,18,-1
 450 300 l 1,19,-1
 550 300 l 1,20,-1
 550 100 l 1,21,-1
 500 100 l 1,22,-1
 500 0 l 1,23,-1
 150 0 l 1,4,-1
EndSplineSet
Validated: 5
EndChar

StartChar: Agrave
Encoding: 192 192 138
Width: 600
GlyphClass: 2
Flags: W
LayerCount: 2
Back
Fore
SplineSet
350 700 m 1,0,-1
 350 800 l 1,1,-1
 450 800 l 1,2,-1
 450 700 l 1,3,-1
 350 700 l 1,0,-1
150 700 m 1,4,-1
 150 800 l 1,5,-1
 250 800 l 1,6,-1
 250 700 l 1,7,-1
 150 700 l 1,4,-1
150 300 m 1,8,-1
 450 300 l 1,9,-1
 450 400 l 1,10,-1
 400 400 l 1,11,-1
 399 500 l 1,12,-1
 200 500 l 1,13,-1
 199 400 l 1,14,-1
 150 400 l 1,15,-1
 150 300 l 1,8,-1
50 0 m 1,16,-1
 50 400 l 1,17,-1
 100 400 l 1,18,-1
 100 500 l 1,19,-1
 150 500 l 1,20,-1
 150 600 l 1,21,-1
 450 600 l 1,22,-1
 450 500 l 1,23,-1
 500 500 l 1,24,-1
 500 400 l 1,25,-1
 550 400 l 1,26,-1
 550 0 l 1,27,-1
 450 0 l 1,28,-1
 450 200 l 1,29,-1
 150 200 l 1,30,-1
 150 0 l 1,31,-1
 50 0 l 1,16,-1
EndSplineSet
Validated: 1
EndChar

StartChar: Aacute
Encoding: 193 193 139
Width: 600
GlyphClass: 2
Flags: W
LayerCount: 2
Back
Fore
SplineSet
350 700 m 1,0,-1
 350 800 l 1,1,-1
 450 800 l 1,2,-1
 450 700 l 1,3,-1
 350 700 l 1,0,-1
150 700 m 1,4,-1
 150 800 l 1,5,-1
 250 800 l 1,6,-1
 250 700 l 1,7,-1
 150 700 l 1,4,-1
150 300 m 1,8,-1
 450 300 l 1,9,-1
 450 400 l 1,10,-1
 400 400 l 1,11,-1
 399 500 l 1,12,-1
 200 500 l 1,13,-1
 199 400 l 1,14,-1
 150 400 l 1,15,-1
 150 300 l 1,8,-1
50 0 m 1,16,-1
 50 400 l 1,17,-1
 100 400 l 1,18,-1
 100 500 l 1,19,-1
 150 500 l 1,20,-1
 150 600 l 1,21,-1
 450 600 l 1,22,-1
 450 500 l 1,23,-1
 500 500 l 1,24,-1
 500 400 l 1,25,-1
 550 400 l 1,26,-1
 550 0 l 1,27,-1
 450 0 l 1,28,-1
 450 200 l 1,29,-1
 150 200 l 1,30,-1
 150 0 l 1,31,-1
 50 0 l 1,16,-1
EndSplineSet
Validated: 1
EndChar

StartChar: Acircumflex
Encoding: 194 194 140
Width: 600
GlyphClass: 2
Flags: W
LayerCount: 2
Back
Fore
SplineSet
250 600 m 1,0,-1
 350 600 l 1,1,-1
 350 700 l 1,2,-1
 250 700 l 1,3,-1
 250 600 l 1,0,-1
150 300 m 1,4,-1
 450 300 l 1,5,-1
 450 400 l 1,6,-1
 400 400 l 1,7,-1
 400 500 l 1,8,-1
 200 500 l 1,9,-1
 200 400 l 1,10,-1
 150 400 l 1,11,-1
 150 300 l 1,4,-1
450 500 m 1,12,-1
 500 500 l 1,13,-1
 500 400 l 1,14,-1
 550 400 l 1,15,-1
 550 0 l 1,16,-1
 450 0 l 1,17,-1
 450 200 l 1,18,-1
 150 200 l 1,19,-1
 150 0 l 1,20,-1
 50 0 l 1,21,-1
 50 400 l 1,22,-1
 100 400 l 1,23,-1
 100 500 l 1,24,-1
 150 500 l 1,25,-1
 150 800 l 1,26,-1
 450 800 l 1,27,-1
 450 500 l 1,12,-1
EndSplineSet
Validated: 1
EndChar

StartChar: Atilde
Encoding: 195 195 141
Width: 600
GlyphClass: 2
Flags: W
LayerCount: 2
Back
Fore
SplineSet
150 700 m 1,0,-1
 150 800 l 1,1,-1
 450 800 l 1,2,-1
 450 700 l 1,3,-1
 150 700 l 1,0,-1
150 300 m 1,4,-1
 450 300 l 1,5,-1
 450 400 l 1,6,-1
 400 400 l 1,7,-1
 400 500 l 1,8,-1
 200 500 l 1,9,-1
 200 400 l 1,10,-1
 150 400 l 1,11,-1
 150 300 l 1,4,-1
50 0 m 1,12,-1
 50 400 l 1,13,-1
 100 400 l 1,14,-1
 100 500 l 1,15,-1
 150 500 l 1,16,-1
 150 600 l 1,17,-1
 450 600 l 1,18,-1
 450 500 l 1,19,-1
 500 500 l 1,20,-1
 500 400 l 1,21,-1
 550 400 l 1,22,-1
 550 0 l 1,23,-1
 450 0 l 1,24,-1
 450 200 l 1,25,-1
 150 200 l 1,26,-1
 150 0 l 1,27,-1
 50 0 l 1,12,-1
EndSplineSet
Validated: 1
EndChar

StartChar: Adieresis
Encoding: 196 196 142
Width: 600
GlyphClass: 2
Flags: W
LayerCount: 2
Back
Fore
SplineSet
350 700 m 1,0,-1
 350 800 l 1,1,-1
 450 800 l 1,2,-1
 450 700 l 1,3,-1
 350 700 l 1,0,-1
150 700 m 1,4,-1
 150 800 l 1,5,-1
 250 800 l 1,6,-1
 250 700 l 1,7,-1
 150 700 l 1,4,-1
150 300 m 1,8,-1
 450 300 l 1,9,-1
 450 400 l 1,10,-1
 400 400 l 1,11,-1
 400 500 l 1,12,-1
 200 500 l 1,13,-1
 200 400 l 1,14,-1
 150 400 l 1,15,-1
 150 300 l 1,8,-1
50 0 m 1,16,-1
 50 400 l 1,17,-1
 100 400 l 1,18,-1
 100 500 l 1,19,-1
 150 500 l 1,20,-1
 150 600 l 1,21,-1
 450 600 l 1,22,-1
 450 500 l 1,23,-1
 500 500 l 1,24,-1
 500 400 l 1,25,-1
 550 400 l 1,26,-1
 550 0 l 1,27,-1
 450 0 l 1,28,-1
 450 200 l 1,29,-1
 150 200 l 1,30,-1
 150 0 l 1,31,-1
 50 0 l 1,16,-1
EndSplineSet
Validated: 1
EndChar

StartChar: Aring
Encoding: 197 197 143
Width: 600
GlyphClass: 2
Flags: W
LayerCount: 2
Back
Fore
SplineSet
350 600 m 1,0,-1
 350 700 l 1,1,-1
 250 700 l 1,2,-1
 250 600 l 1,3,-1
 350 600 l 1,0,-1
150 300 m 1,4,-1
 450 300 l 1,5,-1
 450 400 l 1,6,-1
 400 400 l 1,7,-1
 400 500 l 1,8,-1
 200 500 l 1,9,-1
 200 400 l 1,10,-1
 150 400 l 1,11,-1
 150 300 l 1,4,-1
450 500 m 1,12,-1
 500 500 l 1,13,-1
 500 400 l 1,14,-1
 550 400 l 1,15,-1
 550 0 l 1,16,-1
 450 0 l 1,17,-1
 450 200 l 1,18,-1
 150 200 l 1,19,-1
 150 0 l 1,20,-1
 50 0 l 1,21,-1
 50 400 l 1,22,-1
 100 400 l 1,23,-1
 100 500 l 1,24,-1
 150 500 l 1,25,-1
 150 700 l 1,26,-1
 200 700 l 1,27,-1
 200 800 l 1,28,-1
 400 800 l 1,29,-1
 400 700 l 1,30,-1
 450 700 l 1,31,-1
 450 500 l 1,12,-1
EndSplineSet
Validated: 1
EndChar

StartChar: AE
Encoding: 198 198 144
Width: 600
GlyphClass: 2
Flags: W
LayerCount: 2
Back
Fore
SplineSet
250 600 m 1,0,-1
 250 500 l 1,1,-1
 200 500 l 1,2,-1
 200 400 l 1,3,-1
 150 400 l 1,4,-1
 150 300 l 1,5,-1
 300 300 l 1,6,-1
 300 600 l 1,7,-1
 250 600 l 1,0,-1
150 200 m 1,8,-1
 150 0 l 1,9,-1
 50 0 l 1,10,-1
 50 400 l 1,11,-1
 100 400 l 1,12,-1
 100 500 l 1,13,-1
 150 500 l 1,14,-1
 150 600 l 1,15,-1
 200 600 l 1,16,-1
 200 700 l 1,17,-1
 550 700 l 1,18,-1
 550 600 l 1,19,-1
 400 600 l 1,20,-1
 400 400 l 1,21,-1
 550 400 l 1,22,-1
 550 300 l 1,23,-1
 400 300 l 1,24,-1
 400 100 l 1,25,-1
 550 100 l 1,26,-1
 550 0 l 1,27,-1
 300 0 l 1,28,-1
 300 200 l 1,29,-1
 150 200 l 1,8,-1
EndSplineSet
Validated: 1
EndChar

StartChar: Ccedilla
Encoding: 199 199 145
Width: 600
GlyphClass: 2
Flags: W
LayerCount: 2
Back
Fore
SplineSet
200 700 m 1,0,-1
 500 700 l 1,1,-1
 500 600 l 1,2,-1
 550 600 l 1,3,-1
 550 500 l 1,4,-1
 450 500 l 1,5,-1
 450 600 l 1,6,-1
 250 600 l 1,7,-1
 250 500 l 1,8,-1
 200 500 l 1,9,-1
 200 200 l 1,10,-1
 250 200 l 1,11,-1
 250 100 l 1,12,-1
 450 100 l 1,13,-1
 450 200 l 1,14,-1
 550 200 l 1,15,-1
 550 100 l 1,16,-1
 500 100 l 1,17,-1
 500 0 l 1,18,-1
 200 0 l 1,19,-1
 200 100 l 1,20,-1
 150 100 l 1,21,-1
 150 200 l 1,22,-1
 100 200 l 1,23,-1
 100 500 l 1,24,-1
 150 500 l 1,25,-1
 150 600 l 1,26,-1
 200 600 l 1,27,-1
 200 700 l 1,0,-1
EndSplineSet
Validated: 1
EndChar

StartChar: Egrave
Encoding: 200 200 146
Width: 600
GlyphClass: 2
Flags: W
LayerCount: 2
Back
Fore
SplineSet
400 700 m 1,0,-1
 400 800 l 1,1,-1
 500 800 l 1,2,-1
 500 700 l 1,3,-1
 400 700 l 1,0,-1
150 700 m 1,4,-1
 150 800 l 1,5,-1
 250 800 l 1,6,-1
 250 700 l 1,7,-1
 150 700 l 1,4,-1
550 500 m 1,8,-1
 200 500 l 1,9,-1
 200 400 l 1,10,-1
 450 400 l 1,11,-1
 450 300 l 1,12,-1
 200 300 l 1,13,-1
 200 100 l 1,14,-1
 550 100 l 1,15,-1
 550 0 l 1,16,-1
 100 0 l 1,17,-1
 100 600 l 1,18,-1
 550 600 l 1,19,-1
 550 500 l 1,8,-1
EndSplineSet
Validated: 1
EndChar

StartChar: Eacute
Encoding: 201 201 147
Width: 600
GlyphClass: 2
Flags: W
LayerCount: 2
Back
Fore
SplineSet
400 700 m 1,0,-1
 400 800 l 1,1,-1
 500 800 l 1,2,-1
 500 700 l 1,3,-1
 400 700 l 1,0,-1
150 700 m 1,4,-1
 150 800 l 1,5,-1
 250 800 l 1,6,-1
 250 700 l 1,7,-1
 150 700 l 1,4,-1
550 500 m 1,8,-1
 200 500 l 1,9,-1
 200 400 l 1,10,-1
 450 400 l 1,11,-1
 450 300 l 1,12,-1
 200 300 l 1,13,-1
 200 100 l 1,14,-1
 550 100 l 1,15,-1
 550 0 l 1,16,-1
 100 0 l 1,17,-1
 100 600 l 1,18,-1
 550 600 l 1,19,-1
 550 500 l 1,8,-1
EndSplineSet
Validated: 1
EndChar

StartChar: Ecircumflex
Encoding: 202 202 148
Width: 600
GlyphClass: 2
Flags: W
LayerCount: 2
Back
Fore
SplineSet
400 700 m 1,0,-1
 400 800 l 1,1,-1
 500 800 l 1,2,-1
 500 700 l 1,3,-1
 400 700 l 1,0,-1
150 700 m 1,4,-1
 150 800 l 1,5,-1
 250 800 l 1,6,-1
 250 700 l 1,7,-1
 150 700 l 1,4,-1
550 500 m 1,8,-1
 200 500 l 1,9,-1
 200 400 l 1,10,-1
 450 400 l 1,11,-1
 450 300 l 1,12,-1
 200 300 l 1,13,-1
 200 100 l 1,14,-1
 550 100 l 1,15,-1
 550 0 l 1,16,-1
 100 0 l 1,17,-1
 100 600 l 1,18,-1
 550 600 l 1,19,-1
 550 500 l 1,8,-1
EndSplineSet
Validated: 1
EndChar

StartChar: Edieresis
Encoding: 203 203 149
Width: 600
GlyphClass: 2
Flags: W
LayerCount: 2
Back
Fore
SplineSet
400 700 m 1,0,-1
 400 800 l 1,1,-1
 500 800 l 1,2,-1
 500 700 l 1,3,-1
 400 700 l 1,0,-1
150 700 m 1,4,-1
 150 800 l 1,5,-1
 250 800 l 1,6,-1
 250 700 l 1,7,-1
 150 700 l 1,4,-1
550 500 m 1,8,-1
 200 500 l 1,9,-1
 200 400 l 1,10,-1
 450 400 l 1,11,-1
 450 300 l 1,12,-1
 200 300 l 1,13,-1
 200 100 l 1,14,-1
 550 100 l 1,15,-1
 550 0 l 1,16,-1
 100 0 l 1,17,-1
 100 600 l 1,18,-1
 550 600 l 1,19,-1
 550 500 l 1,8,-1
EndSplineSet
Validated: 1
EndChar

StartChar: Igrave
Encoding: 204 204 150
Width: 600
GlyphClass: 2
Flags: W
LayerCount: 2
Back
Fore
SplineSet
100 700 m 1,0,-1
 500 700 l 1,1,-1
 500 600 l 1,2,-1
 350 600 l 1,3,-1
 350 100 l 1,4,-1
 500 100 l 1,5,-1
 500 0 l 1,6,-1
 100 0 l 1,7,-1
 100 100 l 1,8,-1
 250 100 l 1,9,-1
 250 600 l 1,10,-1
 100 600 l 1,11,-1
 100 700 l 1,0,-1
EndSplineSet
Validated: 1
EndChar

StartChar: Iacute
Encoding: 205 205 151
Width: 600
GlyphClass: 2
Flags: W
LayerCount: 2
Back
Fore
SplineSet
100 700 m 1,0,-1
 500 700 l 1,1,-1
 500 600 l 1,2,-1
 350 600 l 1,3,-1
 350 100 l 1,4,-1
 500 100 l 1,5,-1
 500 0 l 1,6,-1
 100 0 l 1,7,-1
 100 100 l 1,8,-1
 250 100 l 1,9,-1
 250 600 l 1,10,-1
 100 600 l 1,11,-1
 100 700 l 1,0,-1
EndSplineSet
Validated: 1
EndChar

StartChar: Icircumflex
Encoding: 206 206 152
Width: 600
GlyphClass: 2
Flags: W
LayerCount: 2
Back
Fore
SplineSet
100 700 m 1,0,-1
 500 700 l 1,1,-1
 500 600 l 1,2,-1
 350 600 l 1,3,-1
 350 100 l 1,4,-1
 500 100 l 1,5,-1
 500 0 l 1,6,-1
 100 0 l 1,7,-1
 100 100 l 1,8,-1
 250 100 l 1,9,-1
 250 600 l 1,10,-1
 100 600 l 1,11,-1
 100 700 l 1,0,-1
EndSplineSet
Validated: 1
EndChar

StartChar: Idieresis
Encoding: 207 207 153
Width: 600
GlyphClass: 2
Flags: W
LayerCount: 2
Back
Fore
SplineSet
100 700 m 1,0,-1
 500 700 l 1,1,-1
 500 600 l 1,2,-1
 350 600 l 1,3,-1
 350 100 l 1,4,-1
 500 100 l 1,5,-1
 500 0 l 1,6,-1
 100 0 l 1,7,-1
 100 100 l 1,8,-1
 250 100 l 1,9,-1
 250 600 l 1,10,-1
 100 600 l 1,11,-1
 100 700 l 1,0,-1
EndSplineSet
Validated: 1
EndChar

StartChar: Eth
Encoding: 208 208 154
Width: 600
GlyphClass: 2
Flags: W
LayerCount: 2
Back
Fore
SplineSet
200 600 m 1,0,-1
 200 100 l 1,1,-1
 400 100 l 1,2,-1
 400 200 l 1,3,-1
 450 200 l 1,4,-1
 450 500 l 1,5,-1
 400 500 l 1,6,-1
 400 600 l 1,7,-1
 200 600 l 1,0,-1
100 700 m 1,8,-1
 450 700 l 1,9,-1
 450 600 l 1,10,-1
 500 600 l 1,11,-1
 500 500 l 1,12,-1
 550 500 l 1,13,-1
 550 200 l 1,14,-1
 500 200 l 1,15,-1
 500 100 l 1,16,-1
 450 100 l 1,17,-1
 450 0 l 1,18,-1
 100 0 l 1,19,-1
 100 700 l 1,8,-1
EndSplineSet
Validated: 1
EndChar

StartChar: Ntilde
Encoding: 209 209 155
Width: 600
GlyphClass: 2
Flags: W
LayerCount: 2
Back
Fore
SplineSet
150 700 m 1,0,-1
 150 800 l 1,1,-1
 450 800 l 1,2,-1
 450 700 l 1,3,-1
 150 700 l 1,0,-1
50 0 m 1,4,-1
 50 600 l 1,5,-1
 250 600 l 1,6,-1
 250 500 l 1,7,-1
 300 500 l 1,8,-1
 300 400 l 1,9,-1
 350 400 l 1,10,-1
 350 200 l 1,11,-1
 400 200 l 1,12,-1
 400 100 l 1,13,-1
 450 100 l 1,14,-1
 450 600 l 1,15,-1
 550 600 l 1,16,-1
 550 0 l 1,17,-1
 350 0 l 1,18,-1
 350 100 l 1,19,-1
 300 100 l 1,20,-1
 300 200 l 1,21,-1
 250 200 l 1,22,-1
 250 400 l 1,23,-1
 200 400 l 1,24,-1
 200 500 l 1,25,-1
 150 500 l 1,26,-1
 150 0 l 1,27,-1
 50 0 l 1,4,-1
EndSplineSet
Validated: 1
EndChar

StartChar: Ograve
Encoding: 210 210 156
Width: 600
GlyphClass: 2
Flags: W
LayerCount: 2
Back
Fore
SplineSet
200 500 m 1,0,-1
 200 400 l 1,1,-1
 150 400 l 1,2,-1
 150 200 l 1,3,-1
 200 200 l 1,4,-1
 200 100 l 1,5,-1
 400 100 l 1,6,-1
 400 200 l 1,7,-1
 450 200 l 1,8,-1
 450 400 l 1,9,-1
 400 400 l 1,10,-1
 400 500 l 1,11,-1
 200 500 l 1,0,-1
450 500 m 1,12,-1
 500 500 l 1,13,-1
 500 400 l 1,14,-1
 550 400 l 1,15,-1
 550 200 l 1,16,-1
 500 200 l 1,17,-1
 500 100 l 1,18,-1
 450 100 l 1,19,-1
 450 0 l 1,20,-1
 150 0 l 1,21,-1
 150 100 l 1,22,-1
 100 100 l 1,23,-1
 100 200 l 1,24,-1
 50 200 l 1,25,-1
 50 400 l 1,26,-1
 100 400 l 1,27,-1
 100 500 l 1,28,-1
 150 500 l 1,29,-1
 150 600 l 1,30,-1
 250 600 l 1,31,-1
 250 700 l 1,32,-1
 200 700 l 1,33,-1
 200 800 l 1,34,-1
 300 800 l 1,35,-1
 300 700 l 1,36,-1
 350 700 l 1,37,-1
 350 600 l 1,38,-1
 450 600 l 1,39,-1
 450 500 l 1,12,-1
EndSplineSet
Validated: 1
EndChar

StartChar: Oacute
Encoding: 211 211 157
Width: 600
GlyphClass: 2
Flags: W
LayerCount: 2
Back
Fore
SplineSet
200 500 m 1,0,-1
 200 400 l 1,1,-1
 150 400 l 1,2,-1
 150 200 l 1,3,-1
 200 200 l 1,4,-1
 200 100 l 1,5,-1
 400 100 l 1,6,-1
 400 200 l 1,7,-1
 450 200 l 1,8,-1
 450 400 l 1,9,-1
 400 400 l 1,10,-1
 400 500 l 1,11,-1
 200 500 l 1,0,-1
450 500 m 1,12,-1
 500 500 l 1,13,-1
 500 400 l 1,14,-1
 550 400 l 1,15,-1
 550 200 l 1,16,-1
 500 200 l 1,17,-1
 500 100 l 1,18,-1
 450 100 l 1,19,-1
 450 0 l 1,20,-1
 150 0 l 1,21,-1
 150 100 l 1,22,-1
 100 100 l 1,23,-1
 100 200 l 1,24,-1
 50 200 l 1,25,-1
 50 400 l 1,26,-1
 100 400 l 1,27,-1
 100 500 l 1,28,-1
 150 500 l 1,29,-1
 150 600 l 1,30,-1
 250 600 l 1,31,-1
 250 700 l 1,32,-1
 300 700 l 1,33,-1
 300 800 l 1,34,-1
 400 800 l 1,35,-1
 400 700 l 1,36,-1
 350 700 l 1,37,-1
 350 600 l 1,38,-1
 450 600 l 1,39,-1
 450 500 l 1,12,-1
EndSplineSet
Validated: 1
EndChar

StartChar: Ocircumflex
Encoding: 212 212 158
Width: 600
GlyphClass: 2
Flags: W
LayerCount: 2
Back
Fore
SplineSet
200 500 m 1,0,-1
 200 400 l 1,1,-1
 150 400 l 1,2,-1
 150 200 l 1,3,-1
 200 200 l 1,4,-1
 200 100 l 1,5,-1
 400 100 l 1,6,-1
 400 200 l 1,7,-1
 450 200 l 1,8,-1
 450 400 l 1,9,-1
 400 400 l 1,10,-1
 400 500 l 1,11,-1
 200 500 l 1,0,-1
150 600 m 1,12,-1
 450 600 l 1,13,-1
 450 500 l 1,14,-1
 500 500 l 1,15,-1
 500 400 l 1,16,-1
 550 400 l 1,17,-1
 550 200 l 1,18,-1
 500 200 l 1,19,-1
 500 100 l 1,20,-1
 450 100 l 1,21,-1
 450 0 l 1,22,-1
 150 0 l 1,23,-1
 150 100 l 1,24,-1
 100 100 l 1,25,-1
 100 200 l 1,26,-1
 50 200 l 1,27,-1
 50 400 l 1,28,-1
 100 400 l 1,29,-1
 100 500 l 1,30,-1
 150 500 l 1,31,-1
 150 600 l 1,12,-1
250 700 m 1,32,-1
 250 800 l 1,33,-1
 350 800 l 1,34,-1
 350 700 l 1,35,-1
 250 700 l 1,32,-1
EndSplineSet
Validated: 1
EndChar

StartChar: Otilde
Encoding: 213 213 159
Width: 600
GlyphClass: 2
Flags: W
LayerCount: 2
Back
Fore
SplineSet
200 500 m 1,0,-1
 200 400 l 1,1,-1
 150 400 l 1,2,-1
 150 200 l 1,3,-1
 200 200 l 1,4,-1
 200 100 l 1,5,-1
 400 100 l 1,6,-1
 400 200 l 1,7,-1
 450 200 l 1,8,-1
 450 400 l 1,9,-1
 400 400 l 1,10,-1
 400 500 l 1,11,-1
 200 500 l 1,0,-1
150 600 m 1,12,-1
 450 600 l 1,13,-1
 450 500 l 1,14,-1
 500 500 l 1,15,-1
 500 400 l 1,16,-1
 550 400 l 1,17,-1
 550 200 l 1,18,-1
 500 200 l 1,19,-1
 500 100 l 1,20,-1
 450 100 l 1,21,-1
 450 0 l 1,22,-1
 150 0 l 1,23,-1
 150 100 l 1,24,-1
 100 100 l 1,25,-1
 100 200 l 1,26,-1
 50 200 l 1,27,-1
 50 400 l 1,28,-1
 100 400 l 1,29,-1
 100 500 l 1,30,-1
 150 500 l 1,31,-1
 150 600 l 1,12,-1
150 700 m 1,32,-1
 150 800 l 1,33,-1
 450 800 l 1,34,-1
 450 700 l 1,35,-1
 150 700 l 1,32,-1
EndSplineSet
Validated: 1
EndChar

StartChar: Odieresis
Encoding: 214 214 160
Width: 600
GlyphClass: 2
Flags: W
LayerCount: 2
Back
Fore
SplineSet
200 500 m 1,0,-1
 200 400 l 1,1,-1
 150 400 l 1,2,-1
 150 200 l 1,3,-1
 200 200 l 1,4,-1
 200 100 l 1,5,-1
 400 100 l 1,6,-1
 400 200 l 1,7,-1
 450 200 l 1,8,-1
 450 400 l 1,9,-1
 400 400 l 1,10,-1
 400 500 l 1,11,-1
 200 500 l 1,0,-1
150 600 m 1,12,-1
 450 600 l 1,13,-1
 450 500 l 1,14,-1
 500 500 l 1,15,-1
 500 400 l 1,16,-1
 550 400 l 1,17,-1
 550 200 l 1,18,-1
 500 200 l 1,19,-1
 500 100 l 1,20,-1
 450 100 l 1,21,-1
 450 0 l 1,22,-1
 150 0 l 1,23,-1
 150 100 l 1,24,-1
 100 100 l 1,25,-1
 100 200 l 1,26,-1
 50 200 l 1,27,-1
 50 400 l 1,28,-1
 100 400 l 1,29,-1
 100 500 l 1,30,-1
 150 500 l 1,31,-1
 150 600 l 1,12,-1
350 700 m 1,32,-1
 350 800 l 1,33,-1
 450 800 l 1,34,-1
 450 700 l 1,35,-1
 350 700 l 1,32,-1
150 700 m 1,36,-1
 150 800 l 1,37,-1
 250 800 l 1,38,-1
 250 700 l 1,39,-1
 150 700 l 1,36,-1
EndSplineSet
Validated: 1
EndChar

StartChar: multiply
Encoding: 215 215 161
Width: 600
GlyphClass: 2
Flags: W
LayerCount: 2
Back
Fore
SplineSet
150 200 m 1,0,-1
 150 300 l 1,1,-1
 250 300 l 1,2,-1
 250 400 l 1,3,-1
 150 400 l 1,4,-1
 150 500 l 1,5,-1
 250 500 l 1,6,-1
 250 400 l 1,7,-1
 350 400 l 1,8,-1
 350 500 l 1,9,-1
 450 500 l 1,10,-1
 450 400 l 1,11,-1
 350 400 l 1,12,-1
 350 300 l 1,13,-1
 450 300 l 1,14,-1
 450 200 l 1,15,-1
 350 200 l 1,16,-1
 350 300 l 1,17,-1
 250 300 l 1,18,-1
 250 200 l 1,19,-1
 150 200 l 1,0,-1
EndSplineSet
Validated: 5
EndChar

StartChar: Oslash
Encoding: 216 216 162
Width: 600
GlyphClass: 2
Flags: W
LayerCount: 2
Back
Fore
SplineSet
400 100 m 1,0,-1
 400 200 l 1,1,-1
 450 200 l 1,2,-1
 450 500 l 1,3,-1
 400 500 l 1,4,-1
 400 600 l 1,5,-1
 200 600 l 1,6,-1
 200 500 l 1,7,-1
 150 500 l 1,8,-1
 150 200 l 1,9,-1
 200 200 l 1,10,-1
 200 100 l 1,11,-1
 400 100 l 1,0,-1
450 0 m 1,12,-1
 150 0 l 1,13,-1
 150 100 l 1,14,-1
 100 100 l 1,15,-1
 100 200 l 1,16,-1
 50 200 l 1,17,-1
 50 500 l 1,18,-1
 100 500 l 1,19,-1
 100 600 l 1,20,-1
 150 600 l 1,21,-1
 150 700 l 1,22,-1
 450 700 l 1,23,-1
 450 600 l 1,24,-1
 500 600 l 1,25,-1
 500 500 l 1,26,-1
 550 500 l 1,27,-1
 550 200 l 1,28,-1
 500 200 l 1,29,-1
 500 100 l 1,30,-1
 450 100 l 1,31,-1
 450 0 l 1,12,-1
EndSplineSet
Validated: 1
EndChar

StartChar: Ugrave
Encoding: 217 217 163
Width: 600
GlyphClass: 2
Flags: W
LayerCount: 2
Back
Fore
SplineSet
300 600 m 1,0,-1
 300 700 l 1,1,-1
 250 700 l 1,2,-1
 250 800 l 1,3,-1
 350 800 l 1,4,-1
 350 700 l 1,5,-1
 400 700 l 1,6,-1
 400 600 l 1,7,-1
 300 600 l 1,0,-1
100 600 m 1,8,-1
 200 600 l 1,9,-1
 200 100 l 1,10,-1
 450 100 l 1,11,-1
 450 600 l 1,12,-1
 550 600 l 1,13,-1
 550 100 l 1,14,-1
 500 100 l 1,15,-1
 500 0 l 1,16,-1
 150 0 l 1,17,-1
 150 100 l 1,18,-1
 100 100 l 1,19,-1
 100 600 l 1,8,-1
EndSplineSet
Validated: 1
EndChar

StartChar: Uacute
Encoding: 218 218 164
Width: 600
GlyphClass: 2
Flags: W
LayerCount: 2
Back
Fore
SplineSet
100 600 m 1,0,-1
 200 600 l 1,1,-1
 200 100 l 1,2,-1
 450 100 l 1,3,-1
 450 600 l 1,4,-1
 550 600 l 1,5,-1
 550 100 l 1,6,-1
 500 100 l 1,7,-1
 500 0 l 1,8,-1
 150 0 l 1,9,-1
 150 100 l 1,10,-1
 100 100 l 1,11,-1
 100 600 l 1,0,-1
EndSplineSet
Validated: 1
EndChar

StartChar: Ucircumflex
Encoding: 219 219 165
Width: 600
GlyphClass: 2
Flags: W
LayerCount: 2
Back
Fore
SplineSet
400 800 m 1,0,-1
 500 800 l 1,1,-1
 500 700 l 1,2,-1
 400 700 l 1,3,-1
 400 800 l 1,0,-1
150 700 m 1,4,-1
 150 800 l 1,5,-1
 250 800 l 1,6,-1
 250 700 l 1,7,-1
 150 700 l 1,4,-1
100 600 m 1,8,-1
 200 600 l 1,9,-1
 200 100 l 1,10,-1
 450 100 l 1,11,-1
 450 600 l 1,12,-1
 550 600 l 1,13,-1
 550 100 l 1,14,-1
 500 100 l 1,15,-1
 500 0 l 1,16,-1
 150 0 l 1,17,-1
 150 100 l 1,18,-1
 100 100 l 1,19,-1
 100 600 l 1,8,-1
EndSplineSet
Validated: 1
EndChar

StartChar: Udieresis
Encoding: 220 220 166
Width: 600
GlyphClass: 2
Flags: W
LayerCount: 2
Back
Fore
SplineSet
400 800 m 1,0,-1
 500 800 l 1,1,-1
 500 700 l 1,2,-1
 400 700 l 1,3,-1
 400 800 l 1,0,-1
150 700 m 1,4,-1
 150 800 l 1,5,-1
 250 800 l 1,6,-1
 250 700 l 1,7,-1
 150 700 l 1,4,-1
100 600 m 1,8,-1
 200 600 l 1,9,-1
 200 100 l 1,10,-1
 450 100 l 1,11,-1
 450 600 l 1,12,-1
 550 600 l 1,13,-1
 550 100 l 1,14,-1
 500 100 l 1,15,-1
 500 0 l 1,16,-1
 150 0 l 1,17,-1
 150 100 l 1,18,-1
 100 100 l 1,19,-1
 100 600 l 1,8,-1
EndSplineSet
Validated: 1
EndChar

StartChar: germandbls
Encoding: 223 223 167
Width: 600
GlyphClass: 2
Flags: W
LayerCount: 2
Back
Fore
SplineSet
200 600 m 1,0,-1
 200 700 l 1,1,-1
 450 700 l 1,2,-1
 450 600 l 1,3,-1
 500 600 l 1,4,-1
 500 400 l 1,5,-1
 450 400 l 1,6,-1
 450 300 l 1,7,-1
 550 300 l 1,8,-1
 550 100 l 1,9,-1
 500 100 l 1,10,-1
 500 0 l 1,11,-1
 250 0 l 1,12,-1
 250 100 l 1,13,-1
 450 100 l 1,14,-1
 450 300 l 1,15,-1
 300 300 l 1,16,-1
 300 400 l 1,17,-1
 400 400 l 1,18,-1
 400 600 l 1,19,-1
 250 600 l 1,20,-1
 250 500 l 1,21,-1
 200 500 l 1,22,-1
 200 0 l 1,23,-1
 100 0 l 1,24,-1
 100 500 l 1,25,-1
 150 500 l 1,26,-1
 150 600 l 1,27,-1
 200 600 l 1,0,-1
EndSplineSet
Validated: 5
EndChar

StartChar: agrave
Encoding: 224 224 168
Width: 600
GlyphClass: 2
Flags: W
LayerCount: 2
Back
Fore
SplineSet
250 600 m 1,0,-1
 250 700 l 1,1,-1
 200 700 l 1,2,-1
 200 800 l 1,3,-1
 300 800 l 1,4,-1
 300 700 l 1,5,-1
 350 700 l 1,6,-1
 350 600 l 1,7,-1
 250 600 l 1,0,-1
150 200 m 1,8,-1
 150 100 l 1,9,-1
 400 100 l 1,10,-1
 400 200 l 1,11,-1
 150 200 l 1,8,-1
100 500 m 1,12,-1
 450 500 l 1,13,-1
 450 400 l 1,14,-1
 500 400 l 1,15,-1
 500 100 l 1,16,-1
 549 100 l 1,17,-1
 550 0 l 1,18,-1
 100 0 l 1,19,-1
 100 100 l 1,20,-1
 50 100 l 1,21,-1
 50 200 l 1,22,-1
 100 200 l 1,23,-1
 100 300 l 1,24,-1
 400 300 l 1,25,-1
 400 400 l 1,26,-1
 100 400 l 1,27,-1
 100 500 l 1,12,-1
EndSplineSet
Validated: 1
EndChar

StartChar: aacute
Encoding: 225 225 169
Width: 600
GlyphClass: 2
Flags: W
LayerCount: 2
Back
Fore
SplineSet
200 600 m 1,0,-1
 200 700 l 1,1,-1
 250 700 l 1,2,-1
 250 800 l 1,3,-1
 350 800 l 1,4,-1
 350 700 l 1,5,-1
 300 700 l 1,6,-1
 300 600 l 1,7,-1
 200 600 l 1,0,-1
150 200 m 1,8,-1
 150 100 l 1,9,-1
 400 100 l 1,10,-1
 400 200 l 1,11,-1
 150 200 l 1,8,-1
100 500 m 1,12,-1
 450 500 l 1,13,-1
 450 400 l 1,14,-1
 500 400 l 1,15,-1
 500 100 l 1,16,-1
 549 100 l 1,17,-1
 550 0 l 1,18,-1
 100 0 l 1,19,-1
 100 100 l 1,20,-1
 50 100 l 1,21,-1
 50 200 l 1,22,-1
 100 200 l 1,23,-1
 100 300 l 1,24,-1
 400 300 l 1,25,-1
 400 400 l 1,26,-1
 100 400 l 1,27,-1
 100 500 l 1,12,-1
EndSplineSet
Validated: 1
EndChar

StartChar: acircumflex
Encoding: 226 226 170
Width: 600
GlyphClass: 2
Flags: W
LayerCount: 2
Back
Fore
SplineSet
150 600 m 1,0,-1
 150 700 l 1,1,-1
 200 700 l 1,2,-1
 200 800 l 1,3,-1
 350 800 l 1,4,-1
 350 700 l 1,5,-1
 400 700 l 1,6,-1
 400 600 l 1,7,-1
 300 600 l 1,8,-1
 300 700 l 1,9,-1
 250 700 l 1,10,-1
 250 600 l 1,11,-1
 150 600 l 1,0,-1
150 200 m 1,12,-1
 150 100 l 1,13,-1
 400 100 l 1,14,-1
 400 200 l 1,15,-1
 150 200 l 1,12,-1
100 500 m 1,16,-1
 450 500 l 1,17,-1
 450 400 l 1,18,-1
 500 400 l 1,19,-1
 500 100 l 1,20,-1
 549 100 l 1,21,-1
 550 0 l 1,22,-1
 100 0 l 1,23,-1
 100 100 l 1,24,-1
 50 100 l 1,25,-1
 50 200 l 1,26,-1
 100 200 l 1,27,-1
 100 300 l 1,28,-1
 400 300 l 1,29,-1
 400 400 l 1,30,-1
 100 400 l 1,31,-1
 100 500 l 1,16,-1
EndSplineSet
Validated: 1
EndChar

StartChar: atilde
Encoding: 227 227 171
Width: 600
GlyphClass: 2
Flags: W
LayerCount: 2
Back
Fore
SplineSet
100 600 m 1,0,-1
 100 700 l 1,1,-1
 150 700 l 1,2,-1
 150 800 l 1,3,-1
 300 800 l 1,4,-1
 300 700 l 1,5,-1
 350 700 l 1,6,-1
 350 800 l 1,7,-1
 450 800 l 1,8,-1
 450 700 l 1,9,-1
 400 700 l 1,10,-1
 400 600 l 1,11,-1
 250 600 l 1,12,-1
 250 700 l 1,13,-1
 200 700 l 1,14,-1
 200 600 l 1,15,-1
 100 600 l 1,0,-1
150 200 m 1,16,-1
 150 100 l 1,17,-1
 400 100 l 1,18,-1
 400 200 l 1,19,-1
 150 200 l 1,16,-1
100 500 m 1,20,-1
 450 500 l 1,21,-1
 450 400 l 1,22,-1
 500 400 l 1,23,-1
 500 100 l 1,24,-1
 549 100 l 1,25,-1
 550 0 l 1,26,-1
 100 0 l 1,27,-1
 100 100 l 1,28,-1
 50 100 l 1,29,-1
 50 200 l 1,30,-1
 100 200 l 1,31,-1
 100 300 l 1,32,-1
 400 300 l 1,33,-1
 400 400 l 1,34,-1
 100 400 l 1,35,-1
 100 500 l 1,20,-1
EndSplineSet
Validated: 1
EndChar

StartChar: adieresis
Encoding: 228 228 172
Width: 600
GlyphClass: 2
Flags: W
LayerCount: 2
Back
Fore
SplineSet
350 600 m 1,0,-1
 350 700 l 1,1,-1
 450 700 l 1,2,-1
 450 600 l 1,3,-1
 350 600 l 1,0,-1
150 600 m 1,4,-1
 150 700 l 1,5,-1
 250 700 l 1,6,-1
 250 600 l 1,7,-1
 150 600 l 1,4,-1
150 200 m 1,8,-1
 150 100 l 1,9,-1
 400 100 l 1,10,-1
 400 200 l 1,11,-1
 150 200 l 1,8,-1
100 500 m 1,12,-1
 450 500 l 1,13,-1
 450 400 l 1,14,-1
 500 400 l 1,15,-1
 500 100 l 1,16,-1
 549 100 l 1,17,-1
 550 0 l 1,18,-1
 100 0 l 1,19,-1
 100 100 l 1,20,-1
 50 100 l 1,21,-1
 50 200 l 1,22,-1
 100 200 l 1,23,-1
 100 300 l 1,24,-1
 400 300 l 1,25,-1
 400 400 l 1,26,-1
 100 400 l 1,27,-1
 100 500 l 1,12,-1
EndSplineSet
Validated: 1
EndChar

StartChar: aring
Encoding: 229 229 173
Width: 600
GlyphClass: 2
Flags: W
LayerCount: 2
Back
Fore
SplineSet
350 600 m 1,0,-1
 350 700 l 1,1,-1
 450 700 l 1,2,-1
 450 600 l 1,3,-1
 350 600 l 1,0,-1
150 600 m 1,4,-1
 150 700 l 1,5,-1
 250 700 l 1,6,-1
 250 600 l 1,7,-1
 150 600 l 1,4,-1
150 200 m 1,8,-1
 150 100 l 1,9,-1
 400 100 l 1,10,-1
 400 200 l 1,11,-1
 150 200 l 1,8,-1
100 500 m 1,12,-1
 450 500 l 1,13,-1
 450 400 l 1,14,-1
 500 400 l 1,15,-1
 500 100 l 1,16,-1
 549 100 l 1,17,-1
 550 0 l 1,18,-1
 100 0 l 1,19,-1
 100 100 l 1,20,-1
 50 100 l 1,21,-1
 50 200 l 1,22,-1
 100 200 l 1,23,-1
 100 300 l 1,24,-1
 400 300 l 1,25,-1
 400 400 l 1,26,-1
 100 400 l 1,27,-1
 100 500 l 1,12,-1
EndSplineSet
Validated: 1
EndChar

StartChar: ae
Encoding: 230 230 174
Width: 600
GlyphClass: 2
Flags: W
LayerCount: 2
Back
Fore
SplineSet
400 300 m 1,0,-1
 500 300 l 1,1,-1
 500 400 l 1,2,-1
 400 400 l 1,3,-1
 400 300 l 1,0,-1
150 100 m 1,4,-1
 250 100 l 1,5,-1
 250 200 l 1,6,-1
 150 200 l 1,7,-1
 150 100 l 1,4,-1
100 0 m 1,8,-1
 100 100 l 1,9,-1
 50 100 l 1,10,-1
 50 200 l 1,11,-1
 100 200 l 1,12,-1
 100 300 l 1,13,-1
 250 300 l 1,14,-1
 250 400 l 1,15,-1
 100 400 l 1,16,-1
 100 500 l 1,17,-1
 300 500 l 1,18,-1
 300 400 l 1,19,-1
 400 400 l 1,20,-1
 400 500 l 1,21,-1
 550 500 l 1,22,-1
 550 400 l 1,23,-1
 600 400 l 1,24,-1
 600 200 l 1,25,-1
 400 200 l 1,26,-1
 400 100 l 1,27,-1
 600 100 l 1,28,-1
 600 0 l 1,29,-1
 350 0 l 1,30,-1
 350 100 l 1,31,-1
 300 100 l 1,32,-1
 300 0 l 1,33,-1
 100 0 l 1,8,-1
EndSplineSet
Validated: 5
EndChar

StartChar: ccedilla
Encoding: 231 231 175
Width: 600
GlyphClass: 2
Flags: W
LayerCount: 2
Back
Fore
SplineSet
200 100 m 1,0,-1
 150 100 l 1,1,-1
 150 200 l 1,2,-1
 100 200 l 1,3,-1
 100 300 l 1,4,-1
 150 300 l 1,5,-1
 150 400 l 1,6,-1
 200 400 l 1,7,-1
 200 500 l 1,8,-1
 550 500 l 1,9,-1
 550 400 l 1,10,-1
 250 400 l 1,11,-1
 250 300 l 1,12,-1
 200 300 l 1,13,-1
 200 200 l 1,14,-1
 250 200 l 1,15,-1
 250 100 l 1,16,-1
 550 100 l 1,17,-1
 550 0 l 1,18,-1
 400 0 l 1,19,-1
 400 -100 l 1,20,-1
 500 -100 l 1,21,-1
 500 -200 l 1,22,-1
 350 -200 l 1,23,-1
 350 -100 l 1,24,-1
 300 -100 l 1,25,-1
 300 0 l 1,26,-1
 200 0 l 1,27,-1
 200 100 l 1,0,-1
EndSplineSet
Validated: 1
EndChar

StartChar: egrave
Encoding: 232 232 176
Width: 600
GlyphClass: 2
Flags: W
LayerCount: 2
Back
Fore
SplineSet
200 400 m 1,0,-1
 200 300 l 1,1,-1
 450 300 l 1,2,-1
 450 400 l 1,3,-1
 200 400 l 1,0,-1
150 400 m 1,4,-1
 150 500 l 1,5,-1
 499 500 l 1,6,-1
 500 400 l 1,7,-1
 550 400 l 1,8,-1
 550 200 l 1,9,-1
 200 200 l 1,10,-1
 200 100 l 1,11,-1
 500 100 l 1,12,-1
 500 0 l 1,13,-1
 150 0 l 1,14,-1
 150 100 l 1,15,-1
 100 100 l 1,16,-1
 100 400 l 1,17,-1
 150 400 l 1,4,-1
EndSplineSet
Validated: 1
EndChar

StartChar: eacute
Encoding: 233 233 177
Width: 600
GlyphClass: 2
Flags: W
LayerCount: 2
Back
Fore
SplineSet
250 600 m 1,0,-1
 250 700 l 1,1,-1
 300 700 l 1,2,-1
 300 800 l 1,3,-1
 400 800 l 1,4,-1
 400 700 l 1,5,-1
 350 700 l 1,6,-1
 350 600 l 1,7,-1
 250 600 l 1,0,-1
200 400 m 1,8,-1
 200 300 l 1,9,-1
 450 300 l 1,10,-1
 450 400 l 1,11,-1
 200 400 l 1,8,-1
150 400 m 1,12,-1
 150 500 l 1,13,-1
 499 500 l 1,14,-1
 500 400 l 1,15,-1
 550 400 l 1,16,-1
 550 200 l 1,17,-1
 200 200 l 1,18,-1
 200 100 l 1,19,-1
 500 100 l 1,20,-1
 500 0 l 1,21,-1
 150 0 l 1,22,-1
 150 100 l 1,23,-1
 100 100 l 1,24,-1
 100 400 l 1,25,-1
 150 400 l 1,12,-1
EndSplineSet
Validated: 1
EndChar

StartChar: ecircumflex
Encoding: 234 234 178
Width: 600
GlyphClass: 2
Flags: W
LayerCount: 2
Back
Fore
SplineSet
200 600 m 1,0,-1
 200 700 l 1,1,-1
 250 700 l 1,2,-1
 250 800 l 1,3,-1
 400 800 l 1,4,-1
 400 700 l 1,5,-1
 450 700 l 1,6,-1
 450 600 l 1,7,-1
 350 600 l 1,8,-1
 350 700 l 1,9,-1
 300 700 l 1,10,-1
 300 600 l 1,11,-1
 200 600 l 1,0,-1
200 400 m 1,12,-1
 200 300 l 1,13,-1
 450 300 l 1,14,-1
 450 400 l 1,15,-1
 200 400 l 1,12,-1
150 400 m 1,16,-1
 150 500 l 1,17,-1
 499 500 l 1,18,-1
 500 400 l 1,19,-1
 550 400 l 1,20,-1
 550 200 l 1,21,-1
 200 200 l 1,22,-1
 200 100 l 1,23,-1
 500 100 l 1,24,-1
 500 0 l 1,25,-1
 150 0 l 1,26,-1
 150 100 l 1,27,-1
 100 100 l 1,28,-1
 100 400 l 1,29,-1
 150 400 l 1,16,-1
EndSplineSet
Validated: 1
EndChar

StartChar: edieresis
Encoding: 235 235 179
Width: 600
GlyphClass: 2
Flags: W
LayerCount: 2
Back
Fore
SplineSet
400 700 m 1,0,-1
 500 700 l 1,1,-1
 500 600 l 1,2,-1
 400 600 l 1,3,-1
 400 700 l 1,0,-1
150 700 m 1,4,-1
 250 700 l 1,5,-1
 250 600 l 1,6,-1
 150 600 l 1,7,-1
 150 700 l 1,4,-1
200 400 m 1,8,-1
 200 300 l 1,9,-1
 450 300 l 1,10,-1
 450 400 l 1,11,-1
 200 400 l 1,8,-1
150 400 m 1,12,-1
 151 500 l 1,13,-1
 499 500 l 1,14,-1
 500 400 l 1,15,-1
 550 400 l 1,16,-1
 550 200 l 1,17,-1
 200 200 l 1,18,-1
 200 100 l 1,19,-1
 500 100 l 1,20,-1
 500 0 l 1,21,-1
 150 0 l 1,22,-1
 150 100 l 1,23,-1
 100 100 l 1,24,-1
 100 400 l 1,25,-1
 150 400 l 1,12,-1
EndSplineSet
Validated: 1
EndChar

StartChar: igrave
Encoding: 236 236 180
Width: 600
GlyphClass: 2
Flags: W
LayerCount: 2
Back
Fore
SplineSet
250 600 m 1,0,-1
 250 700 l 1,1,-1
 200 700 l 1,2,-1
 200 800 l 1,3,-1
 300 800 l 1,4,-1
 300 700 l 1,5,-1
 350 700 l 1,6,-1
 350 600 l 1,7,-1
 250 600 l 1,0,-1
200 500 m 1,8,-1
 350 500 l 1,9,-1
 349 100 l 1,10,-1
 450 100 l 1,11,-1
 450 0 l 1,12,-1
 150 0 l 1,13,-1
 150 100 l 1,14,-1
 250 100 l 1,15,-1
 250 400 l 1,16,-1
 200 400 l 1,17,-1
 200 500 l 1,8,-1
EndSplineSet
Validated: 1
EndChar

StartChar: iacute
Encoding: 237 237 181
Width: 600
GlyphClass: 2
Flags: W
LayerCount: 2
Back
Fore
SplineSet
200 500 m 1,0,-1
 350 500 l 1,1,-1
 349 100 l 1,2,-1
 450 100 l 1,3,-1
 450 0 l 1,4,-1
 150 0 l 1,5,-1
 150 100 l 1,6,-1
 250 100 l 1,7,-1
 250 400 l 1,8,-1
 200 400 l 1,9,-1
 200 500 l 1,0,-1
EndSplineSet
Validated: 1
EndChar

StartChar: icircumflex
Encoding: 238 238 182
Width: 600
GlyphClass: 2
Flags: W
LayerCount: 2
Back
Fore
SplineSet
150 600 m 1,0,-1
 150 700 l 1,1,-1
 200 700 l 1,2,-1
 200 800 l 1,3,-1
 350 800 l 1,4,-1
 350 700 l 1,5,-1
 400 700 l 1,6,-1
 400 600 l 1,7,-1
 300 600 l 1,8,-1
 300 700 l 1,9,-1
 250 700 l 1,10,-1
 250 600 l 1,11,-1
 150 600 l 1,0,-1
200 500 m 1,12,-1
 350 500 l 1,13,-1
 349 100 l 1,14,-1
 450 100 l 1,15,-1
 450 0 l 1,16,-1
 150 0 l 1,17,-1
 150 100 l 1,18,-1
 250 100 l 1,19,-1
 250 400 l 1,20,-1
 200 400 l 1,21,-1
 200 500 l 1,12,-1
EndSplineSet
Validated: 1
EndChar

StartChar: idieresis
Encoding: 239 239 183
Width: 600
GlyphClass: 2
Flags: W
LayerCount: 2
Back
Fore
SplineSet
200 500 m 1,0,-1
 350 500 l 1,1,-1
 349 100 l 1,2,-1
 450 100 l 1,3,-1
 450 0 l 1,4,-1
 150 0 l 1,5,-1
 150 100 l 1,6,-1
 250 100 l 1,7,-1
 250 400 l 1,8,-1
 200 400 l 1,9,-1
 200 500 l 1,0,-1
200 700 m 1,10,-1
 350 700 l 1,11,-1
 350 600 l 1,12,-1
 200 600 l 1,13,-1
 200 700 l 1,10,-1
EndSplineSet
Validated: 1
EndChar

StartChar: eth
Encoding: 240 240 184
Width: 600
GlyphClass: 2
Flags: W
LayerCount: 2
Back
Fore
SplineSet
200 100 m 1,0,-1
 350 100 l 1,1,-1
 350 200 l 1,2,-1
 400 200 l 1,3,-1
 400 300 l 1,4,-1
 300 300 l 1,5,-1
 300 400 l 1,6,-1
 200 400 l 1,7,-1
 200 300 l 1,8,-1
 150 300 l 1,9,-1
 150 200 l 1,10,-1
 200 200 l 1,11,-1
 200 100 l 1,0,-1
150 0 m 1,12,-1
 150 100 l 1,13,-1
 100 100 l 1,14,-1
 100 200 l 1,15,-1
 50 200 l 1,16,-1
 50 300 l 1,17,-1
 100 300 l 1,18,-1
 100 400 l 1,19,-1
 150 400 l 1,20,-1
 150 500 l 1,21,-1
 350 500 l 1,22,-1
 350 400 l 1,23,-1
 400 400 l 1,24,-1
 400 500 l 1,25,-1
 350 500 l 1,26,-1
 350 600 l 1,27,-1
 250 600 l 1,28,-1
 250 700 l 1,29,-1
 550 700 l 1,30,-1
 550 600 l 1,31,-1
 450 600 l 1,32,-1
 450 500 l 1,33,-1
 500 500 l 1,34,-1
 500 200 l 1,35,-1
 450 200 l 1,36,-1
 450 100 l 1,37,-1
 400 100 l 1,38,-1
 400 0 l 1,39,-1
 150 0 l 1,12,-1
EndSplineSet
Validated: 5
EndChar

StartChar: ntilde
Encoding: 241 241 185
Width: 600
GlyphClass: 2
Flags: W
LayerCount: 2
Back
Fore
SplineSet
150 600 m 1,0,-1
 150 700 l 1,1,-1
 200 700 l 1,2,-1
 200 800 l 1,3,-1
 350 800 l 1,4,-1
 350 700 l 1,5,-1
 400 700 l 1,6,-1
 400 800 l 1,7,-1
 500 800 l 1,8,-1
 500 700 l 1,9,-1
 450 700 l 1,10,-1
 450 600 l 1,11,-1
 300 600 l 1,12,-1
 300 700 l 1,13,-1
 250 700 l 1,14,-1
 250 600 l 1,15,-1
 150 600 l 1,0,-1
100 0 m 1,16,-1
 100 500 l 1,17,-1
 200 500 l 1,18,-1
 200 400 l 1,19,-1
 250 400 l 1,20,-1
 250 500 l 1,21,-1
 500 500 l 1,22,-1
 500 400 l 1,23,-1
 550 400 l 1,24,-1
 550 0 l 1,25,-1
 450 0 l 1,26,-1
 450 400 l 1,27,-1
 250 400 l 1,28,-1
 250 300 l 1,29,-1
 200 300 l 1,30,-1
 200 0 l 1,31,-1
 100 0 l 1,16,-1
EndSplineSet
Validated: 5
EndChar

StartChar: ograve
Encoding: 242 242 186
Width: 600
GlyphClass: 2
Flags: W
LayerCount: 2
Back
Fore
SplineSet
200 400 m 1,0,-1
 200 100 l 1,1,-1
 450 100 l 1,2,-1
 450 400 l 1,3,-1
 200 400 l 1,0,-1
150 500 m 1,4,-1
 500 500 l 1,5,-1
 500 400 l 1,6,-1
 550 400 l 1,7,-1
 550 100 l 1,8,-1
 500 100 l 1,9,-1
 500 0 l 1,10,-1
 150 0 l 1,11,-1
 150 100 l 1,12,-1
 100 100 l 1,13,-1
 100 400 l 1,14,-1
 150 400 l 1,15,-1
 150 500 l 1,4,-1
EndSplineSet
Validated: 1
EndChar

StartChar: oacute
Encoding: 243 243 187
Width: 600
GlyphClass: 2
Flags: W
LayerCount: 2
Back
Fore
SplineSet
250 600 m 1,0,-1
 250 700 l 1,1,-1
 300 700 l 1,2,-1
 300 800 l 1,3,-1
 400 800 l 1,4,-1
 400 700 l 1,5,-1
 350 700 l 1,6,-1
 350 600 l 1,7,-1
 250 600 l 1,0,-1
200 400 m 1,8,-1
 200 100 l 1,9,-1
 450 100 l 1,10,-1
 450 400 l 1,11,-1
 200 400 l 1,8,-1
150 500 m 1,12,-1
 500 500 l 1,13,-1
 500 400 l 1,14,-1
 550 400 l 1,15,-1
 550 100 l 1,16,-1
 500 100 l 1,17,-1
 500 0 l 1,18,-1
 150 0 l 1,19,-1
 150 100 l 1,20,-1
 100 100 l 1,21,-1
 100 400 l 1,22,-1
 150 400 l 1,23,-1
 150 500 l 1,12,-1
EndSplineSet
Validated: 1
EndChar

StartChar: ocircumflex
Encoding: 244 244 188
Width: 600
GlyphClass: 2
Flags: W
LayerCount: 2
Back
Fore
SplineSet
200 600 m 1,0,-1
 200 700 l 1,1,-1
 250 700 l 1,2,-1
 250 800 l 1,3,-1
 400 800 l 1,4,-1
 400 700 l 1,5,-1
 450 700 l 1,6,-1
 450 600 l 1,7,-1
 350 600 l 1,8,-1
 350 700 l 1,9,-1
 300 700 l 1,10,-1
 300 600 l 1,11,-1
 200 600 l 1,0,-1
200 400 m 1,12,-1
 200 100 l 1,13,-1
 450 100 l 1,14,-1
 450 400 l 1,15,-1
 200 400 l 1,12,-1
150 500 m 1,16,-1
 500 500 l 1,17,-1
 500 400 l 1,18,-1
 550 400 l 1,19,-1
 550 100 l 1,20,-1
 500 100 l 1,21,-1
 500 0 l 1,22,-1
 150 0 l 1,23,-1
 150 100 l 1,24,-1
 100 100 l 1,25,-1
 100 400 l 1,26,-1
 150 400 l 1,27,-1
 150 500 l 1,16,-1
EndSplineSet
Validated: 1
EndChar

StartChar: otilde
Encoding: 245 245 189
Width: 600
GlyphClass: 2
Flags: W
LayerCount: 2
Back
Fore
SplineSet
150 600 m 1,0,-1
 150 700 l 1,1,-1
 200 700 l 1,2,-1
 200 800 l 1,3,-1
 350 800 l 1,4,-1
 350 700 l 1,5,-1
 400 700 l 1,6,-1
 400 800 l 1,7,-1
 500 800 l 1,8,-1
 500 700 l 1,9,-1
 450 700 l 1,10,-1
 450 600 l 1,11,-1
 300 600 l 1,12,-1
 300 700 l 1,13,-1
 250 700 l 1,14,-1
 250 600 l 1,15,-1
 150 600 l 1,0,-1
200 400 m 1,16,-1
 200 100 l 1,17,-1
 450 100 l 1,18,-1
 450 400 l 1,19,-1
 200 400 l 1,16,-1
150 500 m 1,20,-1
 500 500 l 1,21,-1
 500 400 l 1,22,-1
 550 400 l 1,23,-1
 550 100 l 1,24,-1
 500 100 l 1,25,-1
 500 0 l 1,26,-1
 150 0 l 1,27,-1
 150 100 l 1,28,-1
 100 100 l 1,29,-1
 100 400 l 1,30,-1
 150 400 l 1,31,-1
 150 500 l 1,20,-1
EndSplineSet
Validated: 1
EndChar

StartChar: odieresis
Encoding: 246 246 190
Width: 600
GlyphClass: 2
Flags: W
LayerCount: 2
Back
Fore
SplineSet
400 600 m 1,0,-1
 400 700 l 1,1,-1
 500 700 l 1,2,-1
 500 600 l 1,3,-1
 400 600 l 1,0,-1
150 600 m 1,4,-1
 150 700 l 1,5,-1
 250 700 l 1,6,-1
 250 600 l 1,7,-1
 150 600 l 1,4,-1
200 400 m 1,8,-1
 200 100 l 1,9,-1
 450 100 l 1,10,-1
 450 400 l 1,11,-1
 200 400 l 1,8,-1
150 500 m 1,12,-1
 500 500 l 1,13,-1
 500 400 l 1,14,-1
 550 400 l 1,15,-1
 550 100 l 1,16,-1
 500 100 l 1,17,-1
 500 0 l 1,18,-1
 150 0 l 1,19,-1
 150 100 l 1,20,-1
 100 100 l 1,21,-1
 100 400 l 1,22,-1
 150 400 l 1,23,-1
 150 500 l 1,12,-1
EndSplineSet
Validated: 1
EndChar

StartChar: divide
Encoding: 247 247 191
Width: 600
GlyphClass: 2
Flags: W
LayerCount: 2
Back
Fore
SplineSet
250 100 m 1,0,-1
 250 200 l 1,1,-1
 350 200 l 1,2,-1
 350 100 l 1,3,-1
 250 100 l 1,0,-1
100 300 m 1,4,-1
 100 400 l 1,5,-1
 500 400 l 1,6,-1
 500 300 l 1,7,-1
 100 300 l 1,4,-1
250 500 m 1,8,-1
 250 600 l 1,9,-1
 350 600 l 1,10,-1
 350 500 l 1,11,-1
 250 500 l 1,8,-1
EndSplineSet
Validated: 1
EndChar

StartChar: oslash
Encoding: 248 248 192
Width: 600
GlyphClass: 2
Flags: W
LayerCount: 2
Back
Fore
SplineSet
200 400 m 1,0,-1
 200 100 l 1,1,-1
 450 100 l 1,2,-1
 450 400 l 1,3,-1
 200 400 l 1,0,-1
150 500 m 1,4,-1
 500 500 l 1,5,-1
 500 400 l 1,6,-1
 550 400 l 1,7,-1
 550 100 l 1,8,-1
 500 100 l 1,9,-1
 500 0 l 1,10,-1
 150 0 l 1,11,-1
 150 100 l 1,12,-1
 100 100 l 1,13,-1
 100 400 l 1,14,-1
 150 400 l 1,15,-1
 150 500 l 1,4,-1
EndSplineSet
Validated: 1
EndChar

StartChar: ugrave
Encoding: 249 249 193
Width: 600
GlyphClass: 2
Flags: W
LayerCount: 2
Back
Fore
SplineSet
100 500 m 1,0,-1
 200 500 l 1,1,-1
 200 100 l 1,2,-1
 400 100 l 1,3,-1
 400 200 l 1,4,-1
 450 200 l 1,5,-1
 450 500 l 1,6,-1
 550 500 l 1,7,-1
 550 0 l 1,8,-1
 450 0 l 1,9,-1
 450 100 l 1,10,-1
 400 100 l 1,11,-1
 400 0 l 1,12,-1
 150 0 l 1,13,-1
 150 100 l 1,14,-1
 100 100 l 1,15,-1
 100 500 l 1,0,-1
EndSplineSet
Validated: 5
EndChar

StartChar: uacute
Encoding: 250 250 194
Width: 600
GlyphClass: 2
Flags: W
LayerCount: 2
Back
Fore
SplineSet
250 600 m 1,0,-1
 250 700 l 1,1,-1
 300 700 l 1,2,-1
 300 800 l 1,3,-1
 400 800 l 1,4,-1
 400 700 l 1,5,-1
 350 700 l 1,6,-1
 350 600 l 1,7,-1
 250 600 l 1,0,-1
100 500 m 1,8,-1
 200 500 l 1,9,-1
 200 100 l 1,10,-1
 400 100 l 1,11,-1
 400 200 l 1,12,-1
 450 200 l 1,13,-1
 450 500 l 1,14,-1
 550 500 l 1,15,-1
 550 0 l 1,16,-1
 450 0 l 1,17,-1
 450 100 l 1,18,-1
 400 100 l 1,19,-1
 400 0 l 1,20,-1
 150 0 l 1,21,-1
 150 100 l 1,22,-1
 100 100 l 1,23,-1
 100 500 l 1,8,-1
EndSplineSet
Validated: 5
EndChar

StartChar: ucircumflex
Encoding: 251 251 195
Width: 600
GlyphClass: 2
Flags: W
LayerCount: 2
Back
Fore
SplineSet
200 600 m 1,0,-1
 200 700 l 1,1,-1
 250 700 l 1,2,-1
 250 800 l 1,3,-1
 400 800 l 1,4,-1
 400 700 l 1,5,-1
 450 700 l 1,6,-1
 450 600 l 1,7,-1
 350 600 l 1,8,-1
 350 700 l 1,9,-1
 300 700 l 1,10,-1
 300 600 l 1,11,-1
 200 600 l 1,0,-1
100 500 m 1,12,-1
 200 500 l 1,13,-1
 200 100 l 1,14,-1
 400 100 l 1,15,-1
 400 200 l 1,16,-1
 450 200 l 1,17,-1
 450 500 l 1,18,-1
 550 500 l 1,19,-1
 550 0 l 1,20,-1
 450 0 l 1,21,-1
 450 100 l 1,22,-1
 400 100 l 1,23,-1
 400 0 l 1,24,-1
 150 0 l 1,25,-1
 150 100 l 1,26,-1
 100 100 l 1,27,-1
 100 500 l 1,12,-1
EndSplineSet
Validated: 5
EndChar

StartChar: udieresis
Encoding: 252 252 196
Width: 600
GlyphClass: 2
Flags: W
LayerCount: 2
Back
Fore
SplineSet
100 500 m 1,0,-1
 200 500 l 1,1,-1
 200 100 l 1,2,-1
 400 100 l 1,3,-1
 400 200 l 1,4,-1
 450 200 l 1,5,-1
 450 500 l 1,6,-1
 550 500 l 1,7,-1
 550 0 l 1,8,-1
 450 0 l 1,9,-1
 450 100 l 1,10,-1
 400 100 l 1,11,-1
 400 0 l 1,12,-1
 150 0 l 1,13,-1
 150 100 l 1,14,-1
 100 100 l 1,15,-1
 100 500 l 1,0,-1
EndSplineSet
Validated: 5
EndChar

StartChar: yacute
Encoding: 253 253 197
Width: 600
GlyphClass: 2
Flags: W
LayerCount: 2
Back
Fore
SplineSet
250 600 m 1,0,-1
 250 700 l 1,1,-1
 300 700 l 1,2,-1
 300 800 l 1,3,-1
 400 800 l 1,4,-1
 400 700 l 1,5,-1
 350 700 l 1,6,-1
 350 600 l 1,7,-1
 250 600 l 1,0,-1
100 500 m 1,8,-1
 200 500 l 1,9,-1
 200 400 l 1,10,-1
 250 400 l 1,11,-1
 250 300 l 1,12,-1
 300 300 l 1,13,-1
 300 200 l 1,14,-1
 350 200 l 1,15,-1
 350 300 l 1,16,-1
 400 300 l 1,17,-1
 400 400 l 1,18,-1
 450 400 l 1,19,-1
 450 500 l 1,20,-1
 550 500 l 1,21,-1
 550 400 l 1,22,-1
 500 400 l 1,23,-1
 500 300 l 1,24,-1
 450 300 l 1,25,-1
 450 200 l 1,26,-1
 400 200 l 1,27,-1
 400 100 l 1,28,-1
 350 100 l 1,29,-1
 350 0 l 1,30,-1
 300 0 l 1,31,-1
 300 -100 l 1,32,-1
 250 -100 l 1,33,-1
 250 -200 l 1,34,-1
 100 -200 l 1,35,-1
 100 -100 l 1,36,-1
 200 -100 l 1,37,-1
 200 0 l 1,38,-1
 250 0 l 1,39,-1
 250 200 l 1,40,-1
 200 200 l 1,41,-1
 200 300 l 1,42,-1
 150 300 l 1,43,-1
 150 400 l 1,44,-1
 100 400 l 1,45,-1
 100 500 l 1,8,-1
EndSplineSet
Validated: 1
EndChar

StartChar: ydieresis
Encoding: 255 255 198
Width: 600
GlyphClass: 2
Flags: W
LayerCount: 2
Back
Fore
SplineSet
250 600 m 1,0,-1
 250 700 l 1,1,-1
 300 700 l 1,2,-1
 300 800 l 1,3,-1
 400 800 l 1,4,-1
 400 700 l 1,5,-1
 350 700 l 1,6,-1
 350 600 l 1,7,-1
 250 600 l 1,0,-1
100 500 m 1,8,-1
 200 500 l 1,9,-1
 200 400 l 1,10,-1
 250 400 l 1,11,-1
 250 300 l 1,12,-1
 300 300 l 1,13,-1
 300 200 l 1,14,-1
 350 200 l 1,15,-1
 350 300 l 1,16,-1
 400 300 l 1,17,-1
 400 400 l 1,18,-1
 450 400 l 1,19,-1
 450 500 l 1,20,-1
 550 500 l 1,21,-1
 550 400 l 1,22,-1
 500 400 l 1,23,-1
 500 300 l 1,24,-1
 450 300 l 1,25,-1
 450 200 l 1,26,-1
 400 200 l 1,27,-1
 400 100 l 1,28,-1
 350 100 l 1,29,-1
 350 0 l 1,30,-1
 300 0 l 1,31,-1
 300 -100 l 1,32,-1
 250 -100 l 1,33,-1
 250 -200 l 1,34,-1
 100 -200 l 1,35,-1
 100 -100 l 1,36,-1
 200 -100 l 1,37,-1
 200 0 l 1,38,-1
 250 0 l 1,39,-1
 250 200 l 1,40,-1
 200 200 l 1,41,-1
 200 300 l 1,42,-1
 150 300 l 1,43,-1
 150 400 l 1,44,-1
 100 400 l 1,45,-1
 100 500 l 1,8,-1
EndSplineSet
Validated: 1
EndChar

StartChar: Ccircumflex
Encoding: 264 264 199
Width: 600
GlyphClass: 2
Flags: W
LayerCount: 2
Back
Fore
SplineSet
200 700 m 1,0,-1
 200 800 l 1,1,-1
 500 800 l 1,2,-1
 500 700 l 1,3,-1
 200 700 l 1,0,-1
200 600 m 1,4,-1
 500 600 l 1,5,-1
 500 500 l 1,6,-1
 550 500 l 1,7,-1
 550 400 l 1,8,-1
 450 400 l 1,9,-1
 450 500 l 1,10,-1
 250 500 l 1,11,-1
 250 400 l 1,12,-1
 200 400 l 1,13,-1
 200 200 l 1,14,-1
 250 200 l 1,15,-1
 250 100 l 1,16,-1
 450 100 l 1,17,-1
 450 200 l 1,18,-1
 550 200 l 1,19,-1
 550 100 l 1,20,-1
 500 100 l 1,21,-1
 500 0 l 1,22,-1
 200 0 l 1,23,-1
 200 100 l 1,24,-1
 150 100 l 1,25,-1
 150 200 l 1,26,-1
 100 200 l 1,27,-1
 100 400 l 1,28,-1
 150 400 l 1,29,-1
 150 500 l 1,30,-1
 200 500 l 1,31,-1
 200 600 l 1,4,-1
EndSplineSet
Validated: 1
EndChar

StartChar: ccircumflex
Encoding: 265 265 200
Width: 600
GlyphClass: 2
Flags: W
LayerCount: 2
Back
Fore
SplineSet
250 600 m 1,0,-1
 250 700 l 1,1,-1
 300 700 l 1,2,-1
 300 800 l 1,3,-1
 450 800 l 1,4,-1
 450 700 l 1,5,-1
 500 700 l 1,6,-1
 500 600 l 1,7,-1
 400 600 l 1,8,-1
 400 700 l 1,9,-1
 350 700 l 1,10,-1
 350 600 l 1,11,-1
 250 600 l 1,0,-1
200 500 m 1,12,-1
 550 500 l 1,13,-1
 550 400 l 1,14,-1
 250 400 l 1,15,-1
 250 300 l 1,16,-1
 200 300 l 1,17,-1
 200 200 l 1,18,-1
 250 200 l 1,19,-1
 250 100 l 1,20,-1
 550 100 l 1,21,-1
 550 0 l 1,22,-1
 200 0 l 1,23,-1
 200 100 l 1,24,-1
 150 100 l 1,25,-1
 150 200 l 1,26,-1
 100 200 l 1,27,-1
 100 300 l 1,28,-1
 150 300 l 1,29,-1
 150 400 l 1,30,-1
 200 400 l 1,31,-1
 200 500 l 1,12,-1
EndSplineSet
Validated: 1
EndChar

StartChar: Cdotaccent
Encoding: 266 266 201
Width: 600
GlyphClass: 2
Flags: W
LayerCount: 2
Back
Fore
SplineSet
300 700 m 1,0,-1
 300 800 l 1,1,-1
 400 800 l 1,2,-1
 400 700 l 1,3,-1
 300 700 l 1,0,-1
200 600 m 1,4,-1
 500 600 l 1,5,-1
 500 500 l 1,6,-1
 550 500 l 1,7,-1
 550 400 l 1,8,-1
 450 400 l 1,9,-1
 450 500 l 1,10,-1
 250 500 l 1,11,-1
 250 400 l 1,12,-1
 200 400 l 1,13,-1
 200 200 l 1,14,-1
 250 200 l 1,15,-1
 250 100 l 1,16,-1
 450 100 l 1,17,-1
 450 200 l 1,18,-1
 550 200 l 1,19,-1
 550 100 l 1,20,-1
 500 100 l 1,21,-1
 500 0 l 1,22,-1
 200 0 l 1,23,-1
 200 100 l 1,24,-1
 150 100 l 1,25,-1
 150 200 l 1,26,-1
 100 200 l 1,27,-1
 100 400 l 1,28,-1
 150 400 l 1,29,-1
 150 500 l 1,30,-1
 200 500 l 1,31,-1
 200 600 l 1,4,-1
EndSplineSet
Validated: 1
EndChar

StartChar: cdotaccent
Encoding: 267 267 202
Width: 600
GlyphClass: 2
Flags: W
LayerCount: 2
Back
Fore
SplineSet
300 600 m 1,0,-1
 300 700 l 1,1,-1
 400 700 l 1,2,-1
 400 600 l 1,3,-1
 300 600 l 1,0,-1
200 500 m 1,4,-1
 550 500 l 1,5,-1
 550 400 l 1,6,-1
 250 400 l 1,7,-1
 250 300 l 1,8,-1
 200 300 l 1,9,-1
 200 200 l 1,10,-1
 250 200 l 1,11,-1
 250 100 l 1,12,-1
 550 100 l 1,13,-1
 550 0 l 1,14,-1
 200 0 l 1,15,-1
 200 100 l 1,16,-1
 150 100 l 1,17,-1
 150 200 l 1,18,-1
 100 200 l 1,19,-1
 100 300 l 1,20,-1
 150 300 l 1,21,-1
 150 400 l 1,22,-1
 200 400 l 1,23,-1
 200 500 l 1,4,-1
EndSplineSet
Validated: 1
EndChar

StartChar: Ccaron
Encoding: 268 268 203
Width: 600
GlyphClass: 2
Flags: W
LayerCount: 2
Back
Fore
SplineSet
200 500 m 1,0,-1
 200 600 l 1,1,-1
 250 600 l 1,2,-1
 250 700 l 1,3,-1
 200 700 l 1,4,-1
 200 800 l 1,5,-1
 300 800 l 1,6,-1
 300 700 l 1,7,-1
 350 700 l 1,8,-1
 350 800 l 1,9,-1
 450 800 l 1,10,-1
 450 700 l 1,11,-1
 400 700 l 1,12,-1
 400 600 l 1,13,-1
 500 600 l 1,14,-1
 500 500 l 1,15,-1
 550 500 l 1,16,-1
 550 400 l 1,17,-1
 450 400 l 1,18,-1
 450 500 l 1,19,-1
 250 500 l 1,20,-1
 250 400 l 1,21,-1
 200 400 l 1,22,-1
 200 200 l 1,23,-1
 250 200 l 1,24,-1
 250 100 l 1,25,-1
 450 100 l 1,26,-1
 450 200 l 1,27,-1
 550 200 l 1,28,-1
 550 100 l 1,29,-1
 500 100 l 1,30,-1
 500 0 l 1,31,-1
 200 0 l 1,32,-1
 200 100 l 1,33,-1
 150 100 l 1,34,-1
 150 200 l 1,35,-1
 100 200 l 1,36,-1
 100 400 l 1,37,-1
 150 400 l 1,38,-1
 150 500 l 1,39,-1
 200 500 l 1,0,-1
EndSplineSet
Validated: 1
EndChar

StartChar: ccaron
Encoding: 269 269 204
Width: 600
GlyphClass: 2
Flags: W
LayerCount: 2
Back
Fore
SplineSet
250 700 m 1,0,-1
 250 800 l 1,1,-1
 350 800 l 1,2,-1
 350 700 l 1,3,-1
 400 700 l 1,4,-1
 400 800 l 1,5,-1
 500 800 l 1,6,-1
 500 700 l 1,7,-1
 450 700 l 1,8,-1
 450 600 l 1,9,-1
 300 600 l 1,10,-1
 300 700 l 1,11,-1
 250 700 l 1,0,-1
200 500 m 1,12,-1
 550 500 l 1,13,-1
 550 400 l 1,14,-1
 250 400 l 1,15,-1
 250 300 l 1,16,-1
 200 300 l 1,17,-1
 200 200 l 1,18,-1
 250 200 l 1,19,-1
 250 100 l 1,20,-1
 550 100 l 1,21,-1
 550 0 l 1,22,-1
 200 0 l 1,23,-1
 200 100 l 1,24,-1
 150 100 l 1,25,-1
 150 200 l 1,26,-1
 100 200 l 1,27,-1
 100 300 l 1,28,-1
 150 300 l 1,29,-1
 150 400 l 1,30,-1
 200 400 l 1,31,-1
 200 500 l 1,12,-1
EndSplineSet
Validated: 1
EndChar

StartChar: Dcaron
Encoding: 270 270 205
Width: 600
GlyphClass: 2
Flags: W
LayerCount: 2
Back
Fore
SplineSet
200 500 m 1,0,-1
 200 100 l 1,1,-1
 400 100 l 1,2,-1
 400 200 l 1,3,-1
 450 200 l 1,4,-1
 450 400 l 1,5,-1
 400 400 l 1,6,-1
 400 500 l 1,7,-1
 200 500 l 1,0,-1
450 500 m 1,8,-1
 500 500 l 1,9,-1
 500 400 l 1,10,-1
 550 400 l 1,11,-1
 550 200 l 1,12,-1
 500 200 l 1,13,-1
 500 100 l 1,14,-1
 450 100 l 1,15,-1
 450 0 l 1,16,-1
 100 0 l 1,17,-1
 100 600 l 1,18,-1
 200 600 l 1,19,-1
 200 700 l 1,20,-1
 150 700 l 1,21,-1
 150 800 l 1,22,-1
 250 800 l 1,23,-1
 250 700 l 1,24,-1
 300 700 l 1,25,-1
 300 800 l 1,26,-1
 400 800 l 1,27,-1
 400 700 l 1,28,-1
 350 700 l 1,29,-1
 350 600 l 1,30,-1
 450 600 l 1,31,-1
 450 500 l 1,8,-1
EndSplineSet
Validated: 1
EndChar

StartChar: dcaron
Encoding: 271 271 206
Width: 600
GlyphClass: 2
Flags: W
LayerCount: 2
Back
Fore
SplineSet
500 600 m 1,0,-1
 500 800 l 1,1,-1
 600 800 l 1,2,-1
 600 600 l 1,3,-1
 500 600 l 1,0,-1
150 100 m 1,4,-1
 350 100 l 1,5,-1
 350 300 l 1,6,-1
 300 300 l 1,7,-1
 300 400 l 1,8,-1
 150 400 l 1,9,-1
 150 100 l 1,4,-1
350 700 m 1,10,-1
 450 700 l 1,11,-1
 450 0 l 1,12,-1
 100 0 l 1,13,-1
 100 100 l 1,14,-1
 50 100 l 1,15,-1
 50 400 l 1,16,-1
 100 400 l 1,17,-1
 100 500 l 1,18,-1
 300 500 l 1,19,-1
 300 400 l 1,20,-1
 350 400 l 1,21,-1
 350 700 l 1,10,-1
EndSplineSet
Validated: 5
EndChar

StartChar: Dcroat
Encoding: 272 272 207
Width: 600
GlyphClass: 2
Flags: W
LayerCount: 2
Back
Fore
SplineSet
400 100 m 1,0,-1
 400 200 l 1,1,-1
 450 200 l 1,2,-1
 450 500 l 1,3,-1
 400 500 l 1,4,-1
 400 600 l 1,5,-1
 200 600 l 1,6,-1
 200 400 l 1,7,-1
 300 400 l 1,8,-1
 300 300 l 1,9,-1
 200 300 l 1,10,-1
 200 100 l 1,11,-1
 400 100 l 1,0,-1
100 700 m 1,12,-1
 450 700 l 1,13,-1
 450 600 l 1,14,-1
 500 600 l 1,15,-1
 500 500 l 1,16,-1
 550 500 l 1,17,-1
 550 200 l 1,18,-1
 500 200 l 1,19,-1
 500 100 l 1,20,-1
 450 100 l 1,21,-1
 450 0 l 1,22,-1
 100 0 l 1,23,-1
 100 300 l 1,24,-1
 0 300 l 1,25,-1
 0 400 l 1,26,-1
 100 400 l 1,27,-1
 100 700 l 1,12,-1
EndSplineSet
Validated: 1
EndChar

StartChar: dcroat
Encoding: 273 273 208
Width: 600
GlyphClass: 2
Flags: W
LayerCount: 2
Back
Fore
SplineSet
150 100 m 1,0,-1
 400 100 l 1,1,-1
 400 300 l 1,2,-1
 150 300 l 1,3,-1
 150 100 l 1,0,-1
100 0 m 1,4,-1
 100 100 l 1,5,-1
 50 100 l 1,6,-1
 50 300 l 1,7,-1
 100 300 l 1,8,-1
 100 400 l 1,9,-1
 400 400 l 1,10,-1
 400 500 l 1,11,-1
 300 500 l 1,12,-1
 300 600 l 1,13,-1
 400 600 l 1,14,-1
 400 700 l 1,15,-1
 500 700 l 1,16,-1
 500 600 l 1,17,-1
 600 600 l 1,18,-1
 600 500 l 1,19,-1
 500 500 l 1,20,-1
 500 0 l 1,21,-1
 100 0 l 1,4,-1
EndSplineSet
Validated: 1
EndChar

StartChar: IJ
Encoding: 306 306 209
Width: 600
GlyphClass: 2
Flags: W
LayerCount: 2
Back
Fore
SplineSet
500 700 m 1,0,-1
 600 700 l 1,1,-1
 600 100 l 1,2,-1
 550 100 l 1,3,-1
 550 0 l 1,4,-1
 350 0 l 1,5,-1
 350 100 l 1,6,-1
 300 100 l 1,7,-1
 300 200 l 1,8,-1
 400 200 l 1,9,-1
 400 100 l 1,10,-1
 500 100 l 1,11,-1
 500 700 l 1,0,-1
0 700 m 1,12,-1
 300 700 l 1,13,-1
 300 600 l 1,14,-1
 200 600 l 1,15,-1
 200 100 l 1,16,-1
 300 100 l 1,17,-1
 300 0 l 1,18,-1
 0 0 l 1,19,-1
 0 100 l 1,20,-1
 100 100 l 1,21,-1
 100 600 l 1,22,-1
 0 600 l 1,23,-1
 0 700 l 1,12,-1
EndSplineSet
Validated: 5
EndChar

StartChar: ij
Encoding: 307 307 210
Width: 600
GlyphClass: 2
Flags: W
LayerCount: 2
Back
Fore
SplineSet
550 600 m 1,0,-1
 550 700 l 1,1,-1
 400 700 l 1,2,-1
 400 600 l 1,3,-1
 550 600 l 1,0,-1
200 600 m 1,4,-1
 200 700 l 1,5,-1
 50 700 l 1,6,-1
 50 600 l 1,7,-1
 200 600 l 1,4,-1
250 0 m 1,8,-1
 350 0 l 1,9,-1
 350 -100 l 1,10,-1
 450 -100 l 1,11,-1
 450 400 l 1,12,-1
 400 400 l 1,13,-1
 400 500 l 1,14,-1
 550 500 l 1,15,-1
 550 -100 l 1,16,-1
 500 -100 l 1,17,-1
 500 -200 l 1,18,-1
 300 -200 l 1,19,-1
 300 -100 l 1,20,-1
 250 -100 l 1,21,-1
 250 0 l 1,8,-1
50 0 m 1,22,-1
 50 100 l 1,23,-1
 100 100 l 1,24,-1
 100 400 l 1,25,-1
 50 400 l 1,26,-1
 50 500 l 1,27,-1
 200 500 l 1,28,-1
 200 100 l 1,29,-1
 250 100 l 1,30,-1
 250 0 l 1,31,-1
 50 0 l 1,22,-1
EndSplineSet
Validated: 5
EndChar

StartChar: Rcaron
Encoding: 344 344 211
Width: 600
GlyphClass: 2
Flags: W
LayerCount: 2
Back
Fore
SplineSet
200 400 m 1,0,-1
 450 400 l 1,1,-1
 450 500 l 1,2,-1
 200 500 l 1,3,-1
 200 400 l 1,0,-1
100 0 m 1,4,-1
 100 600 l 1,5,-1
 250 600 l 1,6,-1
 250 700 l 1,7,-1
 200 700 l 1,8,-1
 200 800 l 1,9,-1
 300 800 l 1,10,-1
 300 700 l 1,11,-1
 350 700 l 1,12,-1
 350 800 l 1,13,-1
 450 800 l 1,14,-1
 450 700 l 1,15,-1
 400 700 l 1,16,-1
 400 600 l 1,17,-1
 500 600 l 1,18,-1
 500 500 l 1,19,-1
 550 500 l 1,20,-1
 550 400 l 1,21,-1
 500 400 l 1,22,-1
 500 300 l 1,23,-1
 400 300 l 1,24,-1
 400 200 l 1,25,-1
 450 200 l 1,26,-1
 450 100 l 1,27,-1
 550 100 l 1,28,-1
 550 0 l 1,29,-1
 400 0 l 1,30,-1
 400 100 l 1,31,-1
 350 100 l 1,32,-1
 350 200 l 1,33,-1
 300 200 l 1,34,-1
 300 300 l 1,35,-1
 200 300 l 1,36,-1
 200 0 l 1,37,-1
 100 0 l 1,4,-1
EndSplineSet
Validated: 1
EndChar

StartChar: rcaron
Encoding: 345 345 212
Width: 600
GlyphClass: 2
Flags: W
LayerCount: 2
Back
Fore
SplineSet
100 0 m 1,0,-1
 100 500 l 1,1,-1
 200 500 l 1,2,-1
 200 400 l 1,3,-1
 300 400 l 1,4,-1
 300 500 l 1,5,-1
 550 500 l 1,6,-1
 550 400 l 1,7,-1
 300 400 l 1,8,-1
 300 300 l 1,9,-1
 200 300 l 1,10,-1
 200 0 l 1,11,-1
 100 0 l 1,0,-1
EndSplineSet
Validated: 5
EndChar

StartChar: Scaron
Encoding: 352 352 213
Width: 600
GlyphClass: 2
Flags: W
LayerCount: 2
Back
Fore
SplineSet
100 400 m 1,0,-1
 100 500 l 1,1,-1
 150 500 l 1,2,-1
 150 600 l 1,3,-1
 250 600 l 1,4,-1
 250 700 l 1,5,-1
 200 700 l 1,6,-1
 200 800 l 1,7,-1
 300 800 l 1,8,-1
 300 700 l 1,9,-1
 350 700 l 1,10,-1
 350 800 l 1,11,-1
 450 800 l 1,12,-1
 450 700 l 1,13,-1
 400 700 l 1,14,-1
 400 600 l 1,15,-1
 500 600 l 1,16,-1
 500 500 l 1,17,-1
 250 500 l 1,18,-1
 250 400 l 1,19,-1
 350 400 l 1,20,-1
 350 300 l 1,21,-1
 500 300 l 1,22,-1
 500 200 l 1,23,-1
 550 200 l 1,24,-1
 550 100 l 1,25,-1
 500 100 l 1,26,-1
 500 0 l 1,27,-1
 150 0 l 1,28,-1
 150 100 l 1,29,-1
 400 100 l 1,30,-1
 400 200 l 1,31,-1
 300 200 l 1,32,-1
 300 300 l 1,33,-1
 150 300 l 1,34,-1
 150 400 l 1,35,-1
 100 400 l 1,0,-1
EndSplineSet
Validated: 1
EndChar

StartChar: scaron
Encoding: 353 353 214
Width: 600
GlyphClass: 2
Flags: W
LayerCount: 2
Back
Fore
SplineSet
200 700 m 1,0,-1
 200 800 l 1,1,-1
 300 800 l 1,2,-1
 300 700 l 1,3,-1
 350 700 l 1,4,-1
 350 800 l 1,5,-1
 450 800 l 1,6,-1
 450 700 l 1,7,-1
 400 700 l 1,8,-1
 400 600 l 1,9,-1
 250 600 l 1,10,-1
 250 700 l 1,11,-1
 200 700 l 1,0,-1
500 400 m 1,12,-1
 200 400 l 1,13,-1
 200 300 l 1,14,-1
 500 300 l 1,15,-1
 500 200 l 1,16,-1
 550 200 l 1,17,-1
 550 100 l 1,18,-1
 500 100 l 1,19,-1
 500 0 l 1,20,-1
 150 0 l 1,21,-1
 150 100 l 1,22,-1
 450 100 l 1,23,-1
 450 200 l 1,24,-1
 150 200 l 1,25,-1
 150 300 l 1,26,-1
 100 300 l 1,27,-1
 100 400 l 1,28,-1
 150 400 l 1,29,-1
 150 500 l 1,30,-1
 500 500 l 1,31,-1
 500 400 l 1,12,-1
EndSplineSet
Validated: 1
EndChar

StartChar: Tcaron
Encoding: 356 356 215
Width: 600
GlyphClass: 2
Flags: W
LayerCount: 2
Back
Fore
SplineSet
50 600 m 1,0,-1
 200 600 l 1,1,-1
 200 700 l 1,2,-1
 150 700 l 1,3,-1
 150 800 l 1,4,-1
 250 800 l 1,5,-1
 250 700 l 1,6,-1
 350 700 l 1,7,-1
 350 800 l 1,8,-1
 450 800 l 1,9,-1
 450 700 l 1,10,-1
 400 700 l 1,11,-1
 400 600 l 1,12,-1
 550 600 l 1,13,-1
 550 500 l 1,14,-1
 350 500 l 1,15,-1
 350 0 l 1,16,-1
 250 0 l 1,17,-1
 250 500 l 1,18,-1
 50 500 l 1,19,-1
 50 600 l 1,0,-1
EndSplineSet
Validated: 1
EndChar

StartChar: tcaron
Encoding: 357 357 216
Width: 600
GlyphClass: 2
Flags: W
LayerCount: 2
Back
Fore
SplineSet
450 600 m 1,0,-1
 450 800 l 1,1,-1
 550 800 l 1,2,-1
 550 600 l 1,3,-1
 450 600 l 1,0,-1
200 700 m 1,4,-1
 300 700 l 1,5,-1
 300 500 l 1,6,-1
 450 500 l 1,7,-1
 450 400 l 1,8,-1
 300 400 l 1,9,-1
 300 100 l 1,10,-1
 550 100 l 1,11,-1
 550 0 l 1,12,-1
 250 0 l 1,13,-1
 250 100 l 1,14,-1
 200 100 l 1,15,-1
 200 400 l 1,16,-1
 100 400 l 1,17,-1
 100 500 l 1,18,-1
 200 500 l 1,19,-1
 200 700 l 1,4,-1
EndSplineSet
Validated: 1
EndChar

StartChar: Uring
Encoding: 366 366 217
Width: 600
GlyphClass: 2
Flags: W
LayerCount: 2
Back
Fore
SplineSet
250 600 m 1,0,-1
 250 800 l 1,1,-1
 400 800 l 1,2,-1
 400 600 l 1,3,-1
 250 600 l 1,0,-1
100 600 m 1,4,-1
 200 600 l 1,5,-1
 200 100 l 1,6,-1
 450 100 l 1,7,-1
 450 600 l 1,8,-1
 550 600 l 1,9,-1
 550 100 l 1,10,-1
 500 100 l 1,11,-1
 500 0 l 1,12,-1
 150 0 l 1,13,-1
 150 100 l 1,14,-1
 100 100 l 1,15,-1
 100 600 l 1,4,-1
EndSplineSet
Validated: 1
EndChar

StartChar: uring
Encoding: 367 367 218
Width: 600
GlyphClass: 2
Flags: W
LayerCount: 2
Back
Fore
SplineSet
300 600 m 1,0,-1
 350 600 l 1,1,-1
 350 700 l 1,2,-1
 300 700 l 1,3,-1
 300 600 l 1,0,-1
250 500 m 1,4,-1
 250 600 l 1,5,-1
 200 600 l 1,6,-1
 200 700 l 1,7,-1
 250 700 l 1,8,-1
 250 800 l 1,9,-1
 400 800 l 1,10,-1
 400 700 l 1,11,-1
 450 700 l 1,12,-1
 450 600 l 1,13,-1
 400 600 l 1,14,-1
 400 500 l 1,15,-1
 250 500 l 1,4,-1
100 500 m 1,16,-1
 200 500 l 1,17,-1
 200 100 l 1,18,-1
 400 100 l 1,19,-1
 400 200 l 1,20,-1
 450 200 l 1,21,-1
 450 500 l 1,22,-1
 550 500 l 1,23,-1
 550 0 l 1,24,-1
 450 0 l 1,25,-1
 450 100 l 1,26,-1
 400 100 l 1,27,-1
 400 0 l 1,28,-1
 150 0 l 1,29,-1
 150 100 l 1,30,-1
 100 100 l 1,31,-1
 100 500 l 1,16,-1
EndSplineSet
Validated: 5
EndChar

StartChar: Uhungarumlaut
Encoding: 368 368 219
Width: 600
GlyphClass: 2
Flags: W
LayerCount: 2
Back
Fore
SplineSet
350 600 m 1,0,-1
 350 700 l 1,1,-1
 400 700 l 1,2,-1
 400 800 l 1,3,-1
 500 800 l 1,4,-1
 500 700 l 1,5,-1
 450 700 l 1,6,-1
 450 600 l 1,7,-1
 350 600 l 1,0,-1
150 600 m 1,8,-1
 150 700 l 1,9,-1
 200 700 l 1,10,-1
 200 800 l 1,11,-1
 300 800 l 1,12,-1
 300 700 l 1,13,-1
 250 700 l 1,14,-1
 250 600 l 1,15,-1
 150 600 l 1,8,-1
100 100 m 1,16,-1
 100 500 l 1,17,-1
 200 500 l 1,18,-1
 200 100 l 1,19,-1
 450 100 l 1,20,-1
 450 500 l 1,21,-1
 550 500 l 1,22,-1
 550 100 l 1,23,-1
 500 100 l 1,24,-1
 500 0 l 1,25,-1
 150 0 l 1,26,-1
 150 100 l 1,27,-1
 100 100 l 1,16,-1
EndSplineSet
Validated: 1
EndChar

StartChar: uhungarumlaut
Encoding: 369 369 220
Width: 600
GlyphClass: 2
Flags: W
LayerCount: 2
Back
Fore
SplineSet
350 600 m 1,0,-1
 350 700 l 1,1,-1
 400 700 l 1,2,-1
 400 800 l 1,3,-1
 500 800 l 1,4,-1
 500 700 l 1,5,-1
 450 700 l 1,6,-1
 450 600 l 1,7,-1
 350 600 l 1,0,-1
150 600 m 1,8,-1
 150 700 l 1,9,-1
 200 700 l 1,10,-1
 200 800 l 1,11,-1
 300 800 l 1,12,-1
 300 700 l 1,13,-1
 250 700 l 1,14,-1
 250 600 l 1,15,-1
 150 600 l 1,8,-1
100 500 m 1,16,-1
 200 500 l 1,17,-1
 200 100 l 1,18,-1
 400 100 l 1,19,-1
 400 200 l 1,20,-1
 450 200 l 1,21,-1
 450 500 l 1,22,-1
 550 500 l 1,23,-1
 550 0 l 1,24,-1
 450 0 l 1,25,-1
 450 100 l 1,26,-1
 400 100 l 1,27,-1
 400 0 l 1,28,-1
 150 0 l 1,29,-1
 150 100 l 1,30,-1
 100 100 l 1,31,-1
 100 500 l 1,16,-1
EndSplineSet
Validated: 5
EndChar

StartChar: Zacute
Encoding: 377 377 221
Width: 600
GlyphClass: 2
Flags: W
LayerCount: 2
Back
Fore
SplineSet
250 600 m 1,0,-1
 250 700 l 1,1,-1
 300 700 l 1,2,-1
 300 800 l 1,3,-1
 400 800 l 1,4,-1
 400 700 l 1,5,-1
 350 700 l 1,6,-1
 350 600 l 1,7,-1
 250 600 l 1,0,-1
100 500 m 1,8,-1
 500 500 l 1,9,-1
 500 400 l 1,10,-1
 400 400 l 1,11,-1
 400 300 l 1,12,-1
 350 300 l 1,13,-1
 350 200 l 1,14,-1
 300 200 l 1,15,-1
 300 100 l 1,16,-1
 500 100 l 1,17,-1
 500 0 l 1,18,-1
 100 0 l 1,19,-1
 100 100 l 1,20,-1
 200 100 l 1,21,-1
 200 200 l 1,22,-1
 250 200 l 1,23,-1
 250 300 l 1,24,-1
 300 300 l 1,25,-1
 300 400 l 1,26,-1
 100 400 l 1,27,-1
 100 500 l 1,8,-1
EndSplineSet
Validated: 1
EndChar

StartChar: zacute
Encoding: 378 378 222
Width: 600
GlyphClass: 2
Flags: W
LayerCount: 2
Back
Fore
SplineSet
250 600 m 1,0,-1
 250 700 l 1,1,-1
 300 700 l 1,2,-1
 300 800 l 1,3,-1
 400 800 l 1,4,-1
 400 700 l 1,5,-1
 350 700 l 1,6,-1
 350 600 l 1,7,-1
 250 600 l 1,0,-1
100 500 m 1,8,-1
 500 500 l 1,9,-1
 500 400 l 1,10,-1
 400 400 l 1,11,-1
 400 300 l 1,12,-1
 350 300 l 1,13,-1
 350 200 l 1,14,-1
 300 200 l 1,15,-1
 300 100 l 1,16,-1
 500 100 l 1,17,-1
 500 0 l 1,18,-1
 100 0 l 1,19,-1
 100 100 l 1,20,-1
 200 100 l 1,21,-1
 200 200 l 1,22,-1
 250 200 l 1,23,-1
 250 300 l 1,24,-1
 300 300 l 1,25,-1
 300 400 l 1,26,-1
 100 400 l 1,27,-1
 100 500 l 1,8,-1
EndSplineSet
Validated: 1
EndChar

StartChar: Zcaron
Encoding: 381 381 223
Width: 600
GlyphClass: 2
Flags: W
LayerCount: 2
Back
Fore
SplineSet
100 0 m 1,0,-1
 100 100 l 1,1,-1
 150 100 l 1,2,-1
 150 200 l 1,3,-1
 200 200 l 1,4,-1
 200 300 l 1,5,-1
 250 300 l 1,6,-1
 250 400 l 1,7,-1
 300 400 l 1,8,-1
 300 500 l 1,9,-1
 100 500 l 1,10,-1
 100 600 l 1,11,-1
 250 600 l 1,12,-1
 250 700 l 1,13,-1
 200 700 l 1,14,-1
 200 800 l 1,15,-1
 300 800 l 1,16,-1
 300 700 l 1,17,-1
 350 700 l 1,18,-1
 350 800 l 1,19,-1
 450 800 l 1,20,-1
 450 700 l 1,21,-1
 400 700 l 1,22,-1
 400 600 l 1,23,-1
 500 600 l 1,24,-1
 500 500 l 1,25,-1
 400 500 l 1,26,-1
 400 400 l 1,27,-1
 350 400 l 1,28,-1
 350 300 l 1,29,-1
 300 300 l 1,30,-1
 300 200 l 1,31,-1
 250 200 l 1,32,-1
 250 100 l 1,33,-1
 500 100 l 1,34,-1
 500 0 l 1,35,-1
 100 0 l 1,0,-1
EndSplineSet
Validated: 1
EndChar

StartChar: zcaron
Encoding: 382 382 224
Width: 600
GlyphClass: 2
Flags: W
LayerCount: 2
Back
Fore
SplineSet
150 700 m 1,0,-1
 150 800 l 1,1,-1
 250 800 l 1,2,-1
 250 700 l 1,3,-1
 300 700 l 1,4,-1
 300 800 l 1,5,-1
 400 800 l 1,6,-1
 400 700 l 1,7,-1
 350 700 l 1,8,-1
 350 600 l 1,9,-1
 200 600 l 1,10,-1
 200 700 l 1,11,-1
 150 700 l 1,0,-1
100 500 m 1,12,-1
 500 500 l 1,13,-1
 500 400 l 1,14,-1
 400 400 l 1,15,-1
 400 300 l 1,16,-1
 350 300 l 1,17,-1
 350 200 l 1,18,-1
 300 200 l 1,19,-1
 300 100 l 1,20,-1
 500 100 l 1,21,-1
 500 0 l 1,22,-1
 100 0 l 1,23,-1
 100 100 l 1,24,-1
 200 100 l 1,25,-1
 200 200 l 1,26,-1
 250 200 l 1,27,-1
 250 300 l 1,28,-1
 300 300 l 1,29,-1
 300 400 l 1,30,-1
 100 400 l 1,31,-1
 100 500 l 1,12,-1
EndSplineSet
Validated: 1
EndChar

StartChar: uni01B5
Encoding: 437 437 225
Width: 600
GlyphClass: 2
Flags: W
LayerCount: 2
Back
Fore
SplineSet
100 600 m 1,0,-1
 100 700 l 1,1,-1
 500 700 l 1,2,-1
 500 600 l 1,3,-1
 450 600 l 1,4,-1
 450 500 l 1,5,-1
 400 500 l 1,6,-1
 400 400 l 1,7,-1
 450 400 l 1,8,-1
 450 300 l 1,9,-1
 300 300 l 1,10,-1
 300 200 l 1,11,-1
 250 200 l 1,12,-1
 250 100 l 1,13,-1
 500 100 l 1,14,-1
 500 0 l 1,15,-1
 100 0 l 1,16,-1
 100 100 l 1,17,-1
 150 100 l 1,18,-1
 150 200 l 1,19,-1
 200 200 l 1,20,-1
 200 300 l 1,21,-1
 150 300 l 1,22,-1
 150 400 l 1,23,-1
 300 400 l 1,24,-1
 300 500 l 1,25,-1
 350 500 l 1,26,-1
 350 600 l 1,27,-1
 100 600 l 1,0,-1
EndSplineSet
Validated: 1
EndChar

StartChar: uni01B6
Encoding: 438 438 226
Width: 600
GlyphClass: 2
Flags: W
LayerCount: 2
Back
Fore
SplineSet
100 0 m 1,0,-1
 100 100 l 1,1,-1
 200 100 l 1,2,-1
 200 200 l 1,3,-1
 150 200 l 1,4,-1
 150 300 l 1,5,-1
 300 300 l 1,6,-1
 300 400 l 1,7,-1
 100 400 l 1,8,-1
 100 500 l 1,9,-1
 500 500 l 1,10,-1
 500 400 l 1,11,-1
 400 400 l 1,12,-1
 400 300 l 1,13,-1
 450 300 l 1,14,-1
 450 200 l 1,15,-1
 300 200 l 1,16,-1
 300 100 l 1,17,-1
 500 100 l 1,18,-1
 500 0 l 1,19,-1
 100 0 l 1,0,-1
EndSplineSet
Validated: 1
EndChar

StartChar: Sigma
Encoding: 931 931 227
Width: 600
GlyphClass: 2
Flags: W
LayerCount: 2
Back
Fore
SplineSet
100 0 m 1,0,-1
 100 100 l 1,1,-1
 150 100 l 1,2,-1
 150 200 l 1,3,-1
 200 200 l 1,4,-1
 200 300 l 1,5,-1
 250 300 l 1,6,-1
 250 400 l 1,7,-1
 200 400 l 1,8,-1
 200 500 l 1,9,-1
 150 500 l 1,10,-1
 150 600 l 1,11,-1
 100 600 l 1,12,-1
 100 700 l 1,13,-1
 500 700 l 1,14,-1
 500 600 l 1,15,-1
 250 600 l 1,16,-1
 250 500 l 1,17,-1
 300 500 l 1,18,-1
 300 400 l 1,19,-1
 350 400 l 1,20,-1
 350 300 l 1,21,-1
 300 300 l 1,22,-1
 300 200 l 1,23,-1
 250 200 l 1,24,-1
 250 100 l 1,25,-1
 500 100 l 1,26,-1
 500 0 l 1,27,-1
 100 0 l 1,0,-1
EndSplineSet
Validated: 1
EndChar

StartChar: Psi
Encoding: 936 936 228
Width: 600
GlyphClass: 2
Flags: W
LayerCount: 2
Back
Fore
SplineSet
250 0 m 1,0,-1
 250 300 l 1,1,-1
 150 300 l 1,2,-1
 150 400 l 1,3,-1
 100 400 l 1,4,-1
 100 500 l 1,5,-1
 50 500 l 1,6,-1
 50 700 l 1,7,-1
 150 700 l 1,8,-1
 150 500 l 1,9,-1
 200 500 l 1,10,-1
 200 400 l 1,11,-1
 250 400 l 1,12,-1
 250 700 l 1,13,-1
 350 700 l 1,14,-1
 350 400 l 1,15,-1
 400 400 l 1,16,-1
 400 500 l 1,17,-1
 450 500 l 1,18,-1
 450 700 l 1,19,-1
 550 700 l 1,20,-1
 550 500 l 1,21,-1
 500 500 l 1,22,-1
 500 400 l 1,23,-1
 450 400 l 1,24,-1
 450 300 l 1,25,-1
 350 300 l 1,26,-1
 350 0 l 1,27,-1
 250 0 l 1,0,-1
EndSplineSet
Validated: 1
EndChar

StartChar: uni03A9
Encoding: 937 937 229
Width: 600
GlyphClass: 2
Flags: W
LayerCount: 2
Back
Fore
SplineSet
100 0 m 1,0,-1
 100 100 l 1,1,-1
 150 100 l 1,2,-1
 150 200 l 1,3,-1
 100 200 l 1,4,-1
 100 400 l 1,5,-1
 150 400 l 1,6,-1
 150 500 l 1,7,-1
 200 500 l 1,8,-1
 200 600 l 1,9,-1
 450 600 l 1,10,-1
 450 500 l 1,11,-1
 500 500 l 1,12,-1
 500 400 l 1,13,-1
 550 400 l 1,14,-1
 550 200 l 1,15,-1
 500 200 l 1,16,-1
 500 100 l 1,17,-1
 550 100 l 1,18,-1
 550 0 l 1,19,-1
 350 0 l 1,20,-1
 350 100 l 1,21,-1
 400 100 l 1,22,-1
 400 200 l 1,23,-1
 450 200 l 1,24,-1
 450 400 l 1,25,-1
 400 400 l 1,26,-1
 400 500 l 1,27,-1
 250 500 l 1,28,-1
 250 400 l 1,29,-1
 200 400 l 1,30,-1
 200 200 l 1,31,-1
 250 200 l 1,32,-1
 250 100 l 1,33,-1
 300 100 l 1,34,-1
 300 0 l 1,35,-1
 100 0 l 1,0,-1
EndSplineSet
Validated: 1
EndChar

StartChar: alpha
Encoding: 945 945 230
Width: 600
GlyphClass: 2
Flags: W
LayerCount: 2
Back
Fore
SplineSet
350 100 m 1,0,-1
 350 200 l 1,1,-1
 400 200 l 1,2,-1
 400 300 l 1,3,-1
 350 300 l 1,4,-1
 350 400 l 1,5,-1
 150 400 l 1,6,-1
 150 100 l 1,7,-1
 350 100 l 1,0,-1
400 0 m 1,8,-1
 100 0 l 1,9,-1
 100 100 l 1,10,-1
 50 100 l 1,11,-1
 50 400 l 1,12,-1
 100 400 l 1,13,-1
 100 500 l 1,14,-1
 400 500 l 1,15,-1
 400 400 l 1,16,-1
 500 400 l 1,17,-1
 500 500 l 1,18,-1
 600 500 l 1,19,-1
 600 400 l 1,20,-1
 550 400 l 1,21,-1
 550 300 l 1,22,-1
 500 300 l 1,23,-1
 500 100 l 1,24,-1
 600 100 l 1,25,-1
 600 0 l 1,26,-1
 450 0 l 1,27,-1
 450 100 l 1,28,-1
 400 100 l 1,29,-1
 400 0 l 1,8,-1
EndSplineSet
Validated: 1
EndChar

StartChar: beta
Encoding: 946 946 231
Width: 600
GlyphClass: 2
Flags: W
LayerCount: 2
Back
Fore
SplineSet
200 100 m 1,0,-1
 400 100 l 1,1,-1
 400 300 l 1,2,-1
 250 300 l 1,3,-1
 250 400 l 1,4,-1
 400 400 l 1,5,-1
 400 600 l 1,6,-1
 200 600 l 1,7,-1
 200 100 l 1,0,-1
100 -200 m 1,8,-1
 100 600 l 1,9,-1
 150 600 l 1,10,-1
 150 700 l 1,11,-1
 450 700 l 1,12,-1
 450 600 l 1,13,-1
 500 600 l 1,14,-1
 500 400 l 1,15,-1
 450 400 l 1,16,-1
 450 300 l 1,17,-1
 500 300 l 1,18,-1
 500 100 l 1,19,-1
 450 100 l 1,20,-1
 450 0 l 1,21,-1
 200 0 l 1,22,-1
 200 -200 l 1,23,-1
 100 -200 l 1,8,-1
EndSplineSet
Validated: 1
EndChar

StartChar: gamma
Encoding: 947 947 232
Width: 600
GlyphClass: 2
Flags: W
LayerCount: 2
Back
Fore
SplineSet
300 -200 m 1,0,-1
 300 100 l 1,1,-1
 250 100 l 1,2,-1
 250 200 l 1,3,-1
 200 200 l 1,4,-1
 200 300 l 1,5,-1
 150 300 l 1,6,-1
 150 400 l 1,7,-1
 100 400 l 1,8,-1
 100 500 l 1,9,-1
 200 500 l 1,10,-1
 200 400 l 1,11,-1
 250 400 l 1,12,-1
 250 300 l 1,13,-1
 300 300 l 1,14,-1
 300 200 l 1,15,-1
 400 200 l 1,16,-1
 400 400 l 1,17,-1
 450 400 l 1,18,-1
 450 500 l 1,19,-1
 550 500 l 1,20,-1
 550 400 l 1,21,-1
 500 400 l 1,22,-1
 500 200 l 1,23,-1
 450 200 l 1,24,-1
 450 100 l 1,25,-1
 400 100 l 1,26,-1
 400 -200 l 1,27,-1
 300 -200 l 1,0,-1
EndSplineSet
Validated: 1
EndChar

StartChar: delta
Encoding: 948 948 233
Width: 600
GlyphClass: 2
Flags: W
LayerCount: 2
Back
Fore
SplineSet
200 100 m 1,0,-1
 400 100 l 1,1,-1
 400 300 l 1,2,-1
 300 300 l 1,3,-1
 300 400 l 1,4,-1
 250 400 l 1,5,-1
 250 300 l 1,6,-1
 200 300 l 1,7,-1
 200 100 l 1,0,-1
150 0 m 1,8,-1
 150 100 l 1,9,-1
 100 100 l 1,10,-1
 100 300 l 1,11,-1
 150 300 l 1,12,-1
 150 500 l 1,13,-1
 99 500 l 1,14,-1
 100 600 l 1,15,-1
 150 600 l 1,16,-1
 150 700 l 1,17,-1
 450 700 l 1,18,-1
 450 600 l 1,19,-1
 500 600 l 1,20,-1
 500 500 l 1,21,-1
 400 500 l 1,22,-1
 400 600 l 1,23,-1
 200 600 l 1,24,-1
 200 500 l 1,25,-1
 350 500 l 1,26,-1
 350 400 l 1,27,-1
 450 400 l 1,28,-1
 450 300 l 1,29,-1
 500 300 l 1,30,-1
 500 100 l 1,31,-1
 450 100 l 1,32,-1
 450 0 l 1,33,-1
 150 0 l 1,8,-1
EndSplineSet
Validated: 1
EndChar

StartChar: epsilon
Encoding: 949 949 234
Width: 600
GlyphClass: 2
Flags: W
LayerCount: 2
Back
Fore
SplineSet
150 0 m 1,0,-1
 150 100 l 1,1,-1
 100 100 l 1,2,-1
 100 200 l 1,3,-1
 150 200 l 1,4,-1
 150 300 l 1,5,-1
 100 300 l 1,6,-1
 100 400 l 1,7,-1
 150 400 l 1,8,-1
 150 500 l 1,9,-1
 500 500 l 1,10,-1
 500 400 l 1,11,-1
 550 400 l 1,12,-1
 550 300 l 1,13,-1
 450 300 l 1,14,-1
 450 400 l 1,15,-1
 200 400 l 1,16,-1
 200 300 l 1,17,-1
 350 300 l 1,18,-1
 350 200 l 1,19,-1
 200 200 l 1,20,-1
 200 100 l 1,21,-1
 450 100 l 1,22,-1
 450 200 l 1,23,-1
 550 200 l 1,24,-1
 550 100 l 1,25,-1
 500 100 l 1,26,-1
 500 0 l 1,27,-1
 150 0 l 1,0,-1
EndSplineSet
Validated: 1
EndChar

StartChar: lambda
Encoding: 955 955 235
Width: 600
GlyphClass: 2
Flags: W
LayerCount: 2
Back
Fore
SplineSet
50 0 m 1,0,-1
 50 100 l 1,1,-1
 100 100 l 1,2,-1
 100 200 l 1,3,-1
 150 200 l 1,4,-1
 150 300 l 1,5,-1
 200 300 l 1,6,-1
 200 500 l 1,7,-1
 150 500 l 1,8,-1
 150 600 l 1,9,-1
 50 600 l 1,10,-1
 50 700 l 1,11,-1
 200 700 l 1,12,-1
 200 600 l 1,13,-1
 250 600 l 1,14,-1
 250 500 l 1,15,-1
 300 500 l 1,16,-1
 300 400 l 1,17,-1
 350 400 l 1,18,-1
 350 300 l 1,19,-1
 400 300 l 1,20,-1
 400 200 l 1,21,-1
 450 200 l 1,22,-1
 450 100 l 1,23,-1
 500 100 l 1,24,-1
 500 0 l 1,25,-1
 400 0 l 1,26,-1
 400 100 l 1,27,-1
 350 100 l 1,28,-1
 350 200 l 1,29,-1
 300 200 l 1,30,-1
 300 300 l 1,31,-1
 250 300 l 1,32,-1
 250 200 l 1,33,-1
 200 200 l 1,34,-1
 200 100 l 1,35,-1
 150 100 l 1,36,-1
 150 0 l 1,37,-1
 50 0 l 1,0,-1
EndSplineSet
Validated: 1
EndChar

StartChar: uni03BC
Encoding: 956 956 236
Width: 600
GlyphClass: 2
Flags: W
LayerCount: 2
Back
Fore
SplineSet
250 100 m 1,0,-1
 250 0 l 1,1,-1
 450 0 l 1,2,-1
 450 100 l 1,3,-1
 500 100 l 1,4,-1
 500 0 l 1,5,-1
 600 0 l 1,6,-1
 600 100 l 1,7,-1
 550 100 l 1,8,-1
 550 500 l 1,9,-1
 450 500 l 1,10,-1
 450 200 l 1,11,-1
 400 200 l 1,12,-1
 400 100 l 1,13,-1
 250 100 l 1,0,-1
100 -200 m 1,14,-1
 100 500 l 1,15,-1
 200 500 l 1,16,-1
 200 200 l 1,17,-1
 250 200 l 1,18,-1
 250 100 l 1,19,-1
 200 100 l 1,20,-1
 200 -200 l 1,21,-1
 100 -200 l 1,14,-1
EndSplineSet
Validated: 5
EndChar

StartChar: uni0400
Encoding: 1024 1024 237
Width: 600
GlyphClass: 2
Flags: W
LayerCount: 2
Back
Fore
SplineSet
550 500 m 1,0,-1
 200 500 l 1,1,-1
 200 400 l 1,2,-1
 450 400 l 1,3,-1
 450 300 l 1,4,-1
 200 300 l 1,5,-1
 200 100 l 1,6,-1
 550 100 l 1,7,-1
 550 0 l 1,8,-1
 100 0 l 1,9,-1
 100 600 l 1,10,-1
 250 600 l 1,11,-1
 250 700 l 1,12,-1
 200 700 l 1,13,-1
 200 800 l 1,14,-1
 300 800 l 1,15,-1
 300 700 l 1,16,-1
 350 700 l 1,17,-1
 350 600 l 1,18,-1
 550 600 l 1,19,-1
 550 500 l 1,0,-1
EndSplineSet
Validated: 1
EndChar

StartChar: uni0401
Encoding: 1025 1025 238
Width: 600
GlyphClass: 2
Flags: W
LayerCount: 2
Back
Fore
SplineSet
400 700 m 1,0,-1
 400 800 l 1,1,-1
 500 800 l 1,2,-1
 500 700 l 1,3,-1
 400 700 l 1,0,-1
150 700 m 1,4,-1
 150 800 l 1,5,-1
 250 800 l 1,6,-1
 250 700 l 1,7,-1
 150 700 l 1,4,-1
550 500 m 1,8,-1
 200 500 l 1,9,-1
 200 400 l 1,10,-1
 450 400 l 1,11,-1
 450 300 l 1,12,-1
 200 300 l 1,13,-1
 200 100 l 1,14,-1
 550 100 l 1,15,-1
 550 0 l 1,16,-1
 100 0 l 1,17,-1
 100 600 l 1,18,-1
 550 600 l 1,19,-1
 550 500 l 1,8,-1
EndSplineSet
Validated: 1
EndChar

StartChar: uni0402
Encoding: 1026 1026 239
Width: 600
GlyphClass: 2
Flags: W
LayerCount: 2
Back
Fore
SplineSet
200 0 m 1,0,-1
 200 600 l 1,1,-1
 50 600 l 1,2,-1
 50 700 l 1,3,-1
 450 700 l 1,4,-1
 450 600 l 1,5,-1
 300 600 l 1,6,-1
 300 400 l 1,7,-1
 550 400 l 1,8,-1
 550 300 l 1,9,-1
 600 300 l 1,10,-1
 600 100 l 1,11,-1
 550 100 l 1,12,-1
 550 0 l 1,13,-1
 350 0 l 1,14,-1
 350 100 l 1,15,-1
 500 100 l 1,16,-1
 500 300 l 1,17,-1
 300 300 l 1,18,-1
 300 0 l 1,19,-1
 200 0 l 1,0,-1
EndSplineSet
Validated: 1
EndChar

StartChar: uni0403
Encoding: 1027 1027 240
Width: 600
GlyphClass: 2
Flags: W
LayerCount: 2
Back
Fore
SplineSet
100 0 m 1,0,-1
 100 600 l 1,1,-1
 250 600 l 1,2,-1
 250 700 l 1,3,-1
 300 700 l 1,4,-1
 300 800 l 1,5,-1
 400 800 l 1,6,-1
 400 700 l 1,7,-1
 350 700 l 1,8,-1
 350 600 l 1,9,-1
 550 600 l 1,10,-1
 550 500 l 1,11,-1
 200 500 l 1,12,-1
 200 0 l 1,13,-1
 100 0 l 1,0,-1
EndSplineSet
Validated: 1
EndChar

StartChar: uni0404
Encoding: 1028 1028 241
Width: 600
GlyphClass: 2
Flags: W
LayerCount: 2
Back
Fore
SplineSet
200 500 m 1,0,-1
 150 500 l 1,1,-1
 150 400 l 1,2,-1
 350 400 l 1,3,-1
 350 300 l 1,4,-1
 150 300 l 1,5,-1
 150 200 l 1,6,-1
 200 200 l 1,7,-1
 200 100 l 1,8,-1
 400 100 l 1,9,-1
 400 200 l 1,10,-1
 500 200 l 1,11,-1
 500 100 l 1,12,-1
 450 100 l 1,13,-1
 450 0 l 1,14,-1
 150 0 l 1,15,-1
 150 100 l 1,16,-1
 100 100 l 1,17,-1
 100 200 l 1,18,-1
 50 200 l 1,19,-1
 50 500 l 1,20,-1
 100 500 l 1,21,-1
 100 600 l 1,22,-1
 150 600 l 1,23,-1
 150 700 l 1,24,-1
 450 700 l 1,25,-1
 450 600 l 1,26,-1
 500 600 l 1,27,-1
 500 500 l 1,28,-1
 400 500 l 1,29,-1
 400 600 l 1,30,-1
 200 600 l 1,31,-1
 200 500 l 1,0,-1
EndSplineSet
Validated: 1
EndChar

StartChar: uni0405
Encoding: 1029 1029 242
Width: 600
GlyphClass: 2
Flags: W
LayerCount: 2
Back
Fore
SplineSet
150 600 m 1,0,-1
 150 700 l 1,1,-1
 500 700 l 1,2,-1
 500 600 l 1,3,-1
 200 600 l 1,4,-1
 200 400 l 1,5,-1
 500 400 l 1,6,-1
 500 300 l 1,7,-1
 550 300 l 1,8,-1
 550 100 l 1,9,-1
 500 100 l 1,10,-1
 500 0 l 1,11,-1
 150 0 l 1,12,-1
 150 100 l 1,13,-1
 450 100 l 1,14,-1
 450 300 l 1,15,-1
 150 300 l 1,16,-1
 150 400 l 1,17,-1
 100 400 l 1,18,-1
 100 600 l 1,19,-1
 150 600 l 1,0,-1
EndSplineSet
Validated: 1
EndChar

StartChar: uni0406
Encoding: 1030 1030 243
Width: 600
GlyphClass: 2
Flags: W
LayerCount: 2
Back
Fore
SplineSet
100 700 m 1,0,-1
 500 700 l 1,1,-1
 500 600 l 1,2,-1
 350 600 l 1,3,-1
 350 100 l 1,4,-1
 500 100 l 1,5,-1
 500 0 l 1,6,-1
 100 0 l 1,7,-1
 100 100 l 1,8,-1
 250 100 l 1,9,-1
 250 600 l 1,10,-1
 100 600 l 1,11,-1
 100 700 l 1,0,-1
EndSplineSet
Validated: 1
EndChar

StartChar: uni0407
Encoding: 1031 1031 244
Width: 600
GlyphClass: 2
Flags: W
LayerCount: 2
Back
Fore
SplineSet
350 700 m 1,0,-1
 350 800 l 1,1,-1
 450 800 l 1,2,-1
 450 700 l 1,3,-1
 350 700 l 1,0,-1
150 700 m 1,4,-1
 150 800 l 1,5,-1
 250 800 l 1,6,-1
 250 700 l 1,7,-1
 150 700 l 1,4,-1
100 500 m 1,8,-1
 100 600 l 1,9,-1
 500 600 l 1,10,-1
 500 500 l 1,11,-1
 350 500 l 1,12,-1
 350 100 l 1,13,-1
 500 100 l 1,14,-1
 500 0 l 1,15,-1
 100 0 l 1,16,-1
 100 100 l 1,17,-1
 250 100 l 1,18,-1
 250 500 l 1,19,-1
 100 500 l 1,8,-1
EndSplineSet
Validated: 1
EndChar

StartChar: uni0408
Encoding: 1032 1032 245
Width: 600
GlyphClass: 2
Flags: W
LayerCount: 2
Back
Fore
SplineSet
450 700 m 1,0,-1
 550 700 l 1,1,-1
 550 100 l 1,2,-1
 500 100 l 1,3,-1
 500 0 l 1,4,-1
 150 0 l 1,5,-1
 150 100 l 1,6,-1
 100 100 l 1,7,-1
 100 200 l 1,8,-1
 200 200 l 1,9,-1
 200 100 l 1,10,-1
 450 100 l 1,11,-1
 450 700 l 1,0,-1
EndSplineSet
Validated: 1
EndChar

StartChar: uni0409
Encoding: 1033 1033 246
Width: 600
GlyphClass: 2
Flags: W
LayerCount: 2
Back
Fore
SplineSet
400 100 m 1,0,-1
 500 100 l 1,1,-1
 500 300 l 1,2,-1
 400 300 l 1,3,-1
 400 100 l 1,0,-1
50 0 m 1,4,-1
 50 100 l 1,5,-1
 100 100 l 1,6,-1
 100 600 l 1,7,-1
 150 600 l 1,8,-1
 150 700 l 1,9,-1
 400 700 l 1,10,-1
 400 400 l 1,11,-1
 550 400 l 1,12,-1
 550 300 l 1,13,-1
 600 300 l 1,14,-1
 600 50 l 1,15,-1
 550 50 l 1,16,-1
 550 0 l 1,17,-1
 300 0 l 1,18,-1
 300 600 l 1,19,-1
 200 600 l 1,20,-1
 200 100 l 1,21,-1
 150 100 l 1,22,-1
 150 0 l 1,23,-1
 50 0 l 1,4,-1
EndSplineSet
Validated: 1
EndChar

StartChar: uni040A
Encoding: 1034 1034 247
Width: 600
GlyphClass: 2
Flags: W
LayerCount: 2
Back
Fore
SplineSet
400 300 m 1,0,-1
 400 100 l 1,1,-1
 500 100 l 1,2,-1
 500 300 l 1,3,-1
 400 300 l 1,0,-1
50 700 m 1,4,-1
 150 700 l 1,5,-1
 150 400 l 1,6,-1
 300 400 l 1,7,-1
 300 700 l 1,8,-1
 400 700 l 1,9,-1
 400 400 l 1,10,-1
 550 400 l 1,11,-1
 550 300 l 1,12,-1
 600 300 l 1,13,-1
 600 50 l 1,14,-1
 550 50 l 1,15,-1
 550 0 l 1,16,-1
 300 0 l 1,17,-1
 300 300 l 1,18,-1
 150 300 l 1,19,-1
 150 0 l 1,20,-1
 50 0 l 1,21,-1
 50 700 l 1,4,-1
EndSplineSet
Validated: 1
EndChar

StartChar: uni040B
Encoding: 1035 1035 248
Width: 600
GlyphClass: 2
Flags: W
LayerCount: 2
Back
Fore
SplineSet
50 600 m 1,0,-1
 50 700 l 1,1,-1
 450 700 l 1,2,-1
 450 600 l 1,3,-1
 300 600 l 1,4,-1
 300 400 l 1,5,-1
 550 400 l 1,6,-1
 550 300 l 1,7,-1
 600 300 l 1,8,-1
 600 0 l 1,9,-1
 500 0 l 1,10,-1
 500 300 l 1,11,-1
 300 300 l 1,12,-1
 300 0 l 1,13,-1
 200 0 l 1,14,-1
 200 600 l 1,15,-1
 50 600 l 1,0,-1
EndSplineSet
Validated: 1
EndChar

StartChar: uni040C
Encoding: 1036 1036 249
Width: 600
GlyphClass: 2
Flags: W
LayerCount: 2
Back
Fore
SplineSet
100 0 m 1,0,-1
 100 600 l 1,1,-1
 200 600 l 1,2,-1
 200 400 l 1,3,-1
 250 400 l 1,4,-1
 250 500 l 1,5,-1
 350 500 l 1,6,-1
 350 600 l 1,7,-1
 500 600 l 1,8,-1
 500 500 l 1,9,-1
 400 500 l 1,10,-1
 400 400 l 1,11,-1
 300 400 l 1,12,-1
 300 200 l 1,13,-1
 400 200 l 1,14,-1
 400 100 l 1,15,-1
 500 100 l 1,16,-1
 500 0 l 1,17,-1
 350 0 l 1,18,-1
 350 100 l 1,19,-1
 250 100 l 1,20,-1
 250 200 l 1,21,-1
 200 200 l 1,22,-1
 200 0 l 1,23,-1
 100 0 l 1,0,-1
250 600 m 1,24,-1
 250 700 l 1,25,-1
 300 700 l 1,26,-1
 300 800 l 1,27,-1
 400 800 l 1,28,-1
 400 700 l 1,29,-1
 350 700 l 1,30,-1
 350 600 l 1,31,-1
 250 600 l 1,24,-1
EndSplineSet
Validated: 5
EndChar

StartChar: uni040D
Encoding: 1037 1037 250
Width: 600
GlyphClass: 2
Flags: W
LayerCount: 2
Back
Fore
SplineSet
50 700 m 1,0,-1
 150 700 l 1,1,-1
 150 200 l 1,2,-1
 200 200 l 1,3,-1
 200 300 l 1,4,-1
 250 300 l 1,5,-1
 250 400 l 1,6,-1
 300 400 l 1,7,-1
 300 500 l 1,8,-1
 350 500 l 1,9,-1
 350 600 l 1,10,-1
 400 600 l 1,11,-1
 400 700 l 1,12,-1
 550 700 l 1,13,-1
 550 0 l 1,14,-1
 450 0 l 1,15,-1
 450 500 l 1,16,-1
 400 500 l 1,17,-1
 400 400 l 1,18,-1
 350 400 l 1,19,-1
 350 300 l 1,20,-1
 300 300 l 1,21,-1
 300 200 l 1,22,-1
 250 200 l 1,23,-1
 250 100 l 1,24,-1
 200 100 l 1,25,-1
 200 0 l 1,26,-1
 50 0 l 1,27,-1
 50 700 l 1,0,-1
EndSplineSet
Validated: 1
EndChar

StartChar: uni040E
Encoding: 1038 1038 251
Width: 600
GlyphClass: 2
Flags: W
LayerCount: 2
Back
Fore
SplineSet
300 700 m 1,0,-1
 300 800 l 1,1,-1
 350 800 l 1,2,-1
 350 700 l 1,3,-1
 300 700 l 1,0,-1
100 700 m 1,4,-1
 200 700 l 1,5,-1
 200 400 l 1,6,-1
 450 400 l 1,7,-1
 450 700 l 1,8,-1
 550 700 l 1,9,-1
 550 100 l 1,10,-1
 500 100 l 1,11,-1
 500 0 l 1,12,-1
 150 0 l 1,13,-1
 150 100 l 1,14,-1
 100 100 l 1,15,-1
 100 200 l 1,16,-1
 200 200 l 1,17,-1
 200 100 l 1,18,-1
 450 100 l 1,19,-1
 450 300 l 1,20,-1
 150 300 l 1,21,-1
 150 400 l 1,22,-1
 100 400 l 1,23,-1
 100 700 l 1,4,-1
EndSplineSet
Validated: 1
EndChar

StartChar: uni040F
Encoding: 1039 1039 252
Width: 600
GlyphClass: 2
Flags: W
LayerCount: 2
Back
Fore
SplineSet
100 0 m 1,0,-1
 100 700 l 1,1,-1
 200 700 l 1,2,-1
 200 100 l 1,3,-1
 500 100 l 1,4,-1
 500 700 l 1,5,-1
 600 700 l 1,6,-1
 600 0 l 1,7,-1
 400 0 l 1,8,-1
 400 -200 l 1,9,-1
 300 -200 l 1,10,-1
 300 0 l 1,11,-1
 100 0 l 1,0,-1
EndSplineSet
Validated: 1
EndChar

StartChar: uni0410
Encoding: 1040 1040 253
Width: 600
GlyphClass: 2
Flags: W
LayerCount: 2
Back
Fore
SplineSet
150 400 m 1,0,-1
 150 300 l 1,1,-1
 450 300 l 1,2,-1
 450 400 l 1,3,-1
 400 400 l 1,4,-1
 400 500 l 1,5,-1
 350 500 l 1,6,-1
 350 600 l 1,7,-1
 250 600 l 1,8,-1
 250 500 l 1,9,-1
 200 500 l 1,10,-1
 200 400 l 1,11,-1
 150 400 l 1,0,-1
150 0 m 1,12,-1
 50 0 l 1,13,-1
 50 400 l 1,14,-1
 100 400 l 1,15,-1
 100 500 l 1,16,-1
 150 500 l 1,17,-1
 150 600 l 1,18,-1
 200 600 l 1,19,-1
 200 700 l 1,20,-1
 399 700 l 1,21,-1
 400 600 l 1,22,-1
 450 600 l 1,23,-1
 450 500 l 1,24,-1
 500 500 l 1,25,-1
 500 400 l 1,26,-1
 550 400 l 1,27,-1
 550 0 l 1,28,-1
 450 0 l 1,29,-1
 450 200 l 1,30,-1
 150 200 l 1,31,-1
 150 0 l 1,12,-1
EndSplineSet
Validated: 1
EndChar

StartChar: uni0411
Encoding: 1041 1041 254
Width: 600
GlyphClass: 2
Flags: W
LayerCount: 2
Back
Fore
SplineSet
200 100 m 1,0,-1
 450 100 l 1,1,-1
 450 300 l 1,2,-1
 200 300 l 1,3,-1
 200 100 l 1,0,-1
100 700 m 1,4,-1
 500 700 l 1,5,-1
 500 600 l 1,6,-1
 200 600 l 1,7,-1
 200 400 l 1,8,-1
 500 400 l 1,9,-1
 500 300 l 1,10,-1
 550 300 l 1,11,-1
 550 100 l 1,12,-1
 500 100 l 1,13,-1
 500 0 l 1,14,-1
 100 0 l 1,15,-1
 100 700 l 1,4,-1
EndSplineSet
Validated: 1
EndChar

StartChar: uni0412
Encoding: 1042 1042 255
Width: 600
GlyphClass: 2
Flags: W
LayerCount: 2
Back
Fore
SplineSet
200 600 m 1,0,-1
 200 400 l 1,1,-1
 450 400 l 1,2,-1
 450 600 l 1,3,-1
 200 600 l 1,0,-1
200 300 m 1,4,-1
 200 100 l 1,5,-1
 450 100 l 1,6,-1
 450 300 l 1,7,-1
 200 300 l 1,4,-1
100 0 m 1,8,-1
 100 700 l 1,9,-1
 500 700 l 1,10,-1
 500 600 l 1,11,-1
 550 600 l 1,12,-1
 550 400 l 1,13,-1
 500 400 l 1,14,-1
 500 300 l 1,15,-1
 550 300 l 1,16,-1
 550 100 l 1,17,-1
 500 100 l 1,18,-1
 500 0 l 1,19,-1
 100 0 l 1,8,-1
EndSplineSet
Validated: 1
EndChar

StartChar: uni0413
Encoding: 1043 1043 256
Width: 600
GlyphClass: 2
Flags: W
LayerCount: 2
Back
Fore
SplineSet
100 700 m 1,0,-1
 550 700 l 1,1,-1
 550 600 l 1,2,-1
 200 600 l 1,3,-1
 200 0 l 1,4,-1
 100 0 l 1,5,-1
 100 700 l 1,0,-1
EndSplineSet
Validated: 1
EndChar

StartChar: uni0414
Encoding: 1044 1044 257
Width: 600
GlyphClass: 2
Flags: W
LayerCount: 2
Back
Fore
SplineSet
300 600 m 1,0,-1
 300 500 l 1,1,-1
 250 500 l 1,2,-1
 250 100 l 1,3,-1
 400 100 l 1,4,-1
 400 600 l 1,5,-1
 300 600 l 1,0,-1
200 500 m 1,6,-1
 200 600 l 1,7,-1
 250 600 l 1,8,-1
 250 700 l 1,9,-1
 500 700 l 1,10,-1
 500 100 l 1,11,-1
 550 100 l 1,12,-1
 550 -100 l 1,13,-1
 450 -100 l 1,14,-1
 450 0 l 1,15,-1
 200 0 l 1,16,-1
 200 -100 l 1,17,-1
 100 -100 l 1,18,-1
 100 100 l 1,19,-1
 150 100 l 1,20,-1
 150 500 l 1,21,-1
 200 500 l 1,6,-1
EndSplineSet
Validated: 1
EndChar

StartChar: uni0415
Encoding: 1045 1045 258
Width: 600
GlyphClass: 2
Flags: W
LayerCount: 2
Back
Fore
SplineSet
550 600 m 1,0,-1
 200 600 l 1,1,-1
 200 400 l 1,2,-1
 450 400 l 1,3,-1
 450 300 l 1,4,-1
 200 300 l 1,5,-1
 200 100 l 1,6,-1
 550 100 l 1,7,-1
 550 0 l 1,8,-1
 100 0 l 1,9,-1
 100 700 l 1,10,-1
 550 700 l 1,11,-1
 550 600 l 1,0,-1
EndSplineSet
Validated: 1
EndChar

StartChar: uni0416
Encoding: 1046 1046 259
Width: 600
GlyphClass: 2
Flags: W
LayerCount: 2
Back
Fore
SplineSet
50 700 m 1,0,-1
 149 700 l 1,1,-1
 150 500 l 1,2,-1
 199 500 l 1,3,-1
 200 400 l 1,4,-1
 250 400 l 1,5,-1
 250 700 l 1,6,-1
 350 700 l 1,7,-1
 350 400 l 1,8,-1
 400 400 l 1,9,-1
 400 500 l 1,10,-1
 450 500 l 1,11,-1
 450 700 l 1,12,-1
 550 700 l 1,13,-1
 550 500 l 1,14,-1
 500 500 l 1,15,-1
 500 400 l 1,16,-1
 450 400 l 1,17,-1
 449 300 l 1,18,-1
 500 300 l 1,19,-1
 500 200 l 1,20,-1
 550 200 l 1,21,-1
 550 0 l 1,22,-1
 450 0 l 1,23,-1
 450 200 l 1,24,-1
 400 200 l 1,25,-1
 400 300 l 1,26,-1
 350 300 l 1,27,-1
 350 0 l 1,28,-1
 250 0 l 1,29,-1
 250 300 l 1,30,-1
 200 300 l 1,31,-1
 200 200 l 1,32,-1
 150 200 l 1,33,-1
 150 0 l 1,34,-1
 50 0 l 1,35,-1
 50 200 l 1,36,-1
 100 200 l 1,37,-1
 100 300 l 1,38,-1
 150 300 l 1,39,-1
 150 400 l 1,40,-1
 100 400 l 1,41,-1
 100 500 l 1,42,-1
 50 500 l 1,43,-1
 50 700 l 1,0,-1
EndSplineSet
Validated: 1
EndChar

StartChar: uni0417
Encoding: 1047 1047 260
Width: 600
GlyphClass: 2
Flags: W
LayerCount: 2
Back
Fore
SplineSet
100 500 m 1,0,-1
 100 600 l 1,1,-1
 150 600 l 1,2,-1
 150 700 l 1,3,-1
 500 700 l 1,4,-1
 500 600 l 1,5,-1
 550 600 l 1,6,-1
 550 400 l 1,7,-1
 500 400 l 1,8,-1
 500 300 l 1,9,-1
 550 300 l 1,10,-1
 550 100 l 1,11,-1
 500 100 l 1,12,-1
 500 0 l 1,13,-1
 150 0 l 1,14,-1
 150 100 l 1,15,-1
 100 100 l 1,16,-1
 100 200 l 1,17,-1
 199 200 l 1,18,-1
 200 100 l 1,19,-1
 450 100 l 1,20,-1
 450 300 l 1,21,-1
 250 300 l 1,22,-1
 250 400 l 1,23,-1
 450 400 l 1,24,-1
 450 600 l 1,25,-1
 200 600 l 1,26,-1
 200 500 l 1,27,-1
 100 500 l 1,0,-1
EndSplineSet
Validated: 1
EndChar

StartChar: uni0418
Encoding: 1048 1048 261
Width: 600
GlyphClass: 2
Flags: W
LayerCount: 2
Back
Fore
SplineSet
50 700 m 1,0,-1
 150 700 l 1,1,-1
 150 200 l 1,2,-1
 200 200 l 1,3,-1
 200 300 l 1,4,-1
 250 300 l 1,5,-1
 250 400 l 1,6,-1
 300 400 l 1,7,-1
 300 500 l 1,8,-1
 350 500 l 1,9,-1
 350 600 l 1,10,-1
 400 600 l 1,11,-1
 400 700 l 1,12,-1
 550 700 l 1,13,-1
 550 0 l 1,14,-1
 450 0 l 1,15,-1
 450 500 l 1,16,-1
 400 500 l 1,17,-1
 400 400 l 1,18,-1
 350 400 l 1,19,-1
 350 300 l 1,20,-1
 300 300 l 1,21,-1
 300 200 l 1,22,-1
 250 200 l 1,23,-1
 250 100 l 1,24,-1
 200 100 l 1,25,-1
 200 0 l 1,26,-1
 50 0 l 1,27,-1
 50 700 l 1,0,-1
EndSplineSet
Validated: 1
EndChar

StartChar: uni0419
Encoding: 1049 1049 262
Width: 600
GlyphClass: 2
Flags: W
LayerCount: 2
Back
Fore
SplineSet
250 700 m 1,0,-1
 250 800 l 1,1,-1
 300 800 l 1,2,-1
 300 700 l 1,3,-1
 250 700 l 1,0,-1
50 700 m 1,4,-1
 150 700 l 1,5,-1
 150 200 l 1,6,-1
 200 200 l 1,7,-1
 200 300 l 1,8,-1
 250 300 l 1,9,-1
 250 400 l 1,10,-1
 300 400 l 1,11,-1
 300 500 l 1,12,-1
 350 500 l 1,13,-1
 350 600 l 1,14,-1
 400 600 l 1,15,-1
 400 700 l 1,16,-1
 550 700 l 1,17,-1
 550 0 l 1,18,-1
 450 0 l 1,19,-1
 450 500 l 1,20,-1
 400 500 l 1,21,-1
 400 400 l 1,22,-1
 350 400 l 1,23,-1
 350 300 l 1,24,-1
 300 300 l 1,25,-1
 300 200 l 1,26,-1
 250 200 l 1,27,-1
 250 100 l 1,28,-1
 200 100 l 1,29,-1
 200 0 l 1,30,-1
 50 0 l 1,31,-1
 50 700 l 1,4,-1
EndSplineSet
Validated: 1
EndChar

StartChar: uni041A
Encoding: 1050 1050 263
Width: 600
GlyphClass: 2
Flags: W
LayerCount: 2
Back
Fore
SplineSet
100 700 m 1,0,-1
 200 700 l 1,1,-1
 200 400 l 1,2,-1
 250 400 l 1,3,-1
 250 500 l 1,4,-1
 350 500 l 1,5,-1
 350 600 l 1,6,-1
 400 600 l 1,7,-1
 400 700 l 1,8,-1
 550 700 l 1,9,-1
 550 600 l 1,10,-1
 450 600 l 1,11,-1
 450 500 l 1,12,-1
 400 500 l 1,13,-1
 400 400 l 1,14,-1
 300 400 l 1,15,-1
 300 300 l 1,16,-1
 400 300 l 1,17,-1
 400 200 l 1,18,-1
 450 200 l 1,19,-1
 450 100 l 1,20,-1
 550 100 l 1,21,-1
 550 0 l 1,22,-1
 400 0 l 1,23,-1
 400 100 l 1,24,-1
 350 100 l 1,25,-1
 350 200 l 1,26,-1
 250 200 l 1,27,-1
 250 300 l 1,28,-1
 200 300 l 1,29,-1
 200 0 l 1,30,-1
 100 0 l 1,31,-1
 100 700 l 1,0,-1
EndSplineSet
Validated: 1
EndChar

StartChar: uni041B
Encoding: 1051 1051 264
Width: 600
GlyphClass: 2
Flags: W
LayerCount: 2
Back
Fore
SplineSet
100 0 m 1,0,-1
 100 100 l 1,1,-1
 150 100 l 1,2,-1
 150 200 l 1,3,-1
 200 200 l 1,4,-1
 200 600 l 1,5,-1
 250 600 l 1,6,-1
 250 700 l 1,7,-1
 550 700 l 1,8,-1
 550 0 l 1,9,-1
 450 0 l 1,10,-1
 450 600 l 1,11,-1
 300 600 l 1,12,-1
 300 200 l 1,13,-1
 250 200 l 1,14,-1
 250 100 l 1,15,-1
 200 100 l 1,16,-1
 200 0 l 1,17,-1
 100 0 l 1,0,-1
EndSplineSet
Validated: 1
EndChar

StartChar: uni041C
Encoding: 1052 1052 265
Width: 600
GlyphClass: 2
Flags: W
LayerCount: 2
Back
Fore
SplineSet
150 0 m 1,0,-1
 50 0 l 1,1,-1
 50 700 l 1,2,-1
 200 700 l 1,3,-1
 200 600 l 1,4,-1
 250 600 l 1,5,-1
 250 500 l 1,6,-1
 350 500 l 1,7,-1
 350 600 l 1,8,-1
 400 600 l 1,9,-1
 400 700 l 1,10,-1
 550 700 l 1,11,-1
 550 0 l 1,12,-1
 450 0 l 1,13,-1
 450 500 l 1,14,-1
 400 500 l 1,15,-1
 400 400 l 1,16,-1
 350 400 l 1,17,-1
 350 300 l 1,18,-1
 250 300 l 1,19,-1
 250 400 l 1,20,-1
 200 400 l 1,21,-1
 200 500 l 1,22,-1
 150 500 l 1,23,-1
 150 0 l 1,0,-1
EndSplineSet
Validated: 1
EndChar

StartChar: uni041D
Encoding: 1053 1053 266
Width: 600
GlyphClass: 2
Flags: W
LayerCount: 2
Back
Fore
SplineSet
100 700 m 1,0,-1
 200 700 l 1,1,-1
 200 400 l 1,2,-1
 450 400 l 1,3,-1
 450 700 l 1,4,-1
 550 700 l 1,5,-1
 550 0 l 1,6,-1
 450 0 l 1,7,-1
 450 300 l 1,8,-1
 200 300 l 1,9,-1
 200 0 l 1,10,-1
 100 0 l 1,11,-1
 100 700 l 1,0,-1
EndSplineSet
Validated: 1
EndChar

StartChar: uni041E
Encoding: 1054 1054 267
Width: 600
GlyphClass: 2
Flags: W
LayerCount: 2
Back
Fore
SplineSet
400 100 m 1,0,-1
 400 200 l 1,1,-1
 450 200 l 1,2,-1
 450 500 l 1,3,-1
 400 500 l 1,4,-1
 400 600 l 1,5,-1
 200 600 l 1,6,-1
 200 500 l 1,7,-1
 150 500 l 1,8,-1
 150 200 l 1,9,-1
 200 200 l 1,10,-1
 200 100 l 1,11,-1
 400 100 l 1,0,-1
450 0 m 1,12,-1
 150 0 l 1,13,-1
 150 100 l 1,14,-1
 100 100 l 1,15,-1
 100 200 l 1,16,-1
 50 200 l 1,17,-1
 50 500 l 1,18,-1
 100 500 l 1,19,-1
 100 600 l 1,20,-1
 150 600 l 1,21,-1
 150 700 l 1,22,-1
 450 700 l 1,23,-1
 450 600 l 1,24,-1
 500 600 l 1,25,-1
 500 500 l 1,26,-1
 550 500 l 1,27,-1
 550 200 l 1,28,-1
 500 200 l 1,29,-1
 500 100 l 1,30,-1
 450 100 l 1,31,-1
 450 0 l 1,12,-1
EndSplineSet
Validated: 1
EndChar

StartChar: uni041F
Encoding: 1055 1055 268
Width: 600
GlyphClass: 2
Flags: W
LayerCount: 2
Back
Fore
SplineSet
100 700 m 1,0,-1
 550 700 l 1,1,-1
 550 0 l 1,2,-1
 450 0 l 1,3,-1
 450 600 l 1,4,-1
 200 600 l 1,5,-1
 200 0 l 1,6,-1
 100 0 l 1,7,-1
 100 700 l 1,0,-1
EndSplineSet
Validated: 1
EndChar

StartChar: uni0420
Encoding: 1056 1056 269
Width: 600
GlyphClass: 2
Flags: W
LayerCount: 2
Back
Fore
SplineSet
200 600 m 1,0,-1
 200 400 l 1,1,-1
 450 400 l 1,2,-1
 450 600 l 1,3,-1
 200 600 l 1,0,-1
100 700 m 1,4,-1
 500 700 l 1,5,-1
 500 650 l 1,6,-1
 550 650 l 1,7,-1
 550 400 l 1,8,-1
 500 400 l 1,9,-1
 500 300 l 1,10,-1
 200 300 l 1,11,-1
 200 0 l 1,12,-1
 100 0 l 1,13,-1
 100 700 l 1,4,-1
EndSplineSet
Validated: 1
EndChar

StartChar: uni0421
Encoding: 1057 1057 270
Width: 600
GlyphClass: 2
Flags: W
LayerCount: 2
Back
Fore
SplineSet
200 700 m 1,0,-1
 500 700 l 1,1,-1
 500 600 l 1,2,-1
 550 600 l 1,3,-1
 550 500 l 1,4,-1
 450 500 l 1,5,-1
 450 600 l 1,6,-1
 250 600 l 1,7,-1
 250 500 l 1,8,-1
 200 500 l 1,9,-1
 200 200 l 1,10,-1
 250 200 l 1,11,-1
 250 100 l 1,12,-1
 450 100 l 1,13,-1
 450 200 l 1,14,-1
 550 200 l 1,15,-1
 550 100 l 1,16,-1
 500 100 l 1,17,-1
 500 0 l 1,18,-1
 200 0 l 1,19,-1
 200 100 l 1,20,-1
 150 100 l 1,21,-1
 150 200 l 1,22,-1
 100 200 l 1,23,-1
 100 500 l 1,24,-1
 150 500 l 1,25,-1
 150 600 l 1,26,-1
 200 600 l 1,27,-1
 200 700 l 1,0,-1
EndSplineSet
Validated: 1
EndChar

StartChar: uni0422
Encoding: 1058 1058 271
Width: 600
GlyphClass: 2
Flags: W
LayerCount: 2
Back
Fore
SplineSet
50 700 m 1,0,-1
 550 700 l 1,1,-1
 550 600 l 1,2,-1
 350 600 l 1,3,-1
 350 0 l 1,4,-1
 250 0 l 1,5,-1
 250 600 l 1,6,-1
 50 600 l 1,7,-1
 50 700 l 1,0,-1
EndSplineSet
Validated: 1
EndChar

StartChar: uni0423
Encoding: 1059 1059 272
Width: 600
GlyphClass: 2
Flags: W
LayerCount: 2
Back
Fore
SplineSet
100 700 m 1,0,-1
 200 700 l 1,1,-1
 200 400 l 1,2,-1
 450 400 l 1,3,-1
 450 700 l 1,4,-1
 550 700 l 1,5,-1
 550 100 l 1,6,-1
 500 100 l 1,7,-1
 500 0 l 1,8,-1
 150 0 l 1,9,-1
 150 100 l 1,10,-1
 100 100 l 1,11,-1
 100 200 l 1,12,-1
 200 200 l 1,13,-1
 200 100 l 1,14,-1
 450 100 l 1,15,-1
 450 300 l 1,16,-1
 150 300 l 1,17,-1
 150 400 l 1,18,-1
 100 400 l 1,19,-1
 100 700 l 1,0,-1
EndSplineSet
Validated: 1
EndChar

StartChar: uni0424
Encoding: 1060 1060 273
Width: 600
GlyphClass: 2
Flags: W
LayerCount: 2
Back
Fore
SplineSet
350 500 m 1,0,-1
 350 200 l 1,1,-1
 450 200 l 1,2,-1
 450 500 l 1,3,-1
 350 500 l 1,0,-1
150 500 m 1,4,-1
 150 200 l 1,5,-1
 250 200 l 1,6,-1
 250 500 l 1,7,-1
 150 500 l 1,4,-1
250 600 m 1,8,-1
 250 700 l 1,9,-1
 350 700 l 1,10,-1
 350 600 l 1,11,-1
 500 600 l 1,12,-1
 500 500 l 1,13,-1
 550 500 l 1,14,-1
 550 200 l 1,15,-1
 500 200 l 1,16,-1
 500 100 l 1,17,-1
 350 100 l 1,18,-1
 350 0 l 1,19,-1
 250 0 l 1,20,-1
 250 100 l 1,21,-1
 100 100 l 1,22,-1
 100 200 l 1,23,-1
 50 200 l 1,24,-1
 50 500 l 1,25,-1
 100 500 l 1,26,-1
 100 600 l 1,27,-1
 250 600 l 1,8,-1
EndSplineSet
Validated: 1
EndChar

StartChar: uni0425
Encoding: 1061 1061 274
Width: 600
GlyphClass: 2
Flags: W
LayerCount: 2
Back
Fore
SplineSet
100 700 m 1,0,-1
 200 700 l 1,1,-1
 200 600 l 1,2,-1
 250 600 l 1,3,-1
 250 500 l 1,4,-1
 350 500 l 1,5,-1
 350 600 l 1,6,-1
 400 600 l 1,7,-1
 400 700 l 1,8,-1
 500 700 l 1,9,-1
 500 600 l 1,10,-1
 450 600 l 1,11,-1
 450 500 l 1,12,-1
 400 500 l 1,13,-1
 400 400 l 1,14,-1
 350 400 l 1,15,-1
 350 300 l 1,16,-1
 400 300 l 1,17,-1
 400 200 l 1,18,-1
 450 200 l 1,19,-1
 450 100 l 1,20,-1
 500 100 l 1,21,-1
 500 0 l 1,22,-1
 400 0 l 1,23,-1
 400 100 l 1,24,-1
 350 100 l 1,25,-1
 350 200 l 1,26,-1
 250 200 l 1,27,-1
 250 100 l 1,28,-1
 200 100 l 1,29,-1
 200 0 l 1,30,-1
 100 0 l 1,31,-1
 100 100 l 1,32,-1
 150 100 l 1,33,-1
 150 200 l 1,34,-1
 200 200 l 1,35,-1
 200 300 l 1,36,-1
 250 300 l 1,37,-1
 250 400 l 1,38,-1
 200 400 l 1,39,-1
 200 500 l 1,40,-1
 150 500 l 1,41,-1
 150 600 l 1,42,-1
 100 600 l 1,43,-1
 100 700 l 1,0,-1
EndSplineSet
Validated: 1
EndChar

StartChar: uni0426
Encoding: 1062 1062 275
Width: 600
GlyphClass: 2
Flags: W
LayerCount: 2
Back
Fore
SplineSet
100 700 m 1,0,-1
 200 700 l 1,1,-1
 200 100 l 1,2,-1
 350 100 l 1,3,-1
 350 700 l 1,4,-1
 450 700 l 1,5,-1
 450 100 l 1,6,-1
 550 100 l 1,7,-1
 550 -100 l 1,8,-1
 450 -100 l 1,9,-1
 450 0 l 1,10,-1
 100 0 l 1,11,-1
 100 700 l 1,0,-1
EndSplineSet
Validated: 1
EndChar

StartChar: uni0427
Encoding: 1063 1063 276
Width: 600
GlyphClass: 2
Flags: W
LayerCount: 2
Back
Fore
SplineSet
100 700 m 1,0,-1
 200 700 l 1,1,-1
 200 500 l 1,2,-1
 250 500 l 1,3,-1
 250 400 l 1,4,-1
 450 400 l 1,5,-1
 450 700 l 1,6,-1
 550 700 l 1,7,-1
 550 0 l 1,8,-1
 450 0 l 1,9,-1
 450 300 l 1,10,-1
 200 300 l 1,11,-1
 200 400 l 1,12,-1
 150 400 l 1,13,-1
 150 500 l 1,14,-1
 100 500 l 1,15,-1
 100 700 l 1,0,-1
EndSplineSet
Validated: 1
EndChar

StartChar: uni0428
Encoding: 1064 1064 277
Width: 600
GlyphClass: 2
Flags: W
LayerCount: 2
Back
Fore
SplineSet
50 700 m 1,0,-1
 150 700 l 1,1,-1
 150 100 l 1,2,-1
 250 100 l 1,3,-1
 250 700 l 1,4,-1
 350 700 l 1,5,-1
 350 100 l 1,6,-1
 450 100 l 1,7,-1
 450 700 l 1,8,-1
 550 700 l 1,9,-1
 550 0 l 1,10,-1
 50 0 l 1,11,-1
 50 700 l 1,0,-1
EndSplineSet
Validated: 1
EndChar

StartChar: uni0429
Encoding: 1065 1065 278
Width: 600
GlyphClass: 2
Flags: W
LayerCount: 2
Back
Fore
SplineSet
50 700 m 1,0,-1
 150 700 l 1,1,-1
 150 100 l 1,2,-1
 250 100 l 1,3,-1
 250 700 l 1,4,-1
 350 700 l 1,5,-1
 350 100 l 1,6,-1
 450 100 l 1,7,-1
 450 700 l 1,8,-1
 550 700 l 1,9,-1
 550 100 l 1,10,-1
 600 100 l 1,11,-1
 600 -100 l 1,12,-1
 500 -100 l 1,13,-1
 500 0 l 1,14,-1
 50 0 l 1,15,-1
 50 700 l 1,0,-1
EndSplineSet
Validated: 1
EndChar

StartChar: uni042A
Encoding: 1066 1066 279
Width: 600
GlyphClass: 2
Flags: W
LayerCount: 2
Back
Fore
SplineSet
250 300 m 1,0,-1
 250 100 l 1,1,-1
 450 100 l 1,2,-1
 450 300 l 1,3,-1
 250 300 l 1,0,-1
50 700 m 1,4,-1
 250 700 l 1,5,-1
 250 400 l 1,6,-1
 500 400 l 1,7,-1
 500 300 l 1,8,-1
 550 300 l 1,9,-1
 550 100 l 1,10,-1
 500 100 l 1,11,-1
 500 0 l 1,12,-1
 150 0 l 1,13,-1
 150 600 l 1,14,-1
 50 600 l 1,15,-1
 50 700 l 1,4,-1
EndSplineSet
Validated: 1
EndChar

StartChar: uni042B
Encoding: 1067 1067 280
Width: 600
GlyphClass: 2
Flags: W
LayerCount: 2
Back
Fore
SplineSet
300 300 m 1,0,-1
 150 300 l 1,1,-1
 150 100 l 1,2,-1
 300 100 l 1,3,-1
 300 300 l 1,0,-1
450 700 m 1,4,-1
 550 700 l 1,5,-1
 550 0 l 1,6,-1
 450 0 l 1,7,-1
 450 700 l 1,4,-1
50 700 m 1,8,-1
 150 700 l 1,9,-1
 150 400 l 1,10,-1
 350 400 l 1,11,-1
 350 300 l 1,12,-1
 400 300 l 1,13,-1
 400 100 l 1,14,-1
 350 100 l 1,15,-1
 350 0 l 1,16,-1
 50 0 l 1,17,-1
 50 700 l 1,8,-1
EndSplineSet
Validated: 1
EndChar

StartChar: uni042C
Encoding: 1068 1068 281
Width: 600
GlyphClass: 2
Flags: W
LayerCount: 2
Back
Fore
SplineSet
250 100 m 1,0,-1
 450 100 l 1,1,-1
 450 300 l 1,2,-1
 250 300 l 1,3,-1
 250 100 l 1,0,-1
150 700 m 1,4,-1
 249 700 l 1,5,-1
 249 400 l 1,6,-1
 500 400 l 1,7,-1
 500 300 l 1,8,-1
 548 300 l 1,9,-1
 550 101 l 1,10,-1
 500 100 l 1,11,-1
 500 0 l 1,12,-1
 150 0 l 1,13,-1
 150 700 l 1,4,-1
EndSplineSet
Validated: 1
EndChar

StartChar: uni042D
Encoding: 1069 1069 282
Width: 600
GlyphClass: 2
Flags: W
LayerCount: 2
Back
Fore
SplineSet
100 500 m 1,0,-1
 100 600 l 1,1,-1
 150 600 l 1,2,-1
 150 700 l 1,3,-1
 450 700 l 1,4,-1
 450 600 l 1,5,-1
 500 600 l 1,6,-1
 500 500 l 1,7,-1
 550 500 l 1,8,-1
 550 200 l 1,9,-1
 500 200 l 1,10,-1
 500 100 l 1,11,-1
 450 100 l 1,12,-1
 450 0 l 1,13,-1
 150 0 l 1,14,-1
 150 100 l 1,15,-1
 100 100 l 1,16,-1
 100 200 l 1,17,-1
 200 200 l 1,18,-1
 200 100 l 1,19,-1
 400 100 l 1,20,-1
 400 200 l 1,21,-1
 450 200 l 1,22,-1
 450 300 l 1,23,-1
 250 300 l 1,24,-1
 250 400 l 1,25,-1
 450 400 l 1,26,-1
 450 500 l 1,27,-1
 400 500 l 1,28,-1
 400 600 l 1,29,-1
 200 600 l 1,30,-1
 200 500 l 1,31,-1
 100 500 l 1,0,-1
EndSplineSet
Validated: 1
EndChar

StartChar: uni042E
Encoding: 1070 1070 283
Width: 600
GlyphClass: 2
Flags: W
LayerCount: 2
Back
Fore
SplineSet
350 600 m 1,0,-1
 350 100 l 1,1,-1
 450 100 l 1,2,-1
 450 600 l 1,3,-1
 350 600 l 1,0,-1
100 700 m 1,4,-1
 200 700 l 1,5,-1
 200 400 l 1,6,-1
 250 400 l 1,7,-1
 250 600 l 1,8,-1
 300 600 l 1,9,-1
 300 700 l 1,10,-1
 500 700 l 1,11,-1
 500 600 l 1,12,-1
 550 600 l 1,13,-1
 550 100 l 1,14,-1
 500 100 l 1,15,-1
 500 0 l 1,16,-1
 300 0 l 1,17,-1
 300 100 l 1,18,-1
 250 100 l 1,19,-1
 250 300 l 1,20,-1
 200 300 l 1,21,-1
 200 0 l 1,22,-1
 100 0 l 1,23,-1
 100 700 l 1,4,-1
EndSplineSet
Validated: 1
EndChar

StartChar: uni042F
Encoding: 1071 1071 284
Width: 600
GlyphClass: 2
Flags: W
LayerCount: 2
Back
Fore
SplineSet
200 600 m 1,0,-1
 200 400 l 1,1,-1
 450 400 l 1,2,-1
 450 600 l 1,3,-1
 200 600 l 1,0,-1
150 700 m 1,4,-1
 550 700 l 1,5,-1
 550 0 l 1,6,-1
 450 0 l 1,7,-1
 450 200 l 1,8,-1
 350 200 l 1,9,-1
 350 100 l 1,10,-1
 300 100 l 1,11,-1
 300 0 l 1,12,-1
 100 0 l 1,13,-1
 100 100 l 1,14,-1
 200 100 l 1,15,-1
 200 200 l 1,16,-1
 300 200 l 1,17,-1
 300 300 l 1,18,-1
 150 300 l 1,19,-1
 150 400 l 1,20,-1
 100 400 l 1,21,-1
 100 600 l 1,22,-1
 150 600 l 1,23,-1
 150 700 l 1,4,-1
EndSplineSet
Validated: 1
EndChar

StartChar: uni0430
Encoding: 1072 1072 285
Width: 600
GlyphClass: 2
Flags: W
LayerCount: 2
Back
Fore
SplineSet
150 200 m 1,0,-1
 150 100 l 1,1,-1
 400 100 l 1,2,-1
 400 200 l 1,3,-1
 150 200 l 1,0,-1
100 500 m 1,4,-1
 450 500 l 1,5,-1
 450 400 l 1,6,-1
 500 400 l 1,7,-1
 500 100 l 1,8,-1
 549 100 l 1,9,-1
 550 0 l 1,10,-1
 100 0 l 1,11,-1
 100 100 l 1,12,-1
 50 100 l 1,13,-1
 50 200 l 1,14,-1
 100 200 l 1,15,-1
 100 300 l 1,16,-1
 400 300 l 1,17,-1
 400 400 l 1,18,-1
 100 400 l 1,19,-1
 100 500 l 1,4,-1
EndSplineSet
Validated: 1
EndChar

StartChar: uni0431
Encoding: 1073 1073 286
Width: 600
GlyphClass: 2
Flags: W
LayerCount: 2
Back
Fore
SplineSet
200 300 m 1,0,-1
 200 100 l 1,1,-1
 450 100 l 1,2,-1
 450 300 l 1,3,-1
 200 300 l 1,0,-1
150 700 m 1,4,-1
 550 700 l 1,5,-1
 550 600 l 1,6,-1
 300 600 l 1,7,-1
 300 500 l 1,8,-1
 450 500 l 1,9,-1
 450 400 l 1,10,-1
 500 400 l 1,11,-1
 500 300 l 1,12,-1
 550 300 l 1,13,-1
 550 100 l 1,14,-1
 500 100 l 1,15,-1
 500 0 l 1,16,-1
 150 0 l 1,17,-1
 150 100 l 1,18,-1
 100 100 l 1,19,-1
 100 300 l 1,20,-1
 150 300 l 1,21,-1
 150 400 l 1,22,-1
 300 400 l 1,23,-1
 300 500 l 1,24,-1
 200 500 l 1,25,-1
 200 600 l 1,26,-1
 150 600 l 1,27,-1
 150 700 l 1,4,-1
EndSplineSet
Validated: 5
EndChar

StartChar: uni0432
Encoding: 1074 1074 287
Width: 600
GlyphClass: 2
Flags: W
LayerCount: 2
Back
Fore
SplineSet
200 200 m 1,0,-1
 200 100 l 1,1,-1
 450 100 l 1,2,-1
 450 200 l 1,3,-1
 200 200 l 1,0,-1
200 400 m 1,4,-1
 200 300 l 1,5,-1
 450 300 l 1,6,-1
 450 400 l 1,7,-1
 200 400 l 1,4,-1
100 500 m 1,8,-1
 500 500 l 1,9,-1
 500 400 l 1,10,-1
 550 400 l 1,11,-1
 550 300 l 1,12,-1
 500 300 l 1,13,-1
 500 200 l 1,14,-1
 550 200 l 1,15,-1
 550 100 l 1,16,-1
 500 100 l 1,17,-1
 500 0 l 1,18,-1
 100 0 l 1,19,-1
 100 500 l 1,8,-1
EndSplineSet
Validated: 1
EndChar

StartChar: uni0433
Encoding: 1075 1075 288
Width: 600
GlyphClass: 2
Flags: W
LayerCount: 2
Back
Fore
SplineSet
100 0 m 1,0,-1
 100 500 l 1,1,-1
 550 500 l 1,2,-1
 550 401 l 1,3,-1
 200 400 l 1,4,-1
 200 0 l 1,5,-1
 100 0 l 1,0,-1
EndSplineSet
Validated: 1
EndChar

StartChar: uni0434
Encoding: 1076 1076 289
Width: 600
GlyphClass: 2
Flags: W
LayerCount: 2
Back
Fore
SplineSet
250 400 m 1,0,-1
 250 100 l 1,1,-1
 350 100 l 1,2,-1
 350 400 l 1,3,-1
 250 400 l 1,0,-1
200 500 m 1,4,-1
 450 500 l 1,5,-1
 450 100 l 1,6,-1
 550 100 l 1,7,-1
 550 -100 l 1,8,-1
 450 -100 l 1,9,-1
 450 0 l 1,10,-1
 149 -1 l 1,11,-1
 150 -100 l 1,12,-1
 50 -100 l 1,13,-1
 50 100 l 1,14,-1
 150 100 l 1,15,-1
 150 400 l 1,16,-1
 200 400 l 1,17,-1
 200 500 l 1,4,-1
EndSplineSet
Validated: 1
EndChar

StartChar: uni0435
Encoding: 1077 1077 290
Width: 600
GlyphClass: 2
Flags: W
LayerCount: 2
Back
Fore
SplineSet
200 400 m 1,0,-1
 200 300 l 1,1,-1
 450 300 l 1,2,-1
 450 400 l 1,3,-1
 200 400 l 1,0,-1
150 400 m 1,4,-1
 150 500 l 1,5,-1
 499 500 l 1,6,-1
 500 400 l 1,7,-1
 550 400 l 1,8,-1
 550 200 l 1,9,-1
 200 200 l 1,10,-1
 200 100 l 1,11,-1
 500 100 l 1,12,-1
 500 0 l 1,13,-1
 150 0 l 1,14,-1
 150 100 l 1,15,-1
 100 100 l 1,16,-1
 100 400 l 1,17,-1
 150 400 l 1,4,-1
EndSplineSet
Validated: 1
EndChar

StartChar: uni0436
Encoding: 1078 1078 291
Width: 600
GlyphClass: 2
Flags: W
LayerCount: 2
Back
Fore
SplineSet
50 500 m 1,0,-1
 150 500 l 1,1,-1
 150 400 l 1,2,-1
 200 400 l 1,3,-1
 200 300 l 1,4,-1
 250 300 l 1,5,-1
 250 500 l 1,6,-1
 350 500 l 1,7,-1
 350 300 l 1,8,-1
 400 300 l 1,9,-1
 400 400 l 1,10,-1
 450 400 l 1,11,-1
 450 500 l 1,12,-1
 550 500 l 1,13,-1
 550 400 l 1,14,-1
 500 400 l 1,15,-1
 500 300 l 1,16,-1
 450 300 l 1,17,-1
 450 200 l 1,18,-1
 500 200 l 1,19,-1
 500 100 l 1,20,-1
 550 100 l 1,21,-1
 550 0 l 1,22,-1
 450 0 l 1,23,-1
 450 100 l 1,24,-1
 400 100 l 1,25,-1
 400 200 l 1,26,-1
 350 200 l 1,27,-1
 350 0 l 1,28,-1
 250 0 l 1,29,-1
 250 200 l 1,30,-1
 200 200 l 1,31,-1
 200 100 l 1,32,-1
 150 100 l 1,33,-1
 150 0 l 1,34,-1
 50 0 l 1,35,-1
 50 100 l 1,36,-1
 100 100 l 1,37,-1
 100 200 l 1,38,-1
 150 200 l 1,39,-1
 150 300 l 1,40,-1
 100 300 l 1,41,-1
 100 400 l 1,42,-1
 50 400 l 1,43,-1
 50 500 l 1,0,-1
EndSplineSet
Validated: 1
EndChar

StartChar: uni0437
Encoding: 1079 1079 292
Width: 600
GlyphClass: 2
Flags: W
LayerCount: 2
Back
Fore
SplineSet
100 400 m 1,0,-1
 150 400 l 1,1,-1
 150 500 l 1,2,-1
 500 500 l 1,3,-1
 500 400 l 1,4,-1
 550 400 l 1,5,-1
 550 300 l 1,6,-1
 500 300 l 1,7,-1
 500 200 l 1,8,-1
 550 200 l 1,9,-1
 550 100 l 1,10,-1
 500 100 l 1,11,-1
 500 0 l 1,12,-1
 150 0 l 1,13,-1
 150 100 l 1,14,-1
 100 100 l 1,15,-1
 100 200 l 1,16,-1
 200 200 l 1,17,-1
 200 100 l 1,18,-1
 450 100 l 1,19,-1
 450 200 l 1,20,-1
 300 200 l 1,21,-1
 300 300 l 1,22,-1
 450 300 l 1,23,-1
 450 400 l 1,24,-1
 200 400 l 1,25,-1
 200 300 l 1,26,-1
 100 300 l 1,27,-1
 100 400 l 1,0,-1
EndSplineSet
Validated: 1
EndChar

StartChar: uni0438
Encoding: 1080 1080 293
Width: 600
GlyphClass: 2
Flags: W
LayerCount: 2
Back
Fore
SplineSet
100 0 m 1,0,-1
 100 500 l 1,1,-1
 200 500 l 1,2,-1
 200 100 l 1,3,-1
 250 100 l 1,4,-1
 250 200 l 1,5,-1
 300 200 l 1,6,-1
 300 300 l 1,7,-1
 350 300 l 1,8,-1
 350 400 l 1,9,-1
 400 400 l 1,10,-1
 400 500 l 1,11,-1
 550 500 l 1,12,-1
 550 0 l 1,13,-1
 450 0 l 1,14,-1
 450 400 l 1,15,-1
 400 400 l 1,16,-1
 400 300 l 1,17,-1
 350 300 l 1,18,-1
 350 200 l 1,19,-1
 300 200 l 1,20,-1
 300 100 l 1,21,-1
 250 100 l 1,22,-1
 250 0 l 1,23,-1
 100 0 l 1,0,-1
EndSplineSet
Validated: 5
EndChar

StartChar: uni0439
Encoding: 1081 1081 294
Width: 600
GlyphClass: 2
Flags: W
LayerCount: 2
Back
Fore
SplineSet
150 800 m 1,0,-1
 250 800 l 1,1,-1
 250 700 l 1,2,-1
 400 700 l 1,3,-1
 400 800 l 1,4,-1
 500 800 l 1,5,-1
 500 700 l 1,6,-1
 450 700 l 1,7,-1
 450 600 l 1,8,-1
 200 600 l 1,9,-1
 200 700 l 1,10,-1
 150 700 l 1,11,-1
 150 800 l 1,0,-1
100 0 m 1,12,-1
 100 500 l 1,13,-1
 200 500 l 1,14,-1
 200 100 l 1,15,-1
 250 100 l 1,16,-1
 250 200 l 1,17,-1
 300 200 l 1,18,-1
 300 300 l 1,19,-1
 350 300 l 1,20,-1
 350 400 l 1,21,-1
 400 400 l 1,22,-1
 400 500 l 1,23,-1
 550 500 l 1,24,-1
 550 0 l 1,25,-1
 450 0 l 1,26,-1
 450 400 l 1,27,-1
 400 400 l 1,28,-1
 400 300 l 1,29,-1
 350 300 l 1,30,-1
 350 200 l 1,31,-1
 300 200 l 1,32,-1
 300 100 l 1,33,-1
 250 100 l 1,34,-1
 250 0 l 1,35,-1
 100 0 l 1,12,-1
EndSplineSet
Validated: 5
EndChar

StartChar: uni043A
Encoding: 1082 1082 295
Width: 600
GlyphClass: 2
Flags: W
LayerCount: 2
Back
Fore
SplineSet
100 500 m 1,0,-1
 200 500 l 1,1,-1
 200 300 l 1,2,-1
 350 300 l 1,3,-1
 350 400 l 1,4,-1
 400 400 l 1,5,-1
 400 500 l 1,6,-1
 550 500 l 1,7,-1
 550 400 l 1,8,-1
 450 400 l 1,9,-1
 450 300 l 1,10,-1
 400 300 l 1,11,-1
 400 200 l 1,12,-1
 450 200 l 1,13,-1
 450 100 l 1,14,-1
 550 100 l 1,15,-1
 550 0 l 1,16,-1
 400 0 l 1,17,-1
 400 100 l 1,18,-1
 350 100 l 1,19,-1
 350 200 l 1,20,-1
 200 200 l 1,21,-1
 200 0 l 1,22,-1
 100 0 l 1,23,-1
 100 500 l 1,0,-1
EndSplineSet
Validated: 1
EndChar

StartChar: uni043B
Encoding: 1083 1083 296
Width: 600
GlyphClass: 2
Flags: W
LayerCount: 2
Back
Fore
SplineSet
100 100 m 1,0,-1
 150 100 l 1,1,-1
 150 400 l 1,2,-1
 200 400 l 1,3,-1
 200 500 l 1,4,-1
 550 500 l 1,5,-1
 550 0 l 1,6,-1
 450 0 l 1,7,-1
 450 400 l 1,8,-1
 250 400 l 1,9,-1
 250 100 l 1,10,-1
 200 100 l 1,11,-1
 200 0 l 1,12,-1
 100 0 l 1,13,-1
 100 100 l 1,0,-1
EndSplineSet
Validated: 1
EndChar

StartChar: uni043C
Encoding: 1084 1084 297
Width: 600
GlyphClass: 2
Flags: W
LayerCount: 2
Back
Fore
SplineSet
100 0 m 1,0,-1
 100 500 l 1,1,-1
 250 500 l 1,2,-1
 250 400 l 1,3,-1
 300 400 l 1,4,-1
 300 300 l 1,5,-1
 350 300 l 1,6,-1
 350 400 l 1,7,-1
 400 400 l 1,8,-1
 400 500 l 1,9,-1
 550 500 l 1,10,-1
 550 0 l 1,11,-1
 450 0 l 1,12,-1
 450 300 l 1,13,-1
 400 300 l 1,14,-1
 400 200 l 1,15,-1
 350 200 l 1,16,-1
 350 100 l 1,17,-1
 300 100 l 1,18,-1
 300 200 l 1,19,-1
 250 200 l 1,20,-1
 250 300 l 1,21,-1
 200 300 l 1,22,-1
 200 0 l 1,23,-1
 100 0 l 1,0,-1
EndSplineSet
Validated: 1
EndChar

StartChar: uni043D
Encoding: 1085 1085 298
Width: 600
GlyphClass: 2
Flags: W
LayerCount: 2
Back
Fore
SplineSet
100 500 m 1,0,-1
 200 500 l 1,1,-1
 200 300 l 1,2,-1
 400 300 l 1,3,-1
 400 500 l 1,4,-1
 500 500 l 1,5,-1
 500 0 l 1,6,-1
 400 0 l 1,7,-1
 400 200 l 1,8,-1
 200 200 l 1,9,-1
 200 0 l 1,10,-1
 100 0 l 1,11,-1
 100 500 l 1,0,-1
EndSplineSet
Validated: 1
EndChar

StartChar: uni043E
Encoding: 1086 1086 299
Width: 600
GlyphClass: 2
Flags: W
LayerCount: 2
Back
Fore
SplineSet
200 400 m 1,0,-1
 200 100 l 1,1,-1
 450 100 l 1,2,-1
 450 400 l 1,3,-1
 200 400 l 1,0,-1
150 500 m 1,4,-1
 500 500 l 1,5,-1
 500 400 l 1,6,-1
 550 400 l 1,7,-1
 550 100 l 1,8,-1
 500 100 l 1,9,-1
 500 0 l 1,10,-1
 150 0 l 1,11,-1
 150 100 l 1,12,-1
 100 100 l 1,13,-1
 100 400 l 1,14,-1
 150 400 l 1,15,-1
 150 500 l 1,4,-1
EndSplineSet
Validated: 1
EndChar

StartChar: uni043F
Encoding: 1087 1087 300
Width: 600
GlyphClass: 2
Flags: W
LayerCount: 2
Back
Fore
SplineSet
100 0 m 1,0,-1
 100 500 l 1,1,-1
 550 500 l 1,2,-1
 550 0 l 1,3,-1
 450 0 l 1,4,-1
 450 400 l 1,5,-1
 200 400 l 1,6,-1
 200 0 l 1,7,-1
 100 0 l 1,0,-1
EndSplineSet
Validated: 1
EndChar

StartChar: uni0440
Encoding: 1088 1088 301
Width: 600
GlyphClass: 2
Flags: W
LayerCount: 2
Back
Fore
SplineSet
250 300 m 1,0,-1
 200 300 l 1,1,-1
 200 200 l 1,2,-1
 250 200 l 1,3,-1
 250 100 l 1,4,-1
 450 100 l 1,5,-1
 450 400 l 1,6,-1
 250 400 l 1,7,-1
 250 300 l 1,0,-1
100 500 m 1,8,-1
 200 500 l 1,9,-1
 200 400 l 1,10,-1
 250 400 l 1,11,-1
 250 500 l 1,12,-1
 500 500 l 1,13,-1
 500 400 l 1,14,-1
 550 400 l 1,15,-1
 550 100 l 1,16,-1
 500 100 l 1,17,-1
 500 0 l 1,18,-1
 250 0 l 1,19,-1
 250 100 l 1,20,-1
 200 100 l 1,21,-1
 200 -200 l 1,22,-1
 100 -200 l 1,23,-1
 100 500 l 1,8,-1
EndSplineSet
Validated: 5
EndChar

StartChar: uni0441
Encoding: 1089 1089 302
Width: 600
GlyphClass: 2
Flags: W
LayerCount: 2
Back
Fore
SplineSet
200 500 m 1,0,-1
 550 500 l 1,1,-1
 550 400 l 1,2,-1
 250 400 l 1,3,-1
 250 300 l 1,4,-1
 200 300 l 1,5,-1
 200 200 l 1,6,-1
 250 200 l 1,7,-1
 250 100 l 1,8,-1
 550 100 l 1,9,-1
 550 0 l 1,10,-1
 200 0 l 1,11,-1
 200 100 l 1,12,-1
 150 100 l 1,13,-1
 150 200 l 1,14,-1
 100 200 l 1,15,-1
 100 300 l 1,16,-1
 150 300 l 1,17,-1
 150 400 l 1,18,-1
 200 400 l 1,19,-1
 200 500 l 1,0,-1
EndSplineSet
Validated: 1
EndChar

StartChar: uni0442
Encoding: 1090 1090 303
Width: 600
GlyphClass: 2
Flags: W
LayerCount: 2
Back
Fore
SplineSet
50 500 m 1,0,-1
 550 500 l 1,1,-1
 550 400 l 1,2,-1
 350 400 l 1,3,-1
 350 0 l 1,4,-1
 250 0 l 1,5,-1
 250 400 l 1,6,-1
 50 400 l 1,7,-1
 50 500 l 1,0,-1
EndSplineSet
Validated: 1
EndChar

StartChar: uni0443
Encoding: 1091 1091 304
Width: 600
GlyphClass: 2
Flags: W
LayerCount: 2
Back
Fore
SplineSet
100 500 m 1,0,-1
 200 500 l 1,1,-1
 200 400 l 1,2,-1
 250 400 l 1,3,-1
 250 300 l 1,4,-1
 300 300 l 1,5,-1
 300 200 l 1,6,-1
 350 200 l 1,7,-1
 350 300 l 1,8,-1
 400 300 l 1,9,-1
 400 400 l 1,10,-1
 450 400 l 1,11,-1
 450 500 l 1,12,-1
 550 500 l 1,13,-1
 550 400 l 1,14,-1
 500 400 l 1,15,-1
 500 300 l 1,16,-1
 450 300 l 1,17,-1
 450 200 l 1,18,-1
 400 200 l 1,19,-1
 400 100 l 1,20,-1
 350 100 l 1,21,-1
 350 0 l 1,22,-1
 300 0 l 1,23,-1
 300 -100 l 1,24,-1
 250 -100 l 1,25,-1
 250 -200 l 1,26,-1
 100 -200 l 1,27,-1
 100 -100 l 1,28,-1
 200 -100 l 1,29,-1
 200 0 l 1,30,-1
 250 0 l 1,31,-1
 250 200 l 1,32,-1
 200 200 l 1,33,-1
 200 300 l 1,34,-1
 150 300 l 1,35,-1
 150 400 l 1,36,-1
 100 400 l 1,37,-1
 100 500 l 1,0,-1
EndSplineSet
Validated: 1
EndChar

StartChar: uni0444
Encoding: 1092 1092 305
Width: 600
GlyphClass: 2
Flags: W
LayerCount: 2
Back
Fore
SplineSet
250 400 m 1,0,-1
 150 400 l 1,1,-1
 150 100 l 1,2,-1
 250 100 l 1,3,-1
 250 400 l 1,0,-1
350 400 m 1,4,-1
 350 100 l 1,5,-1
 450 100 l 1,6,-1
 450 400 l 1,7,-1
 350 400 l 1,4,-1
250 700 m 1,8,-1
 350 700 l 1,9,-1
 350 500 l 1,10,-1
 500 500 l 1,11,-1
 500 400 l 1,12,-1
 550 400 l 1,13,-1
 550 100 l 1,14,-1
 500 100 l 1,15,-1
 500 0 l 1,16,-1
 350 0 l 1,17,-1
 350 -200 l 1,18,-1
 250 -200 l 1,19,-1
 250 0 l 1,20,-1
 100 0 l 1,21,-1
 100 100 l 1,22,-1
 50 100 l 1,23,-1
 50 400 l 1,24,-1
 100 400 l 1,25,-1
 100 500 l 1,26,-1
 250 500 l 1,27,-1
 250 700 l 1,8,-1
EndSplineSet
Validated: 1
EndChar

StartChar: uni0445
Encoding: 1093 1093 306
Width: 600
GlyphClass: 2
Flags: W
LayerCount: 2
Back
Fore
SplineSet
50 500 m 1,0,-1
 200 500 l 1,1,-1
 200 400 l 1,2,-1
 250 400 l 1,3,-1
 250 300 l 1,4,-1
 350 300 l 1,5,-1
 350 400 l 1,6,-1
 400 400 l 1,7,-1
 400 500 l 1,8,-1
 550 500 l 1,9,-1
 550 400 l 1,10,-1
 450 400 l 1,11,-1
 450 300 l 1,12,-1
 400 300 l 1,13,-1
 400 200 l 1,14,-1
 450 200 l 1,15,-1
 450 100 l 1,16,-1
 550 100 l 1,17,-1
 550 0 l 1,18,-1
 400 0 l 1,19,-1
 400 100 l 1,20,-1
 350 100 l 1,21,-1
 350 200 l 1,22,-1
 250 200 l 1,23,-1
 250 100 l 1,24,-1
 200 100 l 1,25,-1
 200 0 l 1,26,-1
 50 0 l 1,27,-1
 50 100 l 1,28,-1
 150 100 l 1,29,-1
 150 200 l 1,30,-1
 200 200 l 1,31,-1
 200 300 l 1,32,-1
 150 300 l 1,33,-1
 150 400 l 1,34,-1
 50 400 l 1,35,-1
 50 500 l 1,0,-1
EndSplineSet
Validated: 1
EndChar

StartChar: uni0446
Encoding: 1094 1094 307
Width: 600
GlyphClass: 2
Flags: W
LayerCount: 2
Back
Fore
SplineSet
100 500 m 1,0,-1
 200 500 l 1,1,-1
 200 100 l 1,2,-1
 350 100 l 1,3,-1
 350 500 l 1,4,-1
 450 500 l 1,5,-1
 450 100 l 1,6,-1
 550 100 l 1,7,-1
 550 -100 l 1,8,-1
 450 -100 l 1,9,-1
 450 0 l 1,10,-1
 100 0 l 1,11,-1
 100 500 l 1,0,-1
EndSplineSet
Validated: 1
EndChar

StartChar: uni0447
Encoding: 1095 1095 308
Width: 600
GlyphClass: 2
Flags: W
LayerCount: 2
Back
Fore
SplineSet
100 500 m 1,0,-1
 200 500 l 1,1,-1
 200 300 l 1,2,-1
 450 300 l 1,3,-1
 450 500 l 1,4,-1
 550 500 l 1,5,-1
 550 0 l 1,6,-1
 450 0 l 1,7,-1
 450 200 l 1,8,-1
 150 200 l 1,9,-1
 150 300 l 1,10,-1
 100 300 l 1,11,-1
 100 500 l 1,0,-1
EndSplineSet
Validated: 1
EndChar

StartChar: uni0448
Encoding: 1096 1096 309
Width: 600
GlyphClass: 2
Flags: W
LayerCount: 2
Back
Fore
SplineSet
50 500 m 1,0,-1
 150 500 l 1,1,-1
 150 100 l 1,2,-1
 250 100 l 1,3,-1
 250 500 l 1,4,-1
 350 500 l 1,5,-1
 350 100 l 1,6,-1
 450 100 l 1,7,-1
 450 500 l 1,8,-1
 550 500 l 1,9,-1
 550 0 l 1,10,-1
 50 0 l 1,11,-1
 50 500 l 1,0,-1
EndSplineSet
Validated: 1
EndChar

StartChar: uni0449
Encoding: 1097 1097 310
Width: 600
GlyphClass: 2
Flags: W
LayerCount: 2
Back
Fore
SplineSet
50 500 m 1,0,-1
 150 500 l 1,1,-1
 150 100 l 1,2,-1
 250 100 l 1,3,-1
 250 500 l 1,4,-1
 350 500 l 1,5,-1
 350 100 l 1,6,-1
 450 100 l 1,7,-1
 450 500 l 1,8,-1
 550 500 l 1,9,-1
 550 100 l 1,10,-1
 600 100 l 1,11,-1
 600 -100 l 1,12,-1
 500 -100 l 1,13,-1
 500 0 l 1,14,-1
 50 0 l 1,15,-1
 50 500 l 1,0,-1
EndSplineSet
Validated: 1
EndChar

StartChar: uni044A
Encoding: 1098 1098 311
Width: 600
GlyphClass: 2
Flags: W
LayerCount: 2
Back
Fore
SplineSet
250 200 m 1,0,-1
 250 100 l 1,1,-1
 450 100 l 1,2,-1
 450 200 l 1,3,-1
 250 200 l 1,0,-1
50 500 m 1,4,-1
 250 500 l 1,5,-1
 250 300 l 1,6,-1
 500 300 l 1,7,-1
 500 200 l 1,8,-1
 550 200 l 1,9,-1
 550 100 l 1,10,-1
 500 100 l 1,11,-1
 500 0 l 1,12,-1
 150 0 l 1,13,-1
 150 400 l 1,14,-1
 50 400 l 1,15,-1
 50 500 l 1,4,-1
EndSplineSet
Validated: 1
EndChar

StartChar: uni044B
Encoding: 1099 1099 312
Width: 600
GlyphClass: 2
Flags: W
LayerCount: 2
Back
Fore
SplineSet
450 0 m 1,0,-1
 450 500 l 1,1,-1
 550 500 l 1,2,-1
 550 0 l 1,3,-1
 450 0 l 1,0,-1
150 200 m 1,4,-1
 150 100 l 1,5,-1
 300 100 l 1,6,-1
 300 200 l 1,7,-1
 150 200 l 1,4,-1
50 500 m 1,8,-1
 150 500 l 1,9,-1
 150 300 l 1,10,-1
 350 300 l 1,11,-1
 350 200 l 1,12,-1
 400 200 l 1,13,-1
 400 100 l 1,14,-1
 350 100 l 1,15,-1
 350 0 l 1,16,-1
 50 0 l 1,17,-1
 50 500 l 1,8,-1
EndSplineSet
Validated: 1
EndChar

StartChar: uni044C
Encoding: 1100 1100 313
Width: 600
GlyphClass: 2
Flags: W
LayerCount: 2
Back
Fore
SplineSet
200 100 m 1,0,-1
 450 100 l 1,1,-1
 450 200 l 1,2,-1
 200 200 l 1,3,-1
 200 100 l 1,0,-1
100 500 m 1,4,-1
 200 500 l 1,5,-1
 200 300 l 1,6,-1
 500 300 l 1,7,-1
 500 200 l 1,8,-1
 550 200 l 1,9,-1
 550 100 l 1,10,-1
 500 100 l 1,11,-1
 500 0 l 1,12,-1
 100 0 l 1,13,-1
 100 500 l 1,4,-1
EndSplineSet
Validated: 1
EndChar

StartChar: uni044D
Encoding: 1101 1101 314
Width: 600
GlyphClass: 2
Flags: W
LayerCount: 2
Back
Fore
SplineSet
100 300 m 1,0,-1
 100 400 l 1,1,-1
 150 400 l 1,2,-1
 150 500 l 1,3,-1
 500 500 l 1,4,-1
 500 400 l 1,5,-1
 550 400 l 1,6,-1
 550 100 l 1,7,-1
 500 100 l 1,8,-1
 500 0 l 1,9,-1
 150 0 l 1,10,-1
 150 100 l 1,11,-1
 100 100 l 1,12,-1
 100 200 l 1,13,-1
 200 200 l 1,14,-1
 200 100 l 1,15,-1
 450 100 l 1,16,-1
 450 200 l 1,17,-1
 300 200 l 1,18,-1
 300 300 l 1,19,-1
 450 300 l 1,20,-1
 450 400 l 1,21,-1
 200 400 l 1,22,-1
 200 300 l 1,23,-1
 100 300 l 1,0,-1
EndSplineSet
Validated: 1
EndChar

StartChar: uni044E
Encoding: 1102 1102 315
Width: 600
GlyphClass: 2
Flags: W
LayerCount: 2
Back
Fore
SplineSet
350 100 m 1,0,-1
 450 100 l 1,1,-1
 450 400 l 1,2,-1
 350 400 l 1,3,-1
 350 100 l 1,0,-1
100 0 m 1,4,-1
 100 500 l 1,5,-1
 200 500 l 1,6,-1
 200 300 l 1,7,-1
 250 300 l 1,8,-1
 250 400 l 1,9,-1
 300 400 l 1,10,-1
 300 500 l 1,11,-1
 500 500 l 1,12,-1
 500 400 l 1,13,-1
 550 400 l 1,14,-1
 550 100 l 1,15,-1
 500 100 l 1,16,-1
 500 0 l 1,17,-1
 300 0 l 1,18,-1
 300 100 l 1,19,-1
 250 100 l 1,20,-1
 250 200 l 1,21,-1
 200 200 l 1,22,-1
 200 0 l 1,23,-1
 100 0 l 1,4,-1
EndSplineSet
Validated: 1
EndChar

StartChar: uni044F
Encoding: 1103 1103 316
Width: 600
GlyphClass: 2
Flags: W
LayerCount: 2
Back
Fore
SplineSet
150 400 m 1,0,-1
 150 300 l 1,1,-1
 400 300 l 1,2,-1
 400 400 l 1,3,-1
 150 400 l 1,0,-1
50 400 m 1,4,-1
 100 400 l 1,5,-1
 100 500 l 1,6,-1
 500 500 l 1,7,-1
 500 0 l 1,8,-1
 400 0 l 1,9,-1
 400 200 l 1,10,-1
 350 200 l 1,11,-1
 350 100 l 1,12,-1
 250 100 l 1,13,-1
 250 0 l 1,14,-1
 100 0 l 1,15,-1
 100 100 l 1,16,-1
 200 100 l 1,17,-1
 200 200 l 1,18,-1
 100 200 l 1,19,-1
 100 300 l 1,20,-1
 50 300 l 1,21,-1
 50 400 l 1,4,-1
EndSplineSet
Validated: 1
EndChar

StartChar: uni0450
Encoding: 1104 1104 317
Width: 600
GlyphClass: 2
Flags: W
LayerCount: 2
Back
Fore
SplineSet
200 400 m 1,0,-1
 200 300 l 1,1,-1
 450 300 l 1,2,-1
 450 400 l 1,3,-1
 200 400 l 1,0,-1
150 400 m 1,4,-1
 150 500 l 1,5,-1
 499 500 l 1,6,-1
 500 400 l 1,7,-1
 550 400 l 1,8,-1
 550 200 l 1,9,-1
 200 200 l 1,10,-1
 200 100 l 1,11,-1
 500 100 l 1,12,-1
 500 0 l 1,13,-1
 150 0 l 1,14,-1
 150 100 l 1,15,-1
 100 100 l 1,16,-1
 100 400 l 1,17,-1
 150 400 l 1,4,-1
EndSplineSet
Validated: 1
EndChar

StartChar: uni0451
Encoding: 1105 1105 318
Width: 600
GlyphClass: 2
Flags: W
LayerCount: 2
Back
Fore
SplineSet
400 700 m 1,0,-1
 500 700 l 1,1,-1
 500 600 l 1,2,-1
 400 600 l 1,3,-1
 400 700 l 1,0,-1
150 700 m 1,4,-1
 250 700 l 1,5,-1
 250 600 l 1,6,-1
 150 600 l 1,7,-1
 150 700 l 1,4,-1
200 400 m 1,8,-1
 200 300 l 1,9,-1
 450 300 l 1,10,-1
 450 400 l 1,11,-1
 200 400 l 1,8,-1
150 400 m 1,12,-1
 151 500 l 1,13,-1
 499 500 l 1,14,-1
 500 400 l 1,15,-1
 550 400 l 1,16,-1
 550 200 l 1,17,-1
 200 200 l 1,18,-1
 200 100 l 1,19,-1
 500 100 l 1,20,-1
 500 0 l 1,21,-1
 150 0 l 1,22,-1
 150 100 l 1,23,-1
 100 100 l 1,24,-1
 100 400 l 1,25,-1
 150 400 l 1,12,-1
EndSplineSet
Validated: 1
EndChar

StartChar: uni0452
Encoding: 1106 1106 319
Width: 600
GlyphClass: 2
Flags: W
LayerCount: 2
Back
Fore
SplineSet
100 0 m 1,0,-1
 100 500 l 1,1,-1
 0 500 l 1,2,-1
 0 600 l 1,3,-1
 100 600 l 1,4,-1
 100 700 l 1,5,-1
 200 700 l 1,6,-1
 200 600 l 1,7,-1
 350 600 l 1,8,-1
 350 500 l 1,9,-1
 200 500 l 1,10,-1
 200 400 l 1,11,-1
 500 400 l 1,12,-1
 500 300 l 1,13,-1
 550 300 l 1,14,-1
 550 0 l 1,15,-1
 500 0 l 1,16,-1
 500 -100 l 1,17,-1
 450 -100 l 1,18,-1
 450 -200 l 1,19,-1
 250 -200 l 1,20,-1
 250 -100 l 1,21,-1
 400 -100 l 1,22,-1
 400 0 l 1,23,-1
 450 0 l 1,24,-1
 450 300 l 1,25,-1
 200 300 l 1,26,-1
 200 0 l 1,27,-1
 100 0 l 1,0,-1
EndSplineSet
Validated: 1
EndChar

StartChar: uni0453
Encoding: 1107 1107 320
Width: 600
GlyphClass: 2
Flags: W
LayerCount: 2
Back
Fore
SplineSet
250 600 m 1,0,-1
 250 700 l 1,1,-1
 300 700 l 1,2,-1
 300 800 l 1,3,-1
 400 800 l 1,4,-1
 400 700 l 1,5,-1
 350 700 l 1,6,-1
 350 600 l 1,7,-1
 250 600 l 1,0,-1
100 0 m 1,8,-1
 100 500 l 1,9,-1
 550 500 l 1,10,-1
 550 401 l 1,11,-1
 200 400 l 1,12,-1
 200 0 l 1,13,-1
 100 0 l 1,8,-1
EndSplineSet
Validated: 1
EndChar

StartChar: uni0454
Encoding: 1108 1108 321
Width: 600
GlyphClass: 2
Flags: W
LayerCount: 2
Back
Fore
SplineSet
450 100 m 1,0,-1
 450 200 l 1,1,-1
 550 200 l 1,2,-1
 550 100 l 1,3,-1
 500 100 l 1,4,-1
 500 0 l 1,5,-1
 150 0 l 1,6,-1
 150 100 l 1,7,-1
 100 100 l 1,8,-1
 100 400 l 1,9,-1
 150 400 l 1,10,-1
 150 500 l 1,11,-1
 500 500 l 1,12,-1
 500 400 l 1,13,-1
 550 400 l 1,14,-1
 550 300 l 1,15,-1
 450 300 l 1,16,-1
 450 400 l 1,17,-1
 200 400 l 1,18,-1
 200 300 l 1,19,-1
 350 300 l 1,20,-1
 350 200 l 1,21,-1
 200 200 l 1,22,-1
 200 100 l 1,23,-1
 450 100 l 1,0,-1
EndSplineSet
Validated: 1
EndChar

StartChar: uni0455
Encoding: 1109 1109 322
Width: 600
GlyphClass: 2
Flags: W
LayerCount: 2
Back
Fore
SplineSet
500 400 m 1,0,-1
 200 400 l 1,1,-1
 200 300 l 1,2,-1
 500 300 l 1,3,-1
 500 200 l 1,4,-1
 550 200 l 1,5,-1
 550 100 l 1,6,-1
 500 100 l 1,7,-1
 500 0 l 1,8,-1
 150 0 l 1,9,-1
 150 100 l 1,10,-1
 450 100 l 1,11,-1
 450 200 l 1,12,-1
 150 200 l 1,13,-1
 150 300 l 1,14,-1
 100 300 l 1,15,-1
 100 400 l 1,16,-1
 150 400 l 1,17,-1
 150 500 l 1,18,-1
 500 500 l 1,19,-1
 500 400 l 1,0,-1
EndSplineSet
Validated: 1
EndChar

StartChar: uni0456
Encoding: 1110 1110 323
Width: 600
GlyphClass: 2
Flags: W
LayerCount: 2
Back
Fore
SplineSet
200 500 m 1,0,-1
 350 500 l 1,1,-1
 349 100 l 1,2,-1
 450 100 l 1,3,-1
 450 0 l 1,4,-1
 150 0 l 1,5,-1
 150 100 l 1,6,-1
 250 100 l 1,7,-1
 250 400 l 1,8,-1
 200 400 l 1,9,-1
 200 500 l 1,0,-1
200 700 m 1,10,-1
 350 700 l 1,11,-1
 350 600 l 1,12,-1
 200 600 l 1,13,-1
 200 700 l 1,10,-1
EndSplineSet
Validated: 1
EndChar

StartChar: uni0457
Encoding: 1111 1111 324
Width: 600
GlyphClass: 2
Flags: W
LayerCount: 2
Back
Fore
SplineSet
200 500 m 1,0,-1
 350 500 l 1,1,-1
 349 100 l 1,2,-1
 450 100 l 1,3,-1
 450 0 l 1,4,-1
 150 0 l 1,5,-1
 150 100 l 1,6,-1
 250 100 l 1,7,-1
 250 400 l 1,8,-1
 200 400 l 1,9,-1
 200 500 l 1,0,-1
200 700 m 1,10,-1
 350 700 l 1,11,-1
 350 600 l 1,12,-1
 200 600 l 1,13,-1
 200 700 l 1,10,-1
EndSplineSet
Validated: 1
EndChar

StartChar: uni0458
Encoding: 1112 1112 325
Width: 600
GlyphClass: 2
Flags: W
LayerCount: 2
Back
Fore
SplineSet
400 400 m 1,0,-1
 400 500 l 1,1,-1
 550 500 l 1,2,-1
 550 -100 l 1,3,-1
 500 -100 l 1,4,-1
 500 -200 l 1,5,-1
 150 -200 l 1,6,-1
 150 -100 l 1,7,-1
 100 -100 l 1,8,-1
 100 0 l 1,9,-1
 200 0 l 1,10,-1
 200 -100 l 1,11,-1
 450 -100 l 1,12,-1
 450 400 l 1,13,-1
 400 400 l 1,0,-1
400 700 m 1,14,-1
 549 700 l 1,15,-1
 550 600 l 1,16,-1
 400 600 l 1,17,-1
 400 700 l 1,14,-1
EndSplineSet
Validated: 1
EndChar

StartChar: uni0459
Encoding: 1113 1113 326
Width: 600
GlyphClass: 2
Flags: W
LayerCount: 2
Back
Fore
SplineSet
400 100 m 1,0,-1
 500 100 l 1,1,-1
 500 200 l 1,2,-1
 400 200 l 1,3,-1
 400 100 l 1,0,-1
50 100 m 1,4,-1
 100 100 l 1,5,-1
 100 400 l 1,6,-1
 150 400 l 1,7,-1
 150 500 l 1,8,-1
 400 500 l 1,9,-1
 400 300 l 1,10,-1
 550 300 l 1,11,-1
 550 200 l 1,12,-1
 600 200 l 1,13,-1
 600 100 l 1,14,-1
 550 100 l 1,15,-1
 550 0 l 1,16,-1
 300 0 l 1,17,-1
 300 400 l 1,18,-1
 200 400 l 1,19,-1
 200 100 l 1,20,-1
 150 100 l 1,21,-1
 150 0 l 1,22,-1
 50 0 l 1,23,-1
 50 100 l 1,4,-1
EndSplineSet
Validated: 1
EndChar

StartChar: uni045A
Encoding: 1114 1114 327
Width: 600
GlyphClass: 2
Flags: W
LayerCount: 2
Back
Fore
SplineSet
400 100 m 1,0,-1
 500 100 l 1,1,-1
 500 200 l 1,2,-1
 400 200 l 1,3,-1
 400 100 l 1,0,-1
50 0 m 1,4,-1
 50 500 l 1,5,-1
 150 500 l 1,6,-1
 150 300 l 1,7,-1
 300 300 l 1,8,-1
 300 500 l 1,9,-1
 400 500 l 1,10,-1
 400 300 l 1,11,-1
 550 300 l 1,12,-1
 550 200 l 1,13,-1
 600 200 l 1,14,-1
 600 100 l 1,15,-1
 550 100 l 1,16,-1
 550 0 l 1,17,-1
 300 0 l 1,18,-1
 300 200 l 1,19,-1
 150 200 l 1,20,-1
 150 0 l 1,21,-1
 50 0 l 1,4,-1
EndSplineSet
Validated: 1
EndChar

StartChar: uni045B
Encoding: 1115 1115 328
Width: 600
GlyphClass: 2
Flags: W
LayerCount: 2
Back
Fore
SplineSet
100 0 m 1,0,-1
 100 500 l 1,1,-1
 0 500 l 1,2,-1
 0 600 l 1,3,-1
 100 600 l 1,4,-1
 100 700 l 1,5,-1
 200 700 l 1,6,-1
 200 600 l 1,7,-1
 350 600 l 1,8,-1
 350 500 l 1,9,-1
 200 500 l 1,10,-1
 200 400 l 1,11,-1
 500 400 l 1,12,-1
 500 300 l 1,13,-1
 550 300 l 1,14,-1
 550 0 l 1,15,-1
 450 0 l 1,16,-1
 450 300 l 1,17,-1
 200 300 l 1,18,-1
 200 0 l 1,19,-1
 100 0 l 1,0,-1
EndSplineSet
Validated: 1
EndChar

StartChar: uni045C
Encoding: 1116 1116 329
Width: 600
GlyphClass: 2
Flags: W
LayerCount: 2
Back
Fore
SplineSet
250 600 m 1,0,-1
 250 700 l 1,1,-1
 300 700 l 1,2,-1
 300 800 l 1,3,-1
 400 800 l 1,4,-1
 400 700 l 1,5,-1
 350 700 l 1,6,-1
 350 600 l 1,7,-1
 250 600 l 1,0,-1
100 500 m 1,8,-1
 200 500 l 1,9,-1
 200 300 l 1,10,-1
 350 300 l 1,11,-1
 350 400 l 1,12,-1
 400 400 l 1,13,-1
 400 500 l 1,14,-1
 550 500 l 1,15,-1
 550 400 l 1,16,-1
 450 400 l 1,17,-1
 450 300 l 1,18,-1
 400 300 l 1,19,-1
 400 200 l 1,20,-1
 450 200 l 1,21,-1
 450 100 l 1,22,-1
 550 100 l 1,23,-1
 550 0 l 1,24,-1
 400 0 l 1,25,-1
 400 100 l 1,26,-1
 350 100 l 1,27,-1
 350 200 l 1,28,-1
 200 200 l 1,29,-1
 200 0 l 1,30,-1
 100 0 l 1,31,-1
 100 500 l 1,8,-1
EndSplineSet
Validated: 1
EndChar

StartChar: uni045D
Encoding: 1117 1117 330
Width: 600
GlyphClass: 2
Flags: W
LayerCount: 2
Back
Fore
SplineSet
300 600 m 1,0,-1
 300 700 l 1,1,-1
 250 700 l 1,2,-1
 250 800 l 1,3,-1
 350 800 l 1,4,-1
 350 700 l 1,5,-1
 400 700 l 1,6,-1
 400 600 l 1,7,-1
 300 600 l 1,0,-1
100 0 m 1,8,-1
 100 500 l 1,9,-1
 200 500 l 1,10,-1
 200 100 l 1,11,-1
 250 100 l 1,12,-1
 250 200 l 1,13,-1
 300 200 l 1,14,-1
 300 300 l 1,15,-1
 350 300 l 1,16,-1
 350 400 l 1,17,-1
 400 400 l 1,18,-1
 400 500 l 1,19,-1
 550 500 l 1,20,-1
 550 0 l 1,21,-1
 450 0 l 1,22,-1
 450 400 l 1,23,-1
 400 400 l 1,24,-1
 400 300 l 1,25,-1
 350 300 l 1,26,-1
 350 200 l 1,27,-1
 300 200 l 1,28,-1
 300 100 l 1,29,-1
 250 100 l 1,30,-1
 250 0 l 1,31,-1
 100 0 l 1,8,-1
EndSplineSet
Validated: 5
EndChar

StartChar: uni045E
Encoding: 1118 1118 331
Width: 600
GlyphClass: 2
Flags: W
LayerCount: 2
Back
Fore
SplineSet
150 800 m 1,0,-1
 250 800 l 1,1,-1
 250 700 l 1,2,-1
 400 700 l 1,3,-1
 400 800 l 1,4,-1
 500 800 l 1,5,-1
 500 700 l 1,6,-1
 450 700 l 1,7,-1
 450 600 l 1,8,-1
 200 600 l 1,9,-1
 200 700 l 1,10,-1
 150 700 l 1,11,-1
 150 800 l 1,0,-1
100 500 m 1,12,-1
 200 500 l 1,13,-1
 200 400 l 1,14,-1
 250 400 l 1,15,-1
 250 300 l 1,16,-1
 300 300 l 1,17,-1
 300 200 l 1,18,-1
 350 200 l 1,19,-1
 350 300 l 1,20,-1
 400 300 l 1,21,-1
 400 400 l 1,22,-1
 450 400 l 1,23,-1
 450 500 l 1,24,-1
 550 500 l 1,25,-1
 550 400 l 1,26,-1
 500 400 l 1,27,-1
 500 300 l 1,28,-1
 450 300 l 1,29,-1
 450 200 l 1,30,-1
 400 200 l 1,31,-1
 400 100 l 1,32,-1
 350 100 l 1,33,-1
 350 0 l 1,34,-1
 300 0 l 1,35,-1
 300 -100 l 1,36,-1
 250 -100 l 1,37,-1
 250 -200 l 1,38,-1
 100 -200 l 1,39,-1
 100 -100 l 1,40,-1
 200 -100 l 1,41,-1
 200 0 l 1,42,-1
 250 0 l 1,43,-1
 250 200 l 1,44,-1
 200 200 l 1,45,-1
 200 300 l 1,46,-1
 150 300 l 1,47,-1
 150 400 l 1,48,-1
 100 400 l 1,49,-1
 100 500 l 1,12,-1
EndSplineSet
Validated: 1
EndChar

StartChar: uni045F
Encoding: 1119 1119 332
Width: 600
GlyphClass: 2
Flags: W
LayerCount: 2
Back
Fore
SplineSet
100 500 m 1,0,-1
 200 500 l 1,1,-1
 200 100 l 1,2,-1
 500 100 l 1,3,-1
 500 500 l 1,4,-1
 600 500 l 1,5,-1
 600 0 l 1,6,-1
 400 0 l 1,7,-1
 400 -200 l 1,8,-1
 300 -200 l 1,9,-1
 300 0 l 1,10,-1
 100 0 l 1,11,-1
 100 500 l 1,0,-1
EndSplineSet
Validated: 1
EndChar

StartChar: uni0490
Encoding: 1168 1168 333
Width: 600
GlyphClass: 2
Flags: W
LayerCount: 2
Back
Fore
SplineSet
100 0 m 1,0,-1
 100 700 l 1,1,-1
 450 700 l 1,2,-1
 450 800 l 1,3,-1
 550 800 l 1,4,-1
 550 600 l 1,5,-1
 200 600 l 1,6,-1
 200 0 l 1,7,-1
 100 0 l 1,0,-1
EndSplineSet
Validated: 1
EndChar

StartChar: uni0491
Encoding: 1169 1169 334
Width: 600
GlyphClass: 2
Flags: W
LayerCount: 2
Back
Fore
SplineSet
100 0 m 1,0,-1
 100 500 l 1,1,-1
 450 500 l 1,2,-1
 450 600 l 1,3,-1
 550 600 l 1,4,-1
 550 400 l 1,5,-1
 200 400 l 1,6,-1
 200 0 l 1,7,-1
 100 0 l 1,0,-1
EndSplineSet
Validated: 1
EndChar

StartChar: quoteright
Encoding: 8217 8217 335
Width: 600
GlyphClass: 2
Flags: W
LayerCount: 2
Back
Fore
SplineSet
200 400 m 1,0,-1
 200 500 l 1,1,-1
 250 500 l 1,2,-1
 250 600 l 1,3,-1
 200 600 l 1,4,-1
 200 700 l 1,5,-1
 350 700 l 1,6,-1
 350 500 l 1,7,-1
 300 500 l 1,8,-1
 300 400 l 1,9,-1
 200 400 l 1,0,-1
EndSplineSet
Validated: 1
EndChar

StartChar: quotedblright
Encoding: 8221 8221 336
Width: 600
GlyphClass: 2
Flags: W
LayerCount: 2
Back
Fore
SplineSet
350 400 m 1,0,-1
 350 500 l 1,1,-1
 400 500 l 1,2,-1
 400 600 l 1,3,-1
 350 600 l 1,4,-1
 350 700 l 1,5,-1
 500 700 l 1,6,-1
 500 500 l 1,7,-1
 450 500 l 1,8,-1
 450 400 l 1,9,-1
 350 400 l 1,0,-1
100 600 m 1,10,-1
 100 700 l 1,11,-1
 250 700 l 1,12,-1
 250 500 l 1,13,-1
 200 500 l 1,14,-1
 200 400 l 1,15,-1
 100 400 l 1,16,-1
 100 500 l 1,17,-1
 150 500 l 1,18,-1
 150 600 l 1,19,-1
 100 600 l 1,10,-1
EndSplineSet
Validated: 1
EndChar

StartChar: minute
Encoding: 8242 8242 337
Width: 600
GlyphClass: 2
Flags: W
LayerCount: 2
Back
Fore
SplineSet
200 400 m 1,0,-1
 200 500 l 1,1,-1
 250 500 l 1,2,-1
 250 600 l 1,3,-1
 200 600 l 1,4,-1
 200 700 l 1,5,-1
 350 700 l 1,6,-1
 350 500 l 1,7,-1
 300 500 l 1,8,-1
 300 400 l 1,9,-1
 200 400 l 1,0,-1
EndSplineSet
Validated: 1
EndChar

StartChar: second
Encoding: 8243 8243 338
Width: 600
GlyphClass: 2
Flags: W
LayerCount: 2
Back
Fore
SplineSet
350 400 m 1,0,-1
 350 500 l 1,1,-1
 400 500 l 1,2,-1
 400 600 l 1,3,-1
 350 600 l 1,4,-1
 350 700 l 1,5,-1
 500 700 l 1,6,-1
 500 500 l 1,7,-1
 450 500 l 1,8,-1
 450 400 l 1,9,-1
 350 400 l 1,0,-1
100 600 m 1,10,-1
 100 700 l 1,11,-1
 250 700 l 1,12,-1
 250 500 l 1,13,-1
 200 500 l 1,14,-1
 200 400 l 1,15,-1
 100 400 l 1,16,-1
 100 500 l 1,17,-1
 150 500 l 1,18,-1
 150 600 l 1,19,-1
 100 600 l 1,10,-1
EndSplineSet
Validated: 1
EndChar

StartChar: Euro
Encoding: 8364 8364 339
Width: 600
GlyphClass: 2
Flags: W
LayerCount: 2
Back
Fore
SplineSet
250 500 m 1,0,-1
 400 500 l 1,1,-1
 400 400 l 1,2,-1
 200 400 l 1,3,-1
 200 300 l 1,4,-1
 400 300 l 1,5,-1
 400 200 l 1,6,-1
 250 200 l 1,7,-1
 250 100 l 1,8,-1
 450 100 l 1,9,-1
 450 200 l 1,10,-1
 550 200 l 1,11,-1
 550 100 l 1,12,-1
 500 100 l 1,13,-1
 500 0 l 1,14,-1
 200 0 l 1,15,-1
 200 100 l 1,16,-1
 150 100 l 1,17,-1
 150 200 l 1,18,-1
 50 200 l 1,19,-1
 50 300 l 1,20,-1
 100 300 l 1,21,-1
 100 400 l 1,22,-1
 50 400 l 1,23,-1
 50 500 l 1,24,-1
 150 500 l 1,25,-1
 150 600 l 1,26,-1
 200 600 l 1,27,-1
 200 700 l 1,28,-1
 500 700 l 1,29,-1
 500 600 l 1,30,-1
 550 600 l 1,31,-1
 550 500 l 1,32,-1
 450 500 l 1,33,-1
 450 600 l 1,34,-1
 250 600 l 1,35,-1
 250 500 l 1,0,-1
EndSplineSet
Validated: 1
EndChar

StartChar: uni20B4
Encoding: 8372 8372 340
Width: 600
GlyphClass: 2
Flags: W
LayerCount: 2
Back
Fore
SplineSet
100 500 m 1,0,-1
 100 600 l 1,1,-1
 150 600 l 1,2,-1
 150 700 l 1,3,-1
 500 700 l 1,4,-1
 500 600 l 1,5,-1
 550 600 l 1,6,-1
 550 400 l 1,7,-1
 500 400 l 1,8,-1
 500 300 l 1,9,-1
 200 300 l 1,10,-1
 200 100 l 1,11,-1
 450 100 l 1,12,-1
 450 200 l 1,13,-1
 550 200 l 1,14,-1
 550 100 l 1,15,-1
 500 100 l 1,16,-1
 500 0 l 1,17,-1
 150 0 l 1,18,-1
 150 100 l 1,19,-1
 100 100 l 1,20,-1
 100 300 l 1,21,-1
 150 300 l 1,22,-1
 150 400 l 1,23,-1
 450 400 l 1,24,-1
 450 600 l 1,25,-1
 200 600 l 1,26,-1
 200 500 l 1,27,-1
 100 500 l 1,0,-1
EndSplineSet
Validated: 1
EndChar

StartChar: uni20B8
Encoding: 8376 8376 341
Width: 600
GlyphClass: 2
Flags: W
LayerCount: 2
Back
Fore
SplineSet
50 500 m 1,0,-1
 550 500 l 1,1,-1
 550 400 l 1,2,-1
 350 400 l 1,3,-1
 350 0 l 1,4,-1
 250 0 l 1,5,-1
 250 400 l 1,6,-1
 50 400 l 1,7,-1
 50 500 l 1,0,-1
50 600 m 1,8,-1
 50 700 l 1,9,-1
 550 700 l 1,10,-1
 550 600 l 1,11,-1
 50 600 l 1,8,-1
EndSplineSet
Validated: 1
EndChar

StartChar: uni20BD
Encoding: 8381 8381 342
Width: 600
GlyphClass: 2
Flags: W
LayerCount: 2
Back
Fore
SplineSet
200 400 m 1,0,-1
 450 400 l 1,1,-1
 450 600 l 1,2,-1
 200 600 l 1,3,-1
 200 400 l 1,0,-1
100 700 m 1,4,-1
 500 700 l 1,5,-1
 500 650 l 1,6,-1
 550 650 l 1,7,-1
 550 400 l 1,8,-1
 500 400 l 1,9,-1
 500 300 l 1,10,-1
 200 300 l 1,11,-1
 200 250 l 1,12,-1
 400 250 l 1,13,-1
 400 150 l 1,14,-1
 200 150 l 1,15,-1
 200 0 l 1,16,-1
 100 0 l 1,17,-1
 100 150 l 1,18,-1
 0 150 l 1,19,-1
 0 250 l 1,20,-1
 100 250 l 1,21,-1
 100 300 l 1,22,-1
 0 300 l 1,23,-1
 0 400 l 1,24,-1
 100 400 l 1,25,-1
 100 700 l 1,4,-1
EndSplineSet
Validated: 1
EndChar

StartChar: uni2116
Encoding: 8470 8470 343
Width: 600
GlyphClass: 2
Flags: W
LayerCount: 2
Back
Fore
SplineSet
350 300 m 1,0,-1
 600 300 l 1,1,-1
 600 200 l 1,2,-1
 350 200 l 1,3,-1
 350 300 l 1,0,-1
450 600 m 1,4,-1
 450 500 l 1,5,-1
 500 500 l 1,6,-1
 500 600 l 1,7,-1
 450 600 l 1,4,-1
400 600 m 1,8,-1
 400 700 l 1,9,-1
 550 700 l 1,10,-1
 550 600 l 1,11,-1
 600 600 l 1,12,-1
 600 500 l 1,13,-1
 550 500 l 1,14,-1
 550 400 l 1,15,-1
 400 400 l 1,16,-1
 400 500 l 1,17,-1
 350 500 l 1,18,-1
 350 600 l 1,19,-1
 400 600 l 1,8,-1
0 0 m 1,20,-1
 0 700 l 1,21,-1
 100 700 l 1,22,-1
 100 600 l 1,23,-1
 150 600 l 1,24,-1
 150 400 l 1,25,-1
 200 400 l 1,26,-1
 200 700 l 1,27,-1
 300 700 l 1,28,-1
 300 0 l 1,29,-1
 200 0 l 1,30,-1
 200 100 l 1,31,-1
 150 100 l 1,32,-1
 150 250 l 1,33,-1
 100 250 l 1,34,-1
 100 0 l 1,35,-1
 0 0 l 1,20,-1
EndSplineSet
Validated: 1
EndChar

StartChar: trademark
Encoding: 8482 8482 344
Width: 1200
GlyphClass: 2
Flags: W
LayerCount: 2
Back
Fore
SplineSet
600 400 m 1,0,-1
 600 700 l 1,1,-1
 750 700 l 1,2,-1
 750 600 l 1,3,-1
 850 600 l 1,4,-1
 850 700 l 1,5,-1
 1000 700 l 1,6,-1
 1000 400 l 1,7,-1
 900 400 l 1,8,-1
 900 600 l 1,9,-1
 850 600 l 1,10,-1
 850 500 l 1,11,-1
 750 500 l 1,12,-1
 750 600 l 1,13,-1
 700 600 l 1,14,-1
 700 400 l 1,15,-1
 600 400 l 1,0,-1
250 600 m 1,16,-1
 250 701 l 1,17,-1
 550 700 l 1,18,-1
 550 600 l 1,19,-1
 450 600 l 1,20,-1
 450 400 l 1,21,-1
 350 400 l 1,22,-1
 350 600 l 1,23,-1
 250 600 l 1,16,-1
EndSplineSet
Validated: 5
EndChar

StartChar: uni2139
Encoding: 8505 8505 345
Width: 1200
GlyphClass: 2
Flags: W
LayerCount: 2
Back
Fore
SplineSet
600 100 m 1,0,-1
 600 400 l 1,1,-1
 700 400 l 1,2,-1
 700 100 l 1,3,-1
 600 100 l 1,0,-1
600 500 m 1,4,-1
 600 600 l 1,5,-1
 700 600 l 1,6,-1
 700 500 l 1,7,-1
 600 500 l 1,4,-1
950 600 m 1,8,-1
 900 600 l 1,9,-1
 900 700 l 1,10,-1
 400 700 l 1,11,-1
 400 600 l 1,12,-1
 350 600 l 1,13,-1
 350 100 l 1,14,-1
 400 100 l 1,15,-1
 400 0 l 1,16,-1
 900 0 l 1,17,-1
 900 100 l 1,18,-1
 950 100 l 1,19,-1
 950 600 l 1,8,-1
250 100 m 1,20,-1
 250 600 l 1,21,-1
 300 600 l 1,22,-1
 300 700 l 1,23,-1
 350 700 l 1,24,-1
 350 800 l 1,25,-1
 950 800 l 1,26,-1
 950 700 l 1,27,-1
 1000 700 l 1,28,-1
 1000 600 l 1,29,-1
 1050 600 l 1,30,-1
 1050 100 l 1,31,-1
 1000 100 l 1,32,-1
 1000 0 l 1,33,-1
 950 0 l 1,34,-1
 950 -100 l 1,35,-1
 350 -100 l 1,36,-1
 350 0 l 1,37,-1
 300 0 l 1,38,-1
 300 100 l 1,39,-1
 250 100 l 1,20,-1
EndSplineSet
Validated: 1
EndChar

StartChar: arrowleft
Encoding: 8592 8592 346
Width: 600
GlyphClass: 2
Flags: W
LayerCount: 2
Back
Fore
SplineSet
300 500 m 1,0,-1
 300 600 l 1,1,-1
 400 600 l 1,2,-1
 400 500 l 1,3,-1
 350 500 l 1,4,-1
 350 400 l 1,5,-1
 600 400 l 1,6,-1
 600 300 l 1,7,-1
 350 300 l 1,8,-1
 350 200 l 1,9,-1
 400 200 l 1,10,-1
 400 100 l 1,11,-1
 300 100 l 1,12,-1
 300 200 l 1,13,-1
 200 200 l 1,14,-1
 200 300 l 1,15,-1
 100 300 l 1,16,-1
 100 400 l 1,17,-1
 200 400 l 1,18,-1
 200 500 l 1,19,-1
 300 500 l 1,0,-1
EndSplineSet
Validated: 1
EndChar

StartChar: arrowup
Encoding: 8593 8593 347
Width: 600
GlyphClass: 2
Flags: W
LayerCount: 2
Back
Fore
SplineSet
200 300 m 1,0,-1
 100 300 l 1,1,-1
 100 400 l 1,2,-1
 150 400 l 1,3,-1
 150 500 l 1,4,-1
 200 500 l 1,5,-1
 200 600 l 1,6,-1
 250 600 l 1,7,-1
 250 700 l 1,8,-1
 350 700 l 1,9,-1
 350 600 l 1,10,-1
 400 600 l 1,11,-1
 400 500 l 1,12,-1
 450 500 l 1,13,-1
 450 400 l 1,14,-1
 500 400 l 1,15,-1
 500 300 l 1,16,-1
 400 300 l 1,17,-1
 400 400 l 1,18,-1
 350 400 l 1,19,-1
 350 0 l 1,20,-1
 250 0 l 1,21,-1
 250 400 l 1,22,-1
 200 400 l 1,23,-1
 200 300 l 1,0,-1
EndSplineSet
Validated: 1
EndChar

StartChar: arrowright
Encoding: 8594 8594 348
Width: 600
GlyphClass: 2
Flags: W
LayerCount: 2
Back
Fore
SplineSet
250 500 m 1,0,-1
 250 600 l 1,1,-1
 350 600 l 1,2,-1
 350 500 l 1,3,-1
 450 500 l 1,4,-1
 450 400 l 1,5,-1
 550 400 l 1,6,-1
 550 300 l 1,7,-1
 450 300 l 1,8,-1
 450 200 l 1,9,-1
 350 200 l 1,10,-1
 350 100 l 1,11,-1
 250 100 l 1,12,-1
 250 200 l 1,13,-1
 300 200 l 1,14,-1
 300 300 l 1,15,-1
 0 300 l 1,16,-1
 0 400 l 1,17,-1
 300 400 l 1,18,-1
 300 500 l 1,19,-1
 250 500 l 1,0,-1
EndSplineSet
Validated: 1
EndChar

StartChar: arrowdown
Encoding: 8595 8595 349
Width: 600
GlyphClass: 2
Flags: W
LayerCount: 2
Back
Fore
SplineSet
250 300 m 1,0,-1
 250 700 l 1,1,-1
 350 700 l 1,2,-1
 350 300 l 1,3,-1
 400 300 l 1,4,-1
 400 400 l 1,5,-1
 500 400 l 1,6,-1
 500 300 l 1,7,-1
 450 300 l 1,8,-1
 450 200 l 1,9,-1
 400 200 l 1,10,-1
 400 100 l 1,11,-1
 350 100 l 1,12,-1
 350 0 l 1,13,-1
 250 0 l 1,14,-1
 250 100 l 1,15,-1
 200 100 l 1,16,-1
 200 200 l 1,17,-1
 150 200 l 1,18,-1
 150 300 l 1,19,-1
 100 300 l 1,20,-1
 100 400 l 1,21,-1
 200 400 l 1,22,-1
 200 300 l 1,23,-1
 250 300 l 1,0,-1
EndSplineSet
Validated: 1
EndChar

StartChar: arrowboth
Encoding: 8596 8596 350
Width: 1200
GlyphClass: 2
Flags: W
LayerCount: 2
Back
Fore
SplineSet
200 300 m 1,0,-1
 200 400 l 1,1,-1
 300 400 l 1,2,-1
 300 500 l 1,3,-1
 400 500 l 1,4,-1
 400 600 l 1,5,-1
 500 600 l 1,6,-1
 500 500 l 1,7,-1
 400 500 l 1,8,-1
 400 400 l 1,9,-1
 800 400 l 1,10,-1
 800 500 l 1,11,-1
 700 500 l 1,12,-1
 700 600 l 1,13,-1
 800 600 l 1,14,-1
 800 500 l 1,15,-1
 900 500 l 1,16,-1
 900 400 l 1,17,-1
 1000 400 l 1,18,-1
 1000 300 l 1,19,-1
 900 300 l 1,20,-1
 900 200 l 1,21,-1
 800 200 l 1,22,-1
 800 100 l 1,23,-1
 700 100 l 1,24,-1
 700 200 l 1,25,-1
 800 200 l 1,26,-1
 800 300 l 1,27,-1
 400 300 l 1,28,-1
 400 200 l 1,29,-1
 500 200 l 1,30,-1
 500 100 l 1,31,-1
 400 100 l 1,32,-1
 400 200 l 1,33,-1
 300 200 l 1,34,-1
 300 300 l 1,35,-1
 200 300 l 1,0,-1
EndSplineSet
Validated: 5
EndChar

StartChar: arrowupdn
Encoding: 8597 8597 351
Width: 600
GlyphClass: 2
Flags: W
LayerCount: 2
Back
Fore
SplineSet
100 200 m 1,0,-1
 100 300 l 1,1,-1
 200 300 l 1,2,-1
 200 200 l 1,3,-1
 250 200 l 1,4,-1
 250 500 l 1,5,-1
 200 500 l 1,6,-1
 200 400 l 1,7,-1
 100 400 l 1,8,-1
 100 500 l 1,9,-1
 150 500 l 1,10,-1
 150 600 l 1,11,-1
 200 600 l 1,12,-1
 200 700 l 1,13,-1
 400 700 l 1,14,-1
 400 600 l 1,15,-1
 450 600 l 1,16,-1
 450 500 l 1,17,-1
 500 500 l 1,18,-1
 500 400 l 1,19,-1
 400 400 l 1,20,-1
 400 500 l 1,21,-1
 350 500 l 1,22,-1
 350 200 l 1,23,-1
 400 200 l 1,24,-1
 400 300 l 1,25,-1
 500 300 l 1,26,-1
 500 200 l 1,27,-1
 450 200 l 1,28,-1
 450 100 l 1,29,-1
 400 100 l 1,30,-1
 400 0 l 1,31,-1
 200 0 l 1,32,-1
 200 100 l 1,33,-1
 150 100 l 1,34,-1
 150 200 l 1,35,-1
 100 200 l 1,0,-1
EndSplineSet
Validated: 1
EndChar

